<?xml version="1.0" encoding="UTF-8"?>
<svg width="512pt" height="512pt" version="1.1" viewBox="0 0 512 512" xmlns="http://www.w3.org/2000/svg">
 <path d="m200.2 402.05c4.0195 5.5703 10.082 9.3203 16.859 10.438 0.085937 0.007813 0.17578 0.019531 0.26172 0.023437 0.91016 0.074219 1.793 0.10938 2.6523 0.10938 26.105 0 28.91-32.984 30.133-47.328 0.12109-1.4453 0.23047-2.7578 0.35156-3.8906 7.8008-74.344 82.855-78.637 86.152-78.785 63.348-3.7109 87.641 39.902 88.629 41.734 0.82422 1.5508 2.1367 2.7852 3.7305 3.5195 3.7383 1.9961 8.0469 2.6602 12.211 1.8789 4.168-0.78125 7.9414-2.957 10.703-6.1719 2.6328-3.3438 4.082-7.4648 4.1211-11.719 0.039063-4.2578-1.3398-8.4062-3.9141-11.793-21.453-29.809-53.984-49.75-90.285-55.34l-83.527-91.523c-4.3086-4.7148-10.312-7.5234-16.691-7.8047-6.3789-0.28125-12.609 1.9805-17.316 6.2969l-41.098 37.691-155.14-179.71c-2.7695-3.2734-6.7344-5.3008-11.012-5.6289-4.2734-0.32812-8.5039 1.0703-11.738 3.8867l-19.777 17.199c-3.25 2.8203-5.2227 6.832-5.4766 11.129-0.25 4.2969 1.2422 8.5117 4.1406 11.691l199.36 216.92-16.34 14.402c-3.207 2.8203-5.1523 6.8047-5.3984 11.07-0.24609 4.2617 1.2227 8.4453 4.082 11.617l20.965 23.285c-5.8398 12.23-9.9766 25.203-12.297 38.555-2.8789 16.492-0.97656 29.359 5.668 38.246zm239.01-92.5c0.95703 1.1055 1.0664 2.707 0.26562 3.9297-0.47656 0.46875-1.1641 0.65234-1.8086 0.48047-7.1836-11.309-37.105-51.004-101.85-47.324-0.91797 0.039063-92.016 4.8867-101.27 93.094-0.12891 1.2266-0.25 2.6445-0.38281 4.207-1.7031 20.059-4.9883 33.141-15.344 32.645-2.3398-0.68359-4.3789-2.1289-5.8008-4.1094-2.6914-3.5977-5.3398-11.031-2.7031-26.02 0.023438-0.12891 0.042969-0.26953 0.058594-0.39844 0.45703-3.6055 12.207-88.512 104.39-105.58 0.76172-0.15625 77.004-15.348 124.45 49.078zm-184.12-146.07c1.5742-1.4414 3.6602-2.1992 5.793-2.1055 2.1367 0.09375 4.1445 1.0352 5.5859 2.6133l71.805 78.684c-8.918-0.19922-17.832 0.50781-26.609 2.1016-3.0312 0.5625-5.9766 1.1992-8.8555 1.8906-0.30469-1.2539-0.91406-2.4141-1.7734-3.3789l-21.738-24.094c-2.832-3.1172-6.7773-5-10.98-5.2383-4.207-0.24219-8.3398 1.1797-11.508 3.9531l-16.676 14.699c-0.28906-0.60156-0.65625-1.168-1.0859-1.6797l-25.41-29.43zm-239.09-126.27 19.867-17.141 191.07 221.31c0.48047 0.54297 1.0352 1.0156 1.6445 1.4062l-13.051 11.504zm181.76 254.07 69.656-61.367 19.418 21.523c-30.141 10.574-55.609 31.391-71.977 58.82z" fill="#007258"/>
 <path d="m355.37 431.97c4.5508-1 8.9609-2.5547 13.133-4.6289 2.2852 3.3125 5.1445 7.7148 4.793 9.1719-0.042969 0.17578-0.74609 1.1719-3.1992 2.4766-1.8789 0.99219-3.2852 2.6914-3.9102 4.7227-0.625 2.0273-0.41797 4.2266 0.57812 6.1016 0.99609 1.875 2.6992 3.2812 4.7305 3.9023s4.2266 0.40625 6.1016-0.59375c5.4688-2.4219 9.5859-7.1328 11.258-12.875 1.9141-7.9766-2.3945-15.086-7.1328-21.926 3.4453-3.1094 6.5078-6.625 9.1133-10.469 3.6406 1.7305 8.3047 4.1133 8.7305 5.5508-0.14844 1.3594-0.67969 2.6484-1.5273 3.7227-2.3281 3.7422-1.1875 8.6641 2.5508 11.004 3.7344 2.3398 8.6602 1.2148 11.012-2.5117 3.5195-4.8242 4.7305-10.957 3.3086-16.758-2.3242-7.8516-9.5898-11.855-17.105-15.41 1.3984-4.4219 2.25-9 2.5352-13.633 3.4531-0.625 7.0039-0.46875 10.387 0.45703 0.007813 0.007812 0.66016 0.83203 0.55078 3.9961-0.15234 4.4141 3.3047 8.1172 7.7188 8.2734 0.09375 0.003906 0.1875 0.003906 0.28125 0.003906 4.3086-0.003906 7.8398-3.418 7.9922-7.7227 0.625-5.9375-1.3984-11.848-5.5273-16.156-5.9453-5.6445-14.258-5.4805-22.551-4.8086v-0.003906c-1-4.5273-2.5547-8.9141-4.625-13.062 2.707-2.2188 5.8438-3.8477 9.2109-4.7852 0.19141 0.046876 1.1758 0.72656 2.4961 3.1992 2.082 3.8906 6.9258 5.3594 10.82 3.2852 3.8945-2.0781 5.3711-6.918 3.2969-10.816-2.4336-5.4531-7.1406-9.5547-12.875-11.223-8-1.9219-15.129 2.3945-21.988 7.1289-3.1211-3.4453-6.6445-6.5-10.496-9.1016 1.7344-3.625 4.1094-8.2461 5.5547-8.6758 0.18359-0.0625 1.3867 0.039062 3.7734 1.5273 1.8008 1.1289 3.9766 1.4922 6.0469 1.0156 2.0703-0.48047 3.8633-1.7617 4.9883-3.5664 1.125-1.8008 1.4844-3.9766 1-6.0469-0.48047-2.0703-1.7695-3.8633-3.5742-4.9805-4.8398-3.5117-10.977-4.7148-16.781-3.2891-7.8516 2.3242-11.859 9.5742-15.422 17.066-4.4453-1.4023-9.043-2.2578-13.699-2.5391-0.62109-3.4297-0.46484-6.957 0.45313-10.316 0.003906-0.011719 0.78516-0.67578 4.0273-0.55469 2.1289 0.085937 4.2031-0.68359 5.7617-2.1289 1.5625-1.4492 2.4805-3.4609 2.5547-5.5898 0.074218-2.125-0.70313-4.1953-2.1602-5.75-1.457-1.5508-3.4727-2.4609-5.6016-2.5234-5.9453-0.59766-11.855 1.4219-16.191 5.5312-5.6328 5.9375-5.4727 14.215-4.8008 22.477-4.5508 1-8.9609 2.5547-13.133 4.6289-2.2852-3.3125-5.1445-7.7148-4.7969-9.1719 0.042968-0.17578 0.74609-1.1719 3.2031-2.4766 3.8906-2.0781 5.3711-6.9102 3.3008-10.809-2.0664-3.8984-6.8984-5.3828-10.801-3.3242-5.4688 2.4219-9.5859 7.1328-11.258 12.875-1.9141 7.9805 2.3984 15.086 7.1367 21.922-3.4492 3.1133-6.5117 6.6289-9.1172 10.477-3.6406-1.7344-8.3047-4.1133-8.7305-5.5508 0.14844-1.3594 0.67969-2.6523 1.5273-3.7266 2.3242-3.7461 1.1836-8.6641-2.5508-11-3.7344-2.3398-8.6602-1.2188-11.012 2.5078-3.5195 4.8242-4.7305 10.957-3.3086 16.758 2.3242 7.8516 9.5898 11.859 17.105 15.414-1.3984 4.4219-2.25 9-2.5352 13.629-3.4531 0.62891-7.0039 0.47266-10.387-0.45703-0.007812-0.007812-0.66016-0.83203-0.55078-3.9922 0.085938-2.1289-0.67969-4.2031-2.1289-5.7617-1.4492-1.5625-3.4609-2.4805-5.5898-2.5547-2.125-0.074219-4.1953 0.70312-5.75 2.1602-1.5508 1.457-2.4609 3.4727-2.5234 5.6016-0.625 5.9336 1.3984 11.844 5.5273 16.152 4.3867 3.7383 10.078 5.5859 15.824 5.1406 2.2109 0 4.4688-0.15625 6.7266-0.33594 1 4.5312 2.5547 8.9219 4.625 13.074-3.3438 2.2852-7.8008 5.1484-9.2109 4.7812-0.19141-0.046875-1.1758-0.72656-2.4961-3.1992-0.99609-1.875-2.6992-3.2773-4.7305-3.8945-2.0312-0.62109-4.2266-0.40625-6.0977 0.59375-1.875 1-3.2734 2.7031-3.8906 4.7344-0.61719 2.0312-0.39844 4.2266 0.60156 6.0977 2.4336 5.4531 7.1445 9.5547 12.875 11.223 1.2891 0.3125 2.6094 0.46875 3.9375 0.46875 6.6406-0.67188 12.93-3.3164 18.055-7.5977 3.1172 3.4453 6.6406 6.5039 10.492 9.1016-1.7344 3.625-4.1094 8.2461-5.5508 8.6758-0.19141 0.0625-1.3828-0.039062-3.7773-1.5273-1.8008-1.1289-3.9766-1.4922-6.0469-1.0156-2.0703 0.48047-3.8633 1.7617-4.9883 3.5664-1.125 1.8008-1.4844 3.9766-1 6.0469 0.48047 2.0703 1.7695 3.8633 3.5742 4.9805 3.5977 2.4375 7.8086 3.8086 12.152 3.9609 1.5664 0.003906 3.125-0.22266 4.6289-0.66797 7.8516-2.3281 11.859-9.5781 15.422-17.07v0.003906c4.4453 1.3984 9.0469 2.2539 13.699 2.5391 0.62109 3.4297 0.46484 6.9531-0.45312 10.316-1.2656 0.5625-2.6602 0.75391-4.0312 0.55469-4.3984-0.12891-8.0781 3.3203-8.2305 7.7188-0.15234 4.4023 3.2773 8.0977 7.6758 8.2734 0.40625 0.011719 0.80859 0.019531 1.2031 0.019531 5.5586 0.34375 11-1.6719 14.992-5.5547 5.6328-5.9375 5.4727-14.211 4.8008-22.477zm-53.57-55.914c-0.03125-10.977 4.3047-21.516 12.047-29.297 7.7461-7.7812 18.266-12.164 29.242-12.184 10.977-0.019531 21.512 4.3242 29.285 12.074 7.7734 7.7539 12.148 18.277 12.156 29.254 0.011718 10.977-4.3438 21.508-12.102 29.273-7.7617 7.7656-18.289 12.129-29.266 12.129-10.953 0-21.457-4.3398-29.211-12.074-7.7539-7.7305-12.125-18.227-12.152-29.176z" fill="#007258"/>
 <path d="m367.19 376.05c0.011719-6.375-2.5117-12.492-7.0156-17.004-4.5-4.5117-10.609-7.0508-16.984-7.0586-6.375-0.007813-12.488 2.5195-17 7.0234s-7.0469 10.613-7.0508 16.988c-0.003907 6.375 2.5273 12.488 7.0312 16.996 4.5039 4.5078 10.617 7.043 16.992 7.043 6.3633 0 12.469-2.5273 16.973-7.0273 4.5039-4.4961 7.043-10.598 7.0547-16.961zm-32.051 0c-0.015625-3.25 1.9297-6.1875 4.9297-7.4414 2.9961-1.2539 6.457-0.57422 8.7578 1.7188 2.3047 2.2891 2.9961 5.7461 1.7539 8.75-1.2383 3.0039-4.168 4.9609-7.418 4.9609-4.4219 0.003906-8.0117-3.5703-8.0234-7.9883z" fill="#007258"/>
 <path d="m167.84 475.88 8.0195 15.562c1.3203 2.5 3.2773 4.6094 5.6758 6.1055 2.3945 1.5 5.1484 2.3398 7.9727 2.4336 0.22656 0.011719 0.44922 0.015625 0.67578 0.015625 5.5508 0.035156 10.727-2.7891 13.699-7.4766l10.453-16.523 37.25-0.027344 7.4844 10.227c3.1953 4.2617 8.2734 6.6914 13.598 6.5156 5.3203-0.17969 10.223-2.9453 13.129-7.4102l6.0234-9.3047 47.648-0.027344 7.4805 10.223c3.1953 4.2617 8.2734 6.6953 13.598 6.5156 5.3242-0.17578 10.227-2.9414 13.133-7.4062l6.0234-9.3047h124.3c4.418 0 8-3.582 8-8s-3.582-8-8-8h-124.3c-5.5195-0.015625-10.672 2.7773-13.668 7.4141l-5.793 9.2617c-0.125 0.039063-0.25 0.0625-0.37891 0.074219l-7.4805-10.223c-3.0703-4.1289-7.918-6.5508-13.062-6.5273h-47.5c-5.5195-0.019531-10.672 2.7734-13.664 7.4141l-5.7969 9.2656c-0.125 0.035156-0.25 0.058593-0.37891 0.070312l-7.4727-10.215c-3.0664-4.1367-7.9219-6.5625-13.07-6.5352h-37.102c-5.5469-0.019531-10.719 2.8008-13.703 7.4766l-10.223 16.484c-0.10547 0.054687-0.36719 0.050781-0.32422 0.15625l-8.0195-15.562c-1.3672-2.6094-3.4258-4.7852-5.9531-6.2969-2.5273-1.5078-5.4219-2.2891-8.3672-2.2578h-159.75c-4.418 0-8 3.582-8 8s3.582 8 8 8z" fill="#007258"/>
 <path d="m68 508c4.418 0 8-3.582 8-8s-3.582-8-8-8h-16c-4.418 0-8 3.582-8 8s3.582 8 8 8z" fill="#007258"/>
 <path d="m136.49 508c4.418 0 8-3.582 8-8s-3.582-8-8-8h-16c-4.418 0-8 3.582-8 8s3.582 8 8 8z" fill="#007258"/>
 <path d="m480 508c4.418 0 8-3.582 8-8s-3.582-8-8-8h-16c-4.418 0-8 3.582-8 8s3.582 8 8 8z" fill="#007258"/>
 <path d="m232 508c4.418 0 8-3.582 8-8s-3.582-8-8-8h-8c-4.418 0-8 3.582-8 8s3.582 8 8 8z" fill="#007258"/>
 <path d="m416 508c4.418 0 8-3.582 8-8s-3.582-8-8-8h-8c-4.418 0-8 3.582-8 8s3.582 8 8 8z" fill="#007258"/>
</svg>
