<?xml version="1.0" encoding="UTF-8"?>
<svg viewBox="0 0 1200 1200" xmlns="http://www.w3.org/2000/svg">
 <defs>
  <clipPath id="b">
   <path d="m222.14 228h673.86v604h-673.86z"/>
  </clipPath>
  <clipPath id="a">
   <path d="m222.14 901h755.71v60h-755.71z"/>
  </clipPath>
 </defs>
 <rect x="-120" y="-120" width="1440" height="1440" fill="#fff"/>
 <g clip-path="url(#b)">
  <path d="m517.64 815.57c5.9336 8.2227 14.879 13.758 24.883 15.406 0.125 0.011719 0.25781 0.027344 0.38672 0.035156 1.3438 0.10938 2.6484 0.16406 3.9141 0.16016 38.531 0 42.672-48.684 44.477-69.855 0.17969-2.1328 0.33984-4.0703 0.51953-5.7422 11.516-109.73 122.3-116.07 127.16-116.29 93.5-5.4766 129.36 58.895 130.82 61.602 1.2188 2.2891 3.1523 4.1133 5.5078 5.1953 5.5156 2.9492 11.875 3.9258 18.023 2.7734 6.1484-1.1523 11.723-4.3633 15.797-9.1094 3.8867-4.9336 6.0273-11.02 6.082-17.301 0.054688-6.2812-1.9766-12.402-5.7773-17.402-15.676-21.781-35.531-40.223-58.41-54.246-22.879-14.027-48.324-23.352-74.848-27.438l-123.29-135.09c-6.3555-6.957-15.219-11.102-24.637-11.52-9.4141-0.41797-18.609 2.9258-25.559 9.2969l-60.66 55.629-229-265.25c-4.0859-4.832-9.9375-7.8242-16.25-8.3086-6.3125-0.48438-12.551 1.582-17.328 5.7383l-29.191 25.387c-4.7969 4.1602-7.707 10.086-8.0781 16.426-0.37109 6.3398 1.8281 12.562 6.1055 17.254l294.25 320.18-24.117 21.258v-0.003907c-4.7344 4.1641-7.6016 10.047-7.9688 16.34-0.36328 6.293 1.8047 12.469 6.0273 17.148l30.941 34.367c-8.6172 18.055-14.723 37.199-18.148 56.91-4.25 24.34-1.4414 43.332 8.3672 56.449zm352.78-136.53c1.4102 1.6289 1.5703 4 0.39062 5.8008-0.70312 0.69531-1.7188 0.96484-2.668 0.71094-10.602-16.691-54.77-75.281-150.33-69.852-1.3555 0.058594-135.82 7.2109-149.48 137.41-0.19141 1.8086-0.36719 3.9023-0.56641 6.2109-2.5156 29.605-7.3633 48.914-22.648 48.184-3.4492-1.0078-6.4648-3.1445-8.5586-6.0664-3.9727-5.3086-7.8828-16.281-3.9883-38.406 0.035157-0.19141 0.0625-0.39844 0.085938-0.58984 0.67578-5.3203 18.02-130.64 154.08-155.84 1.1211-0.22656 113.65-22.648 183.68 72.441zm-271.77-215.59c2.3242-2.1289 5.4023-3.2461 8.5508-3.1055 3.1523 0.14062 6.1172 1.5273 8.2422 3.8555l105.99 116.14c-13.164-0.28906-26.324 0.75-39.277 3.1016-4.4727 0.82812-8.8203 1.7695-13.07 2.793-0.45312-1.8516-1.3516-3.5625-2.6211-4.9883l-32.086-35.562c-4.1797-4.6016-10-7.3789-16.207-7.7344s-12.305 1.7422-16.984 5.8359l-24.617 21.695v0.003906c-0.42578-0.89062-0.96484-1.7266-1.5977-2.4805l-37.504-43.441zm-352.89-186.38 29.324-25.301 282.02 326.66c0.71094 0.80078 1.5273 1.4961 2.4297 2.0742l-19.262 16.98zm268.28 375.01 102.81-90.578 28.66 31.77h-0.003906c-44.48 15.609-82.078 46.332-106.23 86.816z" fill="#007258"/>
 </g>
 <path d="m746.67 859.73c6.7188-1.4766 13.227-3.7734 19.383-6.8359 3.375 4.8906 7.5938 11.387 7.0781 13.539-0.0625 0.25781-1.1016 1.7305-4.7227 3.6562-2.7734 1.4648-4.8516 3.9688-5.7734 6.9688-0.92187 2.9961-0.61719 6.2383 0.85547 9.0078 1.4688 2.7695 3.9805 4.8398 6.9805 5.7578 3 0.91406 6.2383 0.60156 9.0078-0.875 8.0664-3.5742 14.148-10.531 16.613-19.004 2.8242-11.777-3.5352-22.266-10.531-32.359h0.003906c5.0898-4.5898 9.6055-9.7812 13.453-15.453 5.3711 2.5547 12.262 6.0703 12.887 8.1914-0.22266 2.0078-1.0039 3.9102-2.2578 5.4961-3.4336 5.5234-1.75 12.789 3.7656 16.242s12.781 1.793 16.254-3.7109c5.1953-7.1211 6.9805-16.172 4.8828-24.734-3.4336-11.586-14.156-17.5-25.246-22.746v0.003906c2.0625-6.5312 3.3203-13.289 3.7422-20.121 5.0977-0.92578 10.336-0.69531 15.332 0.67188 0.011719 0.011718 0.97266 1.2266 0.8125 5.8984-0.22656 6.5156 4.875 11.984 11.391 12.211 0.13672 0.007813 0.27734 0.007813 0.41406 0.007813h0.003906c6.3594-0.007813 11.57-5.043 11.793-11.402 0.92188-8.7617-2.0625-17.484-8.1562-23.844-8.7734-8.3281-21.047-8.0859-33.289-7.1016-1.4766-6.6836-3.7656-13.156-6.8203-19.281 3.9922-3.2734 8.6211-5.6797 13.594-7.0664 0.28125 0.070313 1.7344 1.0742 3.6836 4.7227 3.0742 5.7461 10.219 7.9141 15.969 4.8477s7.9258-10.211 4.8672-15.965c-3.5898-8.043-10.543-14.102-19.004-16.562-11.809-2.8359-22.328 3.5352-32.457 10.523-4.6016-5.0859-9.8047-9.5977-15.488-13.438 2.5586-5.3477 6.0625-12.172 8.1992-12.805 0.26953-0.09375 2.0469 0.058594 5.5703 2.2539h-0.003906c2.6602 1.668 5.8711 2.207 8.9258 1.5 3.0547-0.70703 5.707-2.5977 7.3633-5.2617 1.6602-2.6602 2.1914-5.8711 1.4766-8.9258-0.71094-3.0547-2.6094-5.6992-5.2773-7.3516-7.1406-5.1797-16.199-6.957-24.77-4.8555-11.586 3.4336-17.504 14.133-22.762 25.188l0.003906 0.003906c-6.5625-2.0703-13.352-3.332-20.219-3.75-0.91797-5.0625-0.69141-10.266 0.66406-15.227 0.007813-0.015625 1.1602-0.99609 5.9453-0.82031v0.003906c3.1406 0.125 6.1992-1.0078 8.5039-3.1445 2.3047-2.1367 3.6602-5.1055 3.7695-8.2461s-1.0391-6.1953-3.1875-8.4883c-2.1523-2.293-5.125-3.6328-8.2695-3.7266-8.7734-0.88281-17.496 2.0977-23.898 8.1641-8.3125 8.7617-8.0742 20.98-7.0859 33.172-6.7148 1.4766-13.223 3.7734-19.379 6.8359-3.3711-4.8867-7.5938-11.387-7.082-13.539 0.0625-0.25781 1.1016-1.7305 4.7266-3.6562 5.7461-3.0625 7.9258-10.199 4.8711-15.953-3.0508-5.75-10.184-7.9453-15.941-4.9062-8.0703 3.5781-14.148 10.531-16.617 19.004-2.8281 11.777 3.5391 22.266 10.531 32.359-5.0898 4.5938-9.6094 9.7852-13.457 15.461-5.375-2.5586-12.258-6.0703-12.883-8.1914 0.21875-2.0078 1-3.9141 2.2539-5.5 3.4297-5.5273 1.7461-12.785-3.7656-16.238s-12.777-1.7969-16.254 3.7031c-5.1914 7.1211-6.9805 16.172-4.8828 24.734 3.4297 11.59 14.156 17.504 25.246 22.754v-0.003906c-2.0625 6.5273-3.3164 13.285-3.7383 20.117-5.0977 0.92578-10.336 0.69531-15.332-0.67578-0.011719-0.011719-0.97266-1.2266-0.8125-5.8906 0.125-3.1406-1.0078-6.2031-3.1445-8.5039-2.1367-2.3047-5.1055-3.6602-8.2461-3.7695-3.1406-0.10938-6.1953 1.0391-8.4883 3.1875-2.293 2.1523-3.6328 5.125-3.7266 8.2656-0.92188 8.7617 2.0625 17.484 8.1602 23.844 6.4766 5.5156 14.871 8.2461 23.355 7.5859 3.2656 0 6.5977-0.23047 9.9258-0.5 1.4766 6.6914 3.7695 13.172 6.8281 19.305-4.9375 3.375-11.512 7.5977-13.598 7.0547-0.28125-0.070313-1.7344-1.0742-3.6836-4.7227h0.003906c-1.4727-2.7656-3.9844-4.8359-6.9844-5.75-2.9961-0.91406-6.2344-0.59766-9 0.875-2.7656 1.4766-4.832 3.9922-5.7422 6.9922-0.91016 2.9961-0.58984 6.2344 0.88672 9 3.5938 8.0469 10.543 14.105 19.004 16.562 1.9062 0.46094 3.8555 0.69141 5.8125 0.69531 9.8047-0.99219 19.086-4.8945 26.648-11.215 4.6016 5.0859 9.8008 9.5977 15.488 13.434-2.5586 5.3477-6.0625 12.176-8.1914 12.805-0.28125 0.09375-2.043-0.058594-5.5742-2.2539h-0.003907c-2.6562-1.6641-5.8672-2.2031-8.9258-1.5-3.0547 0.70703-5.7031 2.6016-7.3633 5.2617-1.6562 2.6602-2.1875 5.875-1.4766 8.9297 0.71484 3.0508 2.6133 5.6992 5.2773 7.3516 5.3125 3.5938 11.527 5.6211 17.938 5.8438 2.3125 0.003906 4.6133-0.32812 6.832-0.98438 11.59-3.4336 17.508-14.137 22.762-25.191v-0.003907c6.5625 2.0703 13.352 3.3281 20.219 3.75 0.91797 5.0625 0.69141 10.266-0.66797 15.23-1.8633 0.82812-3.9258 1.1133-5.9492 0.81641-6.4961-0.19141-11.922 4.9023-12.148 11.395-0.22656 6.4961 4.8398 11.953 11.332 12.211 0.60156 0.015625 1.1953 0.027344 1.7773 0.027344h-0.003906c8.2031 0.50781 16.238-2.4688 22.129-8.1992 8.3125-8.7617 8.0742-20.977 7.0859-33.172zm-79.07-82.531c-0.042968-16.203 6.3516-31.758 17.781-43.242 11.434-11.484 26.961-17.953 43.16-17.984 16.203-0.027343 31.754 6.3828 43.227 17.824 11.473 11.441 17.93 26.973 17.941 43.176 0.015625 16.203-6.4102 31.75-17.863 43.211s-26.992 17.902-43.195 17.902c-16.164 0-31.668-6.4062-43.113-17.82-11.445-11.414-17.895-26.902-17.938-43.066z" fill="#007258"/>
 <path d="m764.11 777.2c0.015625-9.4062-3.707-18.438-10.352-25.098-6.6445-6.6602-15.664-10.41-25.07-10.418-9.4102-0.011719-18.434 3.7188-25.094 10.363-6.6562 6.6484-10.402 15.668-10.406 25.078-0.003906 9.4062 3.7266 18.43 10.379 25.086 6.6484 6.6562 15.672 10.395 25.078 10.395 9.3984-0.003906 18.406-3.7305 25.055-10.371 6.6484-6.6367 10.395-15.641 10.41-25.035zm-47.309 0h0.003906c-0.023438-4.7969 2.8477-9.1328 7.2734-10.984s9.5312-0.84766 12.93 2.5352c3.3984 3.3828 4.4219 8.4844 2.5898 12.918-1.832 4.4336-6.1562 7.3242-10.953 7.3203-6.5234 0.011718-11.82-5.2656-11.84-11.789z" fill="#007258"/>
 <g clip-path="url(#a)">
  <path d="m469.88 924.55 11.836 22.969c1.9453 3.6914 4.8359 6.8008 8.375 9.0156 3.5391 2.2109 7.5977 3.4492 11.77 3.5898 0.33594 0.015625 0.66406 0.023438 0.99609 0.023438 8.1914 0.050781 15.836-4.1172 20.223-11.035l15.426-24.391 54.98-0.039062 11.047 15.094h0.003906c4.7188 6.2891 12.207 9.875 20.066 9.6133 7.8594-0.26172 15.094-4.3438 19.379-10.934l8.8906-13.734 70.328-0.039062 11.043 15.09v-0.003907c4.7188 6.293 12.211 9.8828 20.07 9.6211s15.094-4.3438 19.387-10.934l8.8906-13.734h183.46c6.5195 0 11.809-5.2852 11.809-11.809 0-6.5195-5.2891-11.809-11.809-11.809h-183.46c-8.1523-0.023438-15.754 4.0977-20.176 10.945l-8.5508 13.672v-0.003906c-0.17969 0.058594-0.36719 0.09375-0.55859 0.10938l-11.043-15.09v0.003907c-4.5312-6.0938-11.688-9.668-19.277-9.6367h-70.113c-8.1484-0.027344-15.75 4.0977-20.168 10.945l-8.5547 13.676c-0.18359 0.050782-0.37109 0.085938-0.55859 0.10156l-11.031-15.074c-4.5273-6.1055-11.691-9.6875-19.293-9.6484h-54.762c-8.1875-0.027344-15.816 4.1367-20.223 11.035l-15.09 24.332c-0.15625 0.082032-0.54297 0.074219-0.48047 0.23047l-11.836-22.969c-2.0156-3.8516-5.0586-7.0664-8.7891-9.293-3.7305-2.2305-8.0039-3.3828-12.348-3.3359h-235.79c-6.5234 0-11.809 5.2891-11.809 11.809 0 6.5234 5.2852 11.809 11.809 11.809z" fill="#007258"/>
 </g>
 <path d="m322.51 971.95c6.5234 0 11.809-5.2852 11.809-11.805 0-6.5234-5.2852-11.809-11.809-11.809h-23.613c-6.5234 0-11.809 5.2852-11.809 11.809 0 6.5195 5.2852 11.805 11.809 11.805z" fill="#007258"/>
 <path d="m423.61 971.95c6.5234 0 11.809-5.2852 11.809-11.805 0-6.5234-5.2852-11.809-11.809-11.809h-23.617 0.003907c-6.5234 0-11.809 5.2852-11.809 11.809 0 6.5195 5.2852 11.805 11.809 11.805z" fill="#007258"/>
 <path d="m930.62 971.95c6.5234 0 11.809-5.2852 11.809-11.805 0-6.5234-5.2852-11.809-11.809-11.809h-23.617 0.003907c-6.5234 0-11.809 5.2852-11.809 11.809 0 6.5195 5.2852 11.805 11.809 11.805z" fill="#007258"/>
 <path d="m564.58 971.95c6.5195 0 11.809-5.2852 11.809-11.805 0-6.5234-5.2891-11.809-11.809-11.809h-11.809c-6.5195 0-11.809 5.2852-11.809 11.809 0 6.5195 5.2891 11.805 11.809 11.805z" fill="#007258"/>
 <path d="m836.16 971.95c6.5195 0 11.805-5.2852 11.805-11.805 0-6.5234-5.2852-11.809-11.805-11.809h-11.809c-6.5234 0-11.809 5.2852-11.809 11.809 0 6.5195 5.2852 11.805 11.809 11.805z" fill="#007258"/>
</svg>
