<?xml version="1.0" encoding="UTF-8"?>
<svg viewBox="0 0 1200 1200" xmlns="http://www.w3.org/2000/svg">
 <rect x="-120" y="-120" width="1440" height="1440" fill="#fff"/>
 <path d="m762.87 356.31c3.0117 17.949 5.4336 37.578 5.4336 37.578s2.4219-19.633 5.4336-37.578c3.0117-17.949 41.977-20.191 41.977-20.191-9.6523-0.5625-38.965-1.6836-41.977-19.633s-5.4336-37.578-5.4336-37.578-2.4219 19.633-5.4336 37.578c-3.0117 17.949-41.977 20.191-41.977 20.191 9.6523 0.5625 38.965 1.6836 41.977 19.633z" fill="#007258"/>
 <path d="m838.29 469.73c5.5781 6.1406 8.7969 24.973 11.129 35.363 2.332-10.391 5.5508-29.254 11.129-35.363 5.9023-6.4648 13.875-9.0625 23.824-12.812-14.141-0.79688-20.664-6.5547-20.664-6.5547-11.777-7.0547-14.258-34.156-14.258-34.156s-2.4805 27.098-14.258 34.156c0 0-6.5547 5.7578-20.664 6.5547 9.9492 3.7773 17.918 6.3477 23.824 12.812z" fill="#007258"/>
 <path d="m339.11 397.02c3.4258 21.992 6.1992 46.082 6.1992 46.082s2.7461-24.059 6.1992-46.082c3.4531-21.992 47.793-24.766 47.793-24.766-11.012-0.67969-44.34-2.0664-47.793-24.059-3.4258-21.992-6.1992-46.082-6.1992-46.082s-2.7461 24.059-6.1992 46.082c-3.4258 21.992-47.793 24.766-47.793 24.766 11.012 0.67969 44.34 2.0664 47.793 24.059z" fill="#007258"/>
 <path d="m308.79 739.69s-2.4805 27.188-14.316 34.273c0 0-6.5547 5.7852-20.754 6.5547 9.9766 3.7773 17.977 6.375 23.883 12.871 5.5781 6.1406 8.8281 25.062 11.16 35.484 2.332-10.422 5.5781-29.344 11.16-35.484 5.9023-6.4961 13.902-9.0938 23.883-12.871-14.168-0.79688-20.754-6.5547-20.754-6.5547-11.809-7.0859-14.316-34.273-14.316-34.273z" fill="#007258"/>
 <path d="m912.97 601.48-137.68-116.69c-6.582 2.6875-12.488 5.2266-17.684 8.2344l143.91 121.98c3.8672 3.2773 2.7148 7.4375 2.2734 8.6484-0.44141 1.2109-2.2734 5.1055-7.3203 5.1055h-49.652l-113.21-95.938c-1.9492 8.2656-6.3164 30.613-6.9062 33.504-0.5625 2.7461-2.9805 4.7227-5.7852 4.7227-2.8047 0-5.2266-1.9766-5.7852-4.7227-0.58984-2.8945-1.2383-6.1094-1.8906-9.5625-3.4531-17.711-8.6797-44.516-15.734-52.93-8.1758-9.7422-19.453-14.316-33.711-20.133l-4.457-1.8008c-2.5391-1.0352-4.043-3.7188-3.5703-6.4336 0.41406-2.3906 2.2148-4.25 4.5156-4.7812l-28.93-24.5c-8.3555-7.0859-20.574-7.0859-28.93 0l-215.5 182.64h-49.652c-5.0469 0-6.8789-3.9258-7.3203-5.1055-0.44141-1.2109-1.5664-5.3711 2.2734-8.6484l258.06-218.8c7.7031-6.5234 17.152-9.8008 26.598-9.8008 9.4453 0 18.895 3.2773 26.598 9.8008l59.867 50.746c2.6875-5.2852 4.8398-11.453 6.5234-17.684l-54.938-46.555c-22.051-18.688-54.051-18.688-76.07 0l-98.688 83.629v-30.082h-92.078v108.14l-67.305 57.031c-8.2656 6.9961-11.188 18.094-7.4688 28.25s13.137 16.738 23.969 16.738h47.027v271.38h465.21v-271.38h47.027c10.832 0 20.223-6.5547 23.969-16.738 3.7188-10.156 0.79688-21.254-7.4688-28.25zm-348.63 298.66h-98.477v-124.01c0-27.16 22.082-49.238 49.238-49.238s49.238 22.082 49.238 49.238zm146.62-64.973h-63.852v-63.852h63.852zm0-81.562h-63.852v-63.852h63.852zm81.562 81.562h-63.852v-63.852h63.852zm0-81.562h-63.852v-63.852h63.852z" fill="#007258"/>
 <path d="m720.95 433.87c-3.9258 13.758-10.332 28.191-20.637 35.129-1.6523 1.4453-7.6445 6.1406-18.242 9.5625 9.3867 4.3672 17.652 9.418 24.5 17.594 6.4062 7.6445 10.863 23.145 14.375 39.086 3.5117-15.941 7.9688-31.438 14.375-39.086 6.8477-8.1758 15.113-13.254 24.5-17.594-10.598-3.4258-16.59-8.1172-18.242-9.5625-10.273-6.9375-16.68-21.371-20.637-35.129z" fill="#007258"/>
</svg>
