<?xml version="1.0" encoding="UTF-8"?>
<svg width="512pt" height="512pt" version="1.1" viewBox="0 0 512 512" xmlns="http://www.w3.org/2000/svg">
 <path d="m145.46 283.68 62.059-175.16-150.18-12.539-31.738 89.602 46.141 37.719z" fill="#007258"/>
 <path d="m180.04 308.34 5.6406 0.66016 68.5-193.36-4.5781-3.0586c-9.3594-6.2812-19.461-9.7578-31.48-11.059l-68.898 194.5c10.559 7.2188 20.16 11.082 30.82 12.32z" fill="#007258"/>
 <path d="m96.902 375.74c-4.0391 0-7.3203 3.2812-7.3203 7.3203s3.2812 7.3203 7.3203 7.3203c4.0391 0 7.3203-3.2812 7.3203-7.3203s-3.2812-7.3203-7.3203-7.3203z" fill="#007258"/>
 <path d="m462.48 218.32c-0.85938 0.32031-1.7617 0.55859-2.7188 0.55859h-80.902v55.797l107.52 20.301v-13.941l-23.922-62.719z" fill="#007258"/>
 <path d="m436.3 153.78c0-6.9609-5.6406-12.602-12.621-12.602-6.9609 0-12.602 5.6406-12.602 12.602v24.102h25.219z" fill="#007258"/>
 <path d="m253.54 295.76c14.441-1.2188 26.621-10.398 31.281-23.602l4.1406-11.578 15-42.34 4.1016-11.68c4.6016-13.102 0.98047-27.961-9.4805-38l-41.039-39.219-60.621 171.08 56.602-4.6797z" fill="#007258"/>
 <path d="m296.3 263.2 0.98047 0.35938 5.8789 2.1016c0.66016 0.19922 1.2812 0.30078 2 0.39844 3.9414 0.39844 7.7812-1.8398 9.1211-5.7383l4.0391-11.422 1.8984-5.2812-0.058594-0.058594 3.3203-9.2188c0.058593-0.16016 0.10156-0.26172 0.10156-0.39844 1.3398-4.4609-1.0781-9.1602-5.4219-10.762l-6.9805-2.4414-15.02 42.379 0.12109 0.039062z" fill="#007258"/>
 <path d="m414.32 350.18c-18.18 0-32.879 14.699-32.922 32.879v0.058594c0 18.18 14.738 32.922 32.922 32.922 18.18 0 32.922-14.738 32.922-32.922v-0.058594c-0.058594-18.18-14.738-32.879-32.922-32.879zm0 47.898c-8.2617 0-15-6.7188-15-15s6.7188-15 15-15 15 6.7188 15 15-6.7188 15-15 15z" fill="#007258"/>
 <path d="m323.58 257.04-2.0781 5.8398c-2.2383 6.582-8.4414 10.898-15.398 10.898-0.57812 0-1.1602-0.039063-1.7617-0.10156-1.4219-0.19922-2.3984-0.37891-3.4609-0.71875l-5.8594-2.0781-8.0586 49.641-215.22 0.019531v-87.281l-46.141-37.762v187.56h30.719c0-22.379 18.219-40.602 40.602-40.602 22.379 0 40.602 18.219 40.602 40.602h16.121c0-22.379 18.219-40.602 40.602-40.602 22.379 0 40.602 18.219 40.602 40.602h103.06v-62.52h-14.34v-63.477z" fill="#007258"/>
 <path d="m414.32 375.76c-4.0391 0-7.3203 3.2812-7.3203 7.3203 0 4.0391 3.2812 7.3203 7.3203 7.3203 4.0391 0 7.3203-3.2812 7.3203-7.3203 0-4.0391-3.2812-7.3203-7.3203-7.3203z" fill="#007258"/>
 <path d="m467.02 335.88v15.898c0 5.6602 4.5781 10.238 10.238 10.238h9.1406v-36.379h-9.1406c-5.6602 0-10.238 4.5781-10.238 10.238z" fill="#007258"/>
 <path d="m194.24 375.74c-4.0391 0-7.3203 3.2812-7.3203 7.3203s3.2812 7.3203 7.3203 7.3203c4.0391 0 7.3203-3.2812 7.3203-7.3203s-3.2812-7.3203-7.3203-7.3203z" fill="#007258"/>
 <path d="m96.922 350.14c-18.18 0-32.922 14.738-32.922 32.922 0 18.18 14.738 32.922 32.922 32.922 18.18 0 32.922-14.738 32.922-32.922 0-18.18-14.738-32.922-32.922-32.922zm-0.019531 47.922c-8.2617 0-15-6.7188-15-15s6.7188-15 15-15 15 6.7188 15 15-6.7188 15-15 15z" fill="#007258"/>
 <path d="m371.2 211.2h88.582l-9.7812-25.66h-104.4v197.52h28.121c0.078125-22.422 18.281-40.582 40.602-40.582 22.32 0 40.539 18.18 40.602 40.52v0.039062h31.48v-13.359h-9.1406c-9.8789 0-17.922-8.0391-17.922-17.922v-15.898c0-9.8789 8.0391-17.922 17.922-17.922h9.1406v-15.16l-115.2-21.762v-69.844zm5.8789 91.582h6.8398c2.8398 0 5.1602 2.3008 5.1602 5.1602 0 2.8398-2.3008 5.1602-5.1602 5.1602h-6.8398c-2.8398 0-5.1602-2.3008-5.1602-5.1602 0-2.8398 2.3008-5.1602 5.1602-5.1602z" fill="#007258"/>
 <path d="m194.26 350.14c-18.18 0-32.922 14.738-32.922 32.922 0 18.18 14.738 32.922 32.922 32.922 18.18 0 32.922-14.738 32.922-32.922 0-18.18-14.738-32.922-32.922-32.922zm-0.019531 47.922c-8.2812 0-15-6.7188-15-15s6.7188-15 15-15 15 6.7188 15 15-6.7188 15-15 15z" fill="#007258"/>
</svg>
