<?xml version="1.0" encoding="UTF-8"?>
<svg viewBox="0 0 1200 1200" xmlns="http://www.w3.org/2000/svg">
 <rect x="-120" y="-120" width="1440" height="1440" fill="#fff"/>
 <path d="m332.87 903.11-5.5195 2.0352c-18.508 6.8477-38.699 6.1992-56.797-1.8594-3.8086-1.6836-8.2656 0.03125-9.9766 3.8359-1.6836 3.8086 0.03125 8.2656 3.8359 9.9766 11.777 5.2266 24.293 7.8516 36.84 7.8516 10.598 0 21.195-1.8906 31.352-5.6367l5.5195-2.0352c3.9258-1.4453 5.9023-5.8164 4.457-9.7109-1.4453-3.9258-5.8164-5.9023-9.7109-4.457z" fill="#007258"/>
 <path d="m460.91 903.29c-18.125 8.0586-38.289 8.707-56.797 1.8594l-5.5195-2.0352c-3.8984-1.418-8.2656 0.5625-9.7109 4.457-1.4453 3.9258 0.5625 8.2656 4.457 9.7109l5.5195 2.0352c10.184 3.7773 20.781 5.6367 31.352 5.6367 12.516 0 25.031-2.6289 36.84-7.8516 3.8086-1.7109 5.5195-6.168 3.8359-9.9766-1.7109-3.8086-6.168-5.5195-9.9766-3.8359z" fill="#007258"/>
 <path d="m864.5 395.96c4.1641 0 7.5586-3.3945 7.5586-7.5586v-30.23c0-4.1641-3.3945-7.5586-7.5586-7.5586s-7.5586 3.3945-7.5586 7.5586v30.23c0 4.1641 3.3945 7.5586 7.5586 7.5586z" fill="#007258"/>
 <path d="m894.73 395.96c4.1641 0 7.5586-3.3945 7.5586-7.5586v-30.23c0-4.1641-3.3945-7.5586-7.5586-7.5586-4.1641 0-7.5586 3.3945-7.5586 7.5586v30.23c0 4.1641 3.3945 7.5586 7.5586 7.5586z" fill="#007258"/>
 <path d="m932.52 267.49h-105.8c-4.1641 0-7.5586 3.3945-7.5586 7.5586v31.23c-28.547 3.3672-55.262 16.117-75.777 36.574-23.645 23.734-36.93 55.086-37.551 88.473l-81.562 100.98c-0.53125-0.11719-1.0352-0.32422-1.5938-0.32422h-52.898c-5.2539 0-10.332-0.79688-15.113-2.2148v-50.688c0-4.1641-3.3945-7.5586-7.5586-7.5586h-37.785c-4.1641 0-7.5586 3.3945-7.5586 7.5586 0 37.488 30.523 68.016 68.016 68.016h42.539l-184.65 228.63c-18.625-11.16-39.883-17.031-61.934-17.031-4.1641 0-7.5586 3.3945-7.5586 7.5586v158.7c0 4.1641 3.3945 7.5586 7.5586 7.5586 4.1641 0 7.5586-3.3945 7.5586-7.5586v-37.785h105.8c4.1641 0 7.5586-3.3945 7.5586-7.5586 0-26.805-8.9141-52.781-25.238-73.859l294.34-364.46h176.77c4.1641 0 7.5586-3.3945 7.5586-7.5586v-158.7c0-4.1641-3.3945-7.5586-7.5586-7.5586zm-415.05 219.16h22.082v35.809c-11.719-8.207-19.926-21.02-22.082-35.809zm316.81-204.04h90.688v22.672h-90.688zm90.688 143.59h-172.84c-2.2734 0-4.4297 1.0352-5.875 2.8047l-300.46 372.04c-2.3008 2.832-2.2148 6.9062 0.14844 9.6836 14.848 17.211 23.703 38.762 25.328 61.344h-97.977v-97.977c18.598 1.3008 36.367 7.4375 51.75 17.918 3.2461 2.2148 7.6758 1.5664 10.125-1.5039l284.31-352c1.418-1.7422 1.8906-3.9844 1.4453-6.1094 0.35547-29.758 12.074-57.711 33.152-78.852 19.602-19.543 45.578-31.23 73.121-32.945 2.332-0.14844 4.6641-0.20703 7.0859-0.20703h90.688z" fill="#007258"/>
 <path d="m935.41 834.83c-2.832-1.1797-6.082-0.53125-8.2344 1.6523l-14.438 14.438-33.594-87.375c-1.0039-2.5977-3.3359-4.4297-6.1094-4.7812-2.7148-0.32422-5.4922 0.85547-7.1133 3.1016l-28.754 40.266-33.418-113.59c-0.94531-3.2461-3.9844-5.5195-7.3516-5.4336-3.3945 0.03125-6.3164 2.332-7.2031 5.5781l-47.438 176.17-29.078-63.969c-1.2383-2.7461-3.957-4.5469-7.0547-4.4297-3.0117 0.058593-5.7266 1.9492-6.8477 4.7539l-21.902 54.789-31.793-114.48c-0.88672-3.2188-3.8086-5.4922-7.1445-5.5195-3.2461 0.14844-6.3164 2.0977-7.3516 5.2852l-40.293 127.59-36.695-61.195c-1.7422-2.9219-5.1953-4.3086-8.5-3.3945-3.2773 0.91406-5.5508 3.8984-5.5508 7.293v113.36c0 4.1641 3.3945 7.5586 7.5586 7.5586h385.41c4.1641 0 7.5586-3.3945 7.5586-7.5586v-83.129c0-3.0703-1.832-5.8164-4.6641-6.9648zm-10.449 82.539h-370.3v-78.527l31.293 52.16c1.5352 2.5391 4.3672 3.9258 7.3789 3.6016 2.9531-0.35547 5.4336-2.3906 6.3164-5.2266l37.668-119.29 30.969 111.5c0.85547 3.1289 3.6328 5.3438 6.8789 5.5195 3.2188 0.11719 6.2305-1.7422 7.4375-4.7227l23.645-59.129 30.465 67.012c1.3281 2.8945 4.3398 4.6953 7.5 4.3984 3.1875-0.26562 5.8438-2.4805 6.6719-5.5781l45.934-170.57 30.199 102.73c0.82812 2.7734 3.1289 4.8398 5.9922 5.3125 2.8633 0.5 5.7266-0.70703 7.4102-3.0703l29.609-41.477 32.738 85.141c0.91406 2.3906 2.9805 4.1641 5.4922 4.6641 2.5078 0.53125 5.1055-0.23438 6.9062-2.0352l9.7695-9.7695v57.328z" fill="#007258"/>
</svg>
