<?xml version="1.0" encoding="UTF-8"?>
<svg width="512pt" height="512pt" version="1.1" viewBox="0 0 512 512" xmlns="http://www.w3.org/2000/svg">
 <path d="m75.02 461.36-3.7383 1.3789c-12.539 4.6406-26.219 4.1992-38.48-1.2617-2.5781-1.1406-5.6016 0.019532-6.7617 2.6016-1.1406 2.5781 0.019532 5.6016 2.6016 6.7617 7.9805 3.5391 16.461 5.3203 24.961 5.3203 7.1797 0 14.359-1.2812 21.238-3.8203l3.7383-1.3789c2.6602-0.98047 4-3.9414 3.0195-6.582-0.98047-2.6602-3.9414-4-6.582-3.0195z" fill="#007258"/>
 <path d="m161.76 461.48c-12.281 5.4609-25.941 5.8984-38.48 1.2617l-3.7383-1.3789c-2.6406-0.96094-5.6016 0.37891-6.582 3.0195-0.98047 2.6602 0.37891 5.6016 3.0195 6.582l3.7383 1.3789c6.8984 2.5586 14.078 3.8203 21.238 3.8203 8.4805 0 16.961-1.7812 24.961-5.3203 2.5781-1.1602 3.7383-4.1797 2.6016-6.7617-1.1602-2.5781-4.1797-3.7383-6.7617-2.6016z" fill="#007258"/>
 <path d="m435.2 117.76c2.8203 0 5.1211-2.3008 5.1211-5.1211v-20.48c0-2.8203-2.3008-5.1211-5.1211-5.1211-2.8203 0-5.1211 2.3008-5.1211 5.1211v20.48c0 2.8203 2.3008 5.1211 5.1211 5.1211z" fill="#007258"/>
 <path d="m455.68 117.76c2.8203 0 5.1211-2.3008 5.1211-5.1211v-20.48c0-2.8203-2.3008-5.1211-5.1211-5.1211-2.8203 0-5.1211 2.3008-5.1211 5.1211v20.48c0 2.8203 2.3008 5.1211 5.1211 5.1211z" fill="#007258"/>
 <path d="m481.28 30.719h-71.68c-2.8203 0-5.1211 2.3008-5.1211 5.1211v21.16c-19.34 2.2812-37.441 10.922-51.34 24.781-16.02 16.078-25.02 37.32-25.441 59.941l-55.262 68.418c-0.35938-0.078125-0.69922-0.21875-1.0781-0.21875h-35.84c-3.5586 0-7-0.53906-10.238-1.5v-34.34c0-2.8203-2.3008-5.1211-5.1211-5.1211h-25.602c-2.8203 0-5.1211 2.3008-5.1211 5.1211 0 25.398 20.68 46.078 46.078 46.078h28.82l-125.1 154.9c-12.621-7.5586-27.02-11.539-41.961-11.539-2.8203 0-5.1211 2.3008-5.1211 5.1211v107.52c0 2.8203 2.3008 5.1211 5.1211 5.1211 2.8203 0 5.1211-2.3008 5.1211-5.1211v-25.602h71.68c2.8203 0 5.1211-2.3008 5.1211-5.1211 0-18.16-6.0391-35.762-17.102-50.039l199.42-246.92h119.76c2.8203 0 5.1211-2.3008 5.1211-5.1211v-107.52c0-2.8203-2.3008-5.1211-5.1211-5.1211zm-281.2 148.48h14.961v24.262c-7.9414-5.5586-13.5-14.238-14.961-24.262zm214.64-138.24h61.441v15.359h-61.441zm61.441 97.281h-117.1c-1.5391 0-3 0.69922-3.9805 1.8984l-203.56 252.06c-1.5586 1.9219-1.5 4.6797 0.10156 6.5586 10.059 11.66 16.059 26.262 17.16 41.559h-66.379v-66.379c12.602 0.87891 24.641 5.0391 35.059 12.141 2.1992 1.5 5.1992 1.0586 6.8594-1.0195l192.62-238.48c0.96094-1.1797 1.2812-2.6992 0.98047-4.1406 0.23828-20.16 8.1797-39.102 22.461-53.422 13.281-13.238 30.879-21.16 49.539-22.32 1.5781-0.10156 3.1602-0.14062 4.8008-0.14062h61.441z" fill="#007258"/>
 <path d="m483.24 415.1c-1.9219-0.80078-4.1211-0.35938-5.5781 1.1211l-9.7812 9.7812-22.762-59.199c-0.67969-1.7617-2.2617-3-4.1406-3.2383-1.8398-0.21875-3.7188 0.57812-4.8203 2.1016l-19.48 27.281-22.641-76.957c-0.64062-2.1992-2.6992-3.7383-4.9805-3.6797-2.3008 0.019531-4.2812 1.5781-4.8789 3.7812l-32.141 119.36-19.699-43.34c-0.83984-1.8594-2.6797-3.0781-4.7812-3-2.0391 0.039063-3.8789 1.3203-4.6406 3.2188l-14.84 37.121-21.539-77.559c-0.60156-2.1797-2.5781-3.7188-4.8398-3.7383-2.1992 0.10156-4.2812 1.4219-4.9805 3.5781l-27.301 86.441-24.859-41.461c-1.1797-1.9805-3.5195-2.9219-5.7617-2.3008-2.2188 0.62109-3.7617 2.6406-3.7617 4.9414v76.801c0 2.8203 2.3008 5.1211 5.1211 5.1211h261.12c2.8203 0 5.1211-2.3008 5.1211-5.1211v-56.32c0-2.0781-1.2383-3.9414-3.1602-4.7188zm-7.0781 55.922h-250.88v-53.203l21.199 35.34c1.0391 1.7188 2.9609 2.6602 5 2.4414 2-0.23828 3.6797-1.6211 4.2812-3.5391l25.52-80.82 20.98 75.539c0.57812 2.1211 2.4609 3.6211 4.6602 3.7383 2.1797 0.078125 4.2188-1.1797 5.0391-3.1992l16.02-40.059 20.641 45.398c0.89844 1.9609 2.9414 3.1797 5.0781 2.9805 2.1602-0.17969 3.9609-1.6797 4.5195-3.7812l31.121-115.56 20.461 69.602c0.55859 1.8789 2.1211 3.2812 4.0586 3.6016 1.9414 0.33984 3.8789-0.48047 5.0195-2.0781l20.059-28.102 22.18 57.684c0.62109 1.6211 2.0195 2.8203 3.7188 3.1602 1.6992 0.35938 3.4609-0.16016 4.6797-1.3789l6.6211-6.6211v38.84z" fill="#007258"/>
</svg>
