<?xml version="1.0" encoding="UTF-8"?>
<svg width="512pt" height="512pt" version="1.1" viewBox="0 0 512 512" xmlns="http://www.w3.org/2000/svg">
 <path d="m297.32 109.42v-50.82l58.082 58.082h-50.82c-4 0-7.2812-3.2812-7.2812-7.2812zm-0.19922 317.08 83.48 22.359v15.199c0 8-6.5195 14.539-14.539 14.539h-319.6c-8 0-14.539-6.5195-14.539-14.539v-416.12c0-8 6.5195-14.539 14.539-14.539h214.88c12.781 0 21.441 7.1797 21.441 19.859v56.16c0 12.02 9.7812 21.801 21.801 21.801h56.039c12.699 0 19.98 8.6406 19.98 21.441v47.738l-21.379-5.7188c-21.699-5.8203-44.359 7.2617-50.18 28.961l-40.898 152.68c-5.8203 21.699 7.2617 44.359 28.961 50.18zm-82.258-259.7c0 4.0195 3.2617 7.2812 7.2812 7.2812h114.76c4.0195 0 7.2812-3.2617 7.2812-7.2812s-3.2617-7.2812-7.2812-7.2812h-114.76c-4.0195 0-7.2812 3.2617-7.2812 7.2812zm-146.5-40.219c0 36.34 29.559 65.879 65.879 65.879 36.34 0 65.879-29.559 65.879-65.879 0-36.34-29.559-65.879-65.879-65.879-36.34 0-65.879 29.559-65.879 65.879zm0 87.922c0 4.0195 3.2617 7.2812 7.2812 7.2812h195.9c4.0195 0 7.2812-3.2617 7.2812-7.2812s-3.2617-7.2812-7.2812-7.2812h-195.92c-4.0195 0-7.2812 3.2617-7.2812 7.2812zm168.48 190.8c0-4.0195-3.2617-7.2812-7.2812-7.2812h-153.94c-4.0195 0-7.2812 3.2617-7.2812 7.2812s3.2617 7.2812 7.2812 7.2812h153.94c4.0195 0 7.2812-3.2617 7.2812-7.2812zm3.6016-47.699c0-4.0195-3.2617-7.2812-7.2812-7.2812h-157.54c-4.0195 0-7.2812 3.2617-7.2812 7.2812 0 4.0195 3.2617 7.2812 7.2812 7.2812h157.54c4.0195 0 7.2812-3.2617 7.2812-7.2812zm12.781-47.699c0-4.0195-3.2617-7.2812-7.2812-7.2812h-170.32c-4.0195 0-7.2812 3.2617-7.2812 7.2812 0 4.0195 3.2617 7.2812 7.2812 7.2812h170.32c4.0195 0 7.2812-3.2617 7.2812-7.2812zm12.781-47.699c0-4.0195-3.2617-7.2812-7.2812-7.2812h-183.1c-4.0195 0-7.2812 3.2617-7.2812 7.2812s3.2617 7.2812 7.2812 7.2812h183.12c4.0195 0 7.2812-3.2617 7.2812-7.2812zm213.18 7.0586-40.898 152.68c-3.7617 14.039-18.32 22.461-32.359 18.68l-105.02-28.141c-14.039-3.7617-22.461-18.32-18.68-32.359l40.898-152.68c3.7617-14.039 18.32-22.461 32.359-18.68l105.02 28.141c14.039 3.7617 22.461 18.32 18.68 32.359zm-151.98 100.92-12.719-3.3984c-3.8789-1.0391-7.8594 1.2617-8.8789 5.1406-1.0391 3.8789 1.2617 7.8594 5.1406 8.8789l12.719 3.3984c3.8789 1.0391 7.8594-1.2617 8.8789-5.1406 1.0391-3.8789-1.2617-7.8594-5.1406-8.8789zm8.6602-32.34-12.719-3.3984c-3.8789-1.0391-7.8594 1.2617-8.8789 5.1406-1.0391 3.8789 1.2617 7.8594 5.1406 8.8789l12.719 3.3984c3.8789 1.0391 7.8594-1.2617 8.8789-5.1406 1.0391-3.8789-1.2617-7.8594-5.1406-8.8789zm8.6602-32.34-12.719-3.3984c-3.8789-1.0391-7.8594 1.2617-8.8789 5.1406-1.0391 3.8789 1.2617 7.8594 5.1406 8.8789l12.719 3.3984c3.8789 1.0391 7.8594-1.2617 8.8789-5.1406 1.0391-3.8789-1.2617-7.8594-5.1406-8.8789zm27.559 76.719-12.719-3.3984c-3.8789-1.0391-7.8594 1.2617-8.8789 5.1406-1.0391 3.8789 1.2617 7.8594 5.1406 8.8789l12.719 3.3984c3.8789 1.0391 7.8594-1.2617 8.8789-5.1406 1.0391-3.8789-1.2617-7.8594-5.1406-8.8789zm8.6602-32.34-12.719-3.3984c-3.8789-1.0391-7.8594 1.2617-8.8789 5.1406-1.0391 3.8789 1.2617 7.8594 5.1406 8.8789l12.719 3.3984c3.8789 1.0391 7.8594-1.2617 8.8789-5.1406 1.0391-3.8789-1.2617-7.8594-5.1406-8.8789zm8.6602-32.34-12.719-3.3984c-3.8789-1.0391-7.8594 1.2617-8.8789 5.1406-1.0391 3.8789 1.2617 7.8594 5.1406 8.8789l12.719 3.3984c3.8789 1.0391 7.8594-1.2617 8.8789-5.1406 1.0391-3.8789-1.2617-7.8594-5.1406-8.8789zm27.559 76.719-12.719-3.3984c-3.8789-1.0391-7.8594 1.2617-8.8789 5.1406-1.0391 3.8789 1.2617 7.8594 5.1406 8.8789l12.719 3.3984c3.8789 1.0391 7.8594-1.2617 8.8789-5.1406 1.0391-3.8789-1.2617-7.8594-5.1406-8.8789zm8.6602-32.34-12.719-3.3984c-3.8789-1.0391-7.8594 1.2617-8.8789 5.1406-1.0391 3.8789 1.2617 7.8594 5.1406 8.8789l12.719 3.3984c3.8789 1.0391 7.8594-1.2617 8.8789-5.1406 1.0391-3.8789-1.2617-7.8594-5.1406-8.8789zm8.6602-32.34-12.719-3.3984c-3.8789-1.0391-7.8594 1.2617-8.8789 5.1406-1.0391 3.8789 1.2617 7.8594 5.1406 8.8789l12.719 3.3984c3.8789 1.0391 7.8594-1.2617 8.8789-5.1406 1.0391-3.8789-1.2617-7.8594-5.1406-8.8789zm13.762-54.117-101.12-27.102c-2.7383-0.73828-5.5781 0.89844-6.3203 3.6406l-5.7383 21.461c-0.73828 2.7383 0.89844 5.5781 3.6406 6.3203l101.12 27.102c2.7383 0.73828 5.5781-0.89844 6.3203-3.6406l5.7383-21.461c0.73828-2.7383-0.89844-5.5781-3.6406-6.3203zm-365.14-148.9c0-28.32 23.039-51.34 51.34-51.34 28.32 0 51.359 23.039 51.359 51.34 0 28.32-23.02 51.359-51.359 51.359-28.32 0-51.34-23.039-51.34-51.359zm62.941 14.5c-0.17969 1.5391-1.2188 2.8984-2.7617 3.6797-6.5586 3.2617-18.719 1.2812-21.32-3.4805-1.9219-3.5195-6.3398-4.8008-9.8789-2.8789-3.5195 1.9219-4.8203 6.3398-2.8984 9.8789 3.4219 6.2422 10.359 10.16 18 11.762v4.7188c0 4.0195 3.2617 7.2812 7.2617 7.2812s7.2812-3.2617 7.2812-7.2812v-4.4219c2.8789-0.5 5.6211-1.3594 8.0195-2.5586 5.9414-2.9414 9.9414-8.5195 10.719-14.922 0.94141-7.6602-2.6211-14.262-9.9805-18.578-4.8398-2.8398-9.8398-4.0391-14.68-5.1992-1.6016-0.37891-3.1016-0.73828-4.5781-1.1406-4.1992-1.1602-6.4414-2.3984-7.5-4.1016-0.82031-1.3203-0.60156-2.6602 0.67969-4 1.8594-1.9414 7.0586-3.5781 12.941-2.7812 4.0586 0.55859 7.3594 2.1797 8.418 4.1406 1.8984 3.5391 6.3203 4.8594 9.8398 2.9609 3.5391-1.8984 4.8594-6.3203 2.9609-9.8398-3.0391-5.6211-9.1016-9.6406-16.84-11.238v-4.6211c0-4.0195-3.2617-7.2617-7.2812-7.2617-4 0-7.2617 3.2617-7.2617 7.2617v4.5391c-4.8984 0.96094-9.6992 3.0586-13.262 6.7812-5.8398 6.0781-6.8594 14.84-2.5195 21.781 3.9805 6.3789 10.602 8.8984 15.922 10.379 1.7383 0.5 3.4609 0.89844 5.1016 1.3008 4.1406 0.98047 7.7188 1.8398 10.68 3.5781 3.1992 1.8789 3.0391 3.2812 2.9219 4.3008z" fill="#007258" fill-rule="evenodd"/>
</svg>
