<?xml version="1.0" encoding="UTF-8"?>
<svg width="512pt" height="512pt" version="1.1" viewBox="0 0 512 512" xmlns="http://www.w3.org/2000/svg">
 <path d="m478.88 480.8h-197.68l-5.3594-112.4c-10.16-0.48047-19.68-3.5195-28.16-8.8789-3.5195 2.7188-7.2812 5.0391-11.281 6.9609l-5.6016 114.32h-197.68c-4.4805 0-8 3.6016-8 8 0 4.3984 3.5195 8 8 8h445.76c4.4805 0 8-3.6016 8-8 0-4.3984-3.5195-8-8-8z" fill="#007258"/>
 <path d="m80.398 158.72c-16.719 0.16016-30.32 13.922-30.32 30.641 0 11.039 5.8398 20.961 15.602 26.559 2.0781 1.1992 3.5195 3.1211 3.9219 5.4414 0.48047 2.3203-0.16016 4.7188-1.6016 6.4805-4.3203 5.4414-7.2812 11.441-8.8008 17.84-2.7188 11.602-0.80078 23.602 5.4414 33.68 6.2422 10.16 16.078 17.281 27.68 20.082 4.0781 0.87891 8.3203 1.2812 12.559 1.0391 3.5195-0.16016 6.3984 1.7617 7.7617 4.8008 6 13.84 19.68 22.801 34.719 22.801 2.1602 0 4.3203-0.16016 6.3984-0.55859 0.48047-0.078126 0.96094-0.16016 1.4414-0.16016 2.8008 0 5.5195 1.5195 6.9609 4 9.1211 16.078 26.238 26 44.641 26 6.4805 0 12.879-1.1992 18.801-3.6016 6-2.3203 11.52-5.7617 16.238-10.238 2.8789-2.7188 7.3594-2.8789 10.48-0.39844 7.6016 6.1602 16.801 9.4414 26.641 9.4414 1.2812 0 2.6406-0.078125 3.9219-0.23828 0.16016 0.078125 0.23828 0.078125 0.39844 0 9.9219-0.96094 19.121-5.3594 26.16-12.641 2.5586-2.5586 6.5586-3.1211 9.6797-1.3594 8.3203 4.7188 17.84 7.1992 27.359 7.1992 29.762 0 54-23.199 55.281-52.879 0.16016-3.7617 2.8789-6.8789 6.5586-7.5195 15.922-2.9609 27.441-16.879 27.441-33.039 0-5.8398-1.6016-11.441-4.8008-16.801-1.1992-2-1.4414-4.3984-0.71875-6.6406 0.80078-2.1602 2.3984-4 4.5586-4.8789 16.48-6.6406 27.121-22.48 27.121-40.238 0-19.52-13.121-36.719-31.922-41.922-2.1602-0.55859-4-2-5.0391-4-1.0391-2-1.1992-4.3203-0.39844-6.3984 1.5195-4.3203 2.3203-8.8789 2.3203-13.68 0-23.281-18.879-42.16-42.082-42.16-6 0-11.84 1.2812-17.359 3.7617-2.0781 0.96094-4.6406 0.96094-6.8008-0.078124-2.0781-1.0391-3.6797-2.9609-4.2383-5.2812-3.6797-14.801-16.879-25.121-32.078-25.121-9.6797 0-16.801 4.3203-21.121 7.8398-1.8398 1.6016-4.2383 2.2383-6.6406 1.7617-2.3203-0.39844-4.3984-1.9219-5.5195-4.0781-7.3594-13.68-21.602-22.16-37.121-22.16-17.602 0-32.961 10.641-39.281 27.039-0.80078 2.0781-2.4805 3.7617-4.6406 4.6406-2.0781 0.80078-4.4805 0.64063-6.4805-0.39844-6.1602-3.2812-12.801-4.8789-19.68-4.8789-14.32 0-27.602 7.2812-35.441 19.359-2.2383 3.5195-6.8789 4.7188-10.48 2.7188-6.3203-3.3594-13.121-5.1211-20.16-5.1211-23.199 0-42.082 18.879-42.082 42.16 0 10.238 3.7617 20.16 10.641 27.918 2.0781 2.3203 2.5586 5.6797 1.2812 8.5586-1.2812 2.8008-4.0781 4.7188-7.1992 4.7188zm203.04 83.117c4.3984 0 8 3.5195 8 8 0 9.6016 7.8398 17.359 17.52 17.359 7.7617 0 14.641-5.1992 16.801-12.641 0.71875-2.5586 2.6406-4.5586 5.1992-5.4414 2.5586-0.80078 5.3594-0.32031 7.4414 1.3594 2.9609 2.3984 6.8008 3.6797 10.801 3.6797 9.6797 0 17.52-7.7617 17.52-17.359 0-4.4805 3.6016-8 8-8s8 3.5195 8 8c0 18.398-15.039 33.359-33.52 33.359-4.2383 0-8.3203-0.71875-12.16-2.2383-6.0781 9.3594-16.641 15.281-28.082 15.281-18.48 0-33.52-14.961-33.52-33.359 0-4.4805 3.6016-8 8-8zm-158.88-71.438c4.3984-0.71875 8.4805 2.1602 9.2812 6.5586 1.6016 9.6797 10.961 16.238 20.641 14.641 3.5195-0.64062 6.9609-2.3984 9.5195-4.8789 0.16016-0.16016 0.23828-0.23828 0.39844-0.32031l0.078124-0.078126c0.71875-0.64062 1.5195-1.0391 2.3984-1.3594 0.87891-0.32031 1.7617-0.48047 2.6406-0.48047 2.1602 0 4.3203 0.87891 5.918 2.5586 0.16016 0.078126 0.23828 0.23828 0.32031 0.32031 4 4.8789 10.398 7.1992 16.641 6.1602 6.2422-1.1211 11.441-5.4414 13.68-11.441 1.5195-4.1602 6.1602-6.2422 10.238-4.7188 4.1602 1.6016 6.3203 6.1602 4.7188 10.32-4.1602 11.281-14.16 19.602-25.922 21.602-1.9219 0.32031-3.8398 0.48047-5.6797 0.48047-7.3594 0-14.559-2.3984-20.398-6.8789-3.6797 2.1602-7.7617 3.7617-11.918 4.4805-1.9219 0.32031-3.7617 0.48047-5.6797 0.48047-16.238 0-30.559-11.68-33.359-28.238-0.80078-4.3203 2.1602-8.4805 6.4805-9.1992z" fill="#007258"/>
 <path d="m454.3 396.52c11.059 5.6211 23.238 3.8398 27.219-3.9805 3.9805-7.8203-1.7617-18.719-12.82-24.34-11.059-5.6211-37.34-1.1797-37.34-1.1797s11.879 23.859 22.941 29.48z" fill="#007258"/>
 <path d="m350.44 400.64c-9.3398 8.1602-15.02 34.199-15.02 34.199s26.578-2.1211 35.918-10.281c9.3398-8.1602 12.238-20.121 6.4609-26.738-5.7617-6.6016-18.02-5.3398-27.359 2.8203z" fill="#007258"/>
 <path d="m139.16 406.98s6.9609 25.738 16.699 33.418c9.7383 7.6797 22.039 8.3398 27.461 1.4609 5.4414-6.8789 1.9609-18.699-7.7812-26.379-9.7383-7.6797-36.379-8.5-36.379-8.5z" fill="#007258"/>
 <path d="m31 393.12c-6.6211 10.48-5.9805 22.781 1.4414 27.461 7.418 4.6797 18.801-0.019531 25.418-10.52 6.6211-10.48 4.6211-37.078 4.6211-37.078s-24.859 9.6406-31.48 20.121z" fill="#007258"/>
</svg>
