<?xml version="1.0" encoding="UTF-8"?>
<svg viewBox="0 0 1200 1200" xmlns="http://www.w3.org/2000/svg">
 <rect x="-120" y="-120" width="1440" height="1440" fill="#fff"/>
 <path d="m928.97 931.8h-291.77l-7.9102-165.9c-14.996-0.70703-29.047-5.1953-41.562-13.105-5.1953 4.0156-10.746 7.4375-16.648 10.273l-8.2656 168.73h-291.77c-6.6133 0-11.809 5.3125-11.809 11.809 0 6.4961 5.1953 11.809 11.809 11.809h657.94c6.6133 0 11.809-5.3125 11.809-11.809 0-6.4961-5.1953-11.809-11.809-11.809z" fill="#007258"/>
 <path d="m340.81 456.41c-24.68 0.23438-44.754 20.547-44.754 45.227 0 16.293 8.6211 30.938 23.027 39.203 3.0703 1.7695 5.1953 4.6055 5.7852 8.0312 0.70703 3.4258-0.23438 6.9648-2.3633 9.5625-6.375 8.0312-10.746 16.887-12.988 26.332-4.0156 17.121-1.1797 34.832 8.0312 49.711 9.2109 14.996 23.734 25.504 40.855 29.637 6.0234 1.3008 12.281 1.8906 18.539 1.5352 5.1953-0.23438 9.4453 2.5977 11.453 7.0859 8.8555 20.426 29.047 33.652 51.246 33.652 3.1875 0 6.375-0.23438 9.4453-0.82812 0.70703-0.11719 1.418-0.23438 2.125-0.23438 4.1328 0 8.1484 2.2422 10.273 5.9023 13.461 23.734 38.73 38.375 65.891 38.375 9.5625 0 19.012-1.7695 27.75-5.3125 8.8555-3.4258 17.004-8.5 23.969-15.113 4.25-4.0156 10.863-4.25 15.469-0.58984 11.219 9.0938 24.797 13.934 39.32 13.934 1.8906 0 3.8984-0.11719 5.7852-0.35547 0.23438 0.11719 0.35547 0.11719 0.58984 0 14.641-1.418 28.223-7.9102 38.613-18.656 3.7773-3.7773 9.6836-4.6055 14.289-2.0078 12.281 6.9648 26.332 10.625 40.383 10.625 43.926 0 79.707-34.242 81.594-78.051 0.23438-5.5508 4.25-10.156 9.6836-11.102 23.5-4.3672 40.5-24.914 40.5-48.766 0-8.6211-2.3633-16.887-7.0859-24.797-1.7695-2.9531-2.125-6.4961-1.0625-9.8008 1.1797-3.1875 3.543-5.9023 6.7305-7.2031 24.324-9.8008 40.031-33.18 40.031-59.395 0-28.812-19.363-54.199-47.113-61.875-3.1875-0.82812-5.9023-2.9531-7.4375-5.9023-1.5352-2.9531-1.7695-6.375-0.58984-9.4453 2.2422-6.375 3.4258-13.105 3.4258-20.191 0-34.363-27.867-62.23-62.109-62.23-8.8555 0-17.477 1.8906-25.625 5.5508-3.0703 1.418-6.8477 1.418-10.035-0.11719-3.0703-1.5352-5.4336-4.3672-6.2578-7.793-5.4336-21.844-24.914-37.078-47.352-37.078-14.289 0-24.797 6.375-31.172 11.57-2.7148 2.3633-6.2578 3.3047-9.8008 2.5977-3.4258-0.58984-6.4961-2.832-8.1484-6.0234-10.863-20.191-31.883-32.707-54.789-32.707-25.977 0-48.648 15.703-57.977 39.91-1.1797 3.0703-3.6602 5.5508-6.8477 6.8477-3.0703 1.1797-6.6133 0.94531-9.5625-0.58984-9.0938-4.8398-18.895-7.2031-29.047-7.2031-21.137 0-40.738 10.746-52.309 28.574-3.3047 5.1953-10.156 6.9648-15.469 4.0156-9.3281-4.9609-19.363-7.5586-29.758-7.5586-34.242 0-62.109 27.867-62.109 62.23 0 15.113 5.5508 29.758 15.703 41.211 3.0703 3.4258 3.7773 8.3828 1.8906 12.637-1.8906 4.1328-6.0234 6.9648-10.625 6.9648zm299.69 122.68c6.4961 0 11.809 5.1953 11.809 11.809 0 14.168 11.57 25.625 25.859 25.625 11.453 0 21.609-7.6758 24.797-18.656 1.0625-3.7773 3.8984-6.7305 7.6758-8.0312 3.7773-1.1797 7.9102-0.47266 10.98 2.0078 4.3672 3.543 10.035 5.4336 15.941 5.4336 14.289 0 25.859-11.453 25.859-25.625 0-6.6133 5.3125-11.809 11.809-11.809 6.4961 0 11.809 5.1953 11.809 11.809 0 27.16-22.199 49.238-49.477 49.238-6.2578 0-12.281-1.0625-17.949-3.3047-8.9727 13.816-24.562 22.555-41.445 22.555-27.277 0-49.477-22.082-49.477-49.238 0-6.6133 5.3125-11.809 11.809-11.809zm-234.5-105.45c6.4961-1.0625 12.516 3.1875 13.699 9.6836 2.3633 14.289 16.176 23.969 30.465 21.609 5.1953-0.94531 10.273-3.543 14.051-7.2031 0.23437-0.23438 0.35547-0.35547 0.58984-0.47266l0.11719-0.11719c1.0625-0.94531 2.2422-1.5352 3.543-2.0078 1.3008-0.47266 2.5977-0.70703 3.8984-0.70703 3.1875 0 6.375 1.3008 8.7383 3.7773 0.23438 0.11719 0.35547 0.35547 0.47266 0.47266 5.9023 7.2031 15.352 10.625 24.562 9.0938 9.2109-1.6523 16.887-8.0312 20.191-16.887 2.2422-6.1406 9.0938-9.2109 15.113-6.9648 6.1406 2.3633 9.3281 9.0938 6.9648 15.23-6.1406 16.648-20.898 28.93-38.258 31.883-2.832 0.47266-5.668 0.70703-8.3828 0.70703-10.863 0-21.492-3.543-30.109-10.156-5.4336 3.1875-11.453 5.5508-17.594 6.6133-2.832 0.47266-5.5508 0.70703-8.3828 0.70703-23.969 0-45.105-17.238-49.238-41.684-1.1797-6.375 3.1875-12.516 9.5625-13.578z" fill="#007258"/>
 <path d="m892.69 807.41c16.324 8.2969 34.301 5.668 40.176-5.875s-2.5977-27.629-18.922-35.926c-16.324-8.2969-55.113-1.7422-55.113-1.7422s17.535 35.219 33.859 43.512z" fill="#007258"/>
 <path d="m739.39 813.49c-13.785 12.043-22.168 50.48-22.168 50.48s39.23-3.1289 53.02-15.172c13.785-12.043 18.066-29.699 9.5352-39.469-8.5-9.7422-26.598-7.8828-40.383 4.1641z" fill="#007258"/>
 <path d="m427.55 822.85s10.273 37.992 24.648 49.328c14.375 11.336 32.531 12.309 40.531 2.1562 8.0312-10.156 2.8945-27.602-11.484-38.938-14.375-11.336-53.699-12.547-53.699-12.547z" fill="#007258"/>
 <path d="m267.9 802.39c-9.7695 15.469-8.8281 33.625 2.125 40.531s27.75-0.03125 37.52-15.527c9.7695-15.469 6.8203-54.73 6.8203-54.73s-36.695 14.23-46.465 29.699z" fill="#007258"/>
</svg>
