<?xml version="1.0" encoding="UTF-8"?>
<svg width="512pt" height="512pt" version="1.1" viewBox="0 0 512 512" xmlns="http://www.w3.org/2000/svg">
 <path d="m363.2 42.961c-8-16.242-24.879-26.961-43.199-26.961-4.8008 0-9.4414 0.64062-13.918 2-13.359-11.52-31.359-18-50.082-18-18.719 0-36.719 6.4805-50.082 18-4.4805-1.3594-9.1211-2-13.918-2-18.32 0-35.199 10.719-43.199 26.961-24 7.4414-41.199 28.238-44.238 53.039h302.88c-3.0391-24.801-20.238-45.602-44.238-53.039zm-171.2 29.039c-4.418 0-8-3.582-8-8s3.582-8 8-8 8 3.582 8 8-3.582 8-8 8zm64-24c-4.418 0-8-3.582-8-8s3.582-8 8-8 8 3.582 8 8-3.582 8-8 8zm64 24c-4.418 0-8-3.582-8-8s3.582-8 8-8 8 3.582 8 8-3.582 8-8 8zm144 416v8c0 8.8203-7.1758 16-16 16h-384c-8.8242 0-16-7.1797-16-16v-8c0-8.8203 7.1758-16 16-16h384c8.8242 0 16 7.1797 16 16zm-178.34-186.34c3.125-3.125 3.125-8.1875 0-11.312s-8.1875-3.125-11.312 0l-10.344 10.344v-4.6875c0-17.648 14.355-32 32-32h16v16c0 17.648-14.355 32-32 32h-4.6875zm15.598 82.344h29.617c-18.934 19.684-45.469 32-74.871 32s-55.938-12.316-74.871-32h29.617c10.68 0 20.727-4.1641 28.281-11.719 9.3594-9.3438 24.586-9.3438 33.945 0 7.5547 7.5547 17.602 11.719 28.281 11.719zm-74.91-85.656c-3.125 3.125-3.125 8.1875 0 11.312l10.344 10.344h-4.6875c-17.645 0-32-14.352-32-32v-16h16c17.645 0 32 14.352 32 32v4.6875l-10.344-10.344c-3.125-3.125-8.1875-3.125-11.312 0zm215.74 157.66c18.879-82.082 17.602-168.16-3.6797-249.68l-10.082-38.641c-1.4414 0.24219-2.8789 0.32031-4.3203 0.32031h-336c-1.4414 0-2.8789-0.082031-4.3203-0.32031l-10.082 38.641c-21.281 81.52-22.559 167.6-3.6797 249.68zm-186.08-264c66.168 0 120 53.828 120 120s-53.832 120-120 120-120-53.828-120-120 53.832-120 120-120zm-45.254 176h-42.242c-10.395-16.188-16.504-35.375-16.504-56 0-57.344 46.652-104 104-104s104 46.656 104 104c0 20.625-6.1094 39.812-16.504 56h-42.242c-6.3164 0-12.5-2.5625-16.969-7.0312-5.7578-5.7539-12.852-9.3516-20.285-10.859v-22.109h16c26.469 0 48-21.531 48-48v-24c0-4.4219-3.582-8-8-8h-24c-18.527 0-34.605 10.57-42.605 25.98-8.8047-10.945-22.285-17.98-37.395-17.98h-24c-4.418 0-8 3.5781-8 8v24c0 26.469 21.531 48 48 48h16v14.109c-7.4375 1.5078-14.531 5.1055-20.285 10.859-4.4688 4.4688-10.652 7.0312-16.969 7.0312zm-138.75-232v-8c0-8.8203 7.1758-16 16-16h336c8.8242 0 16 7.1797 16 16v8c0 8.8203-7.1758 16-16 16h-336c-8.8242 0-16-7.1797-16-16z" fill="#007258"/>
</svg>
