<?xml version="1.0" encoding="UTF-8"?>
<svg viewBox="0 0 1200 1200" xmlns="http://www.w3.org/2000/svg">
 <defs>
  <clipPath id="a">
   <path d="m292 222.14h616v755.71h-616z"/>
  </clipPath>
 </defs>
 <rect x="-120" y="-120" width="1440" height="1440" fill="#fff"/>
 <g clip-path="url(#a)">
  <path d="m758.23 285.55c-11.809-23.969-36.723-39.793-63.766-39.793-7.0859 0-13.934 0.94531-20.547 2.9531-19.719-17.004-46.289-26.566-73.918-26.566-27.633 0-54.199 9.5664-73.918 26.566-6.6133-2.0078-13.461-2.9531-20.547-2.9531-27.039 0-51.957 15.824-63.766 39.793-35.426 10.98-60.812 41.684-65.297 78.289h447.05c-4.4883-36.605-29.875-67.305-65.297-78.289zm-252.69 42.863c-6.5234 0-11.809-5.2852-11.809-11.809s5.2852-11.809 11.809-11.809c6.5234 0 11.809 5.2852 11.809 11.809 0 6.5195-5.2852 11.809-11.809 11.809zm94.465-35.426c-6.5234 0-11.809-5.2852-11.809-11.809 0-6.5234 5.2852-11.809 11.809-11.809 6.5234 0 11.809 5.2852 11.809 11.809 0 6.5195-5.2852 11.809-11.809 11.809zm94.465 35.426c-6.5234 0-11.809-5.2852-11.809-11.809s5.2852-11.809 11.809-11.809 11.809 5.2852 11.809 11.809c0 6.5195-5.2852 11.809-11.809 11.809zm212.54 614.02v11.809c0 13.02-10.59 23.617-23.617 23.617l-566.79-0.003906c-13.023 0-23.617-10.598-23.617-23.617v-11.809c0-13.02 10.59-23.617 23.617-23.617h566.79c13.023 0 23.617 10.598 23.617 23.617zm-263.23-275.04c4.6133-4.6133 4.6133-12.086 0-16.699-4.6133-4.6133-12.086-4.6133-16.699 0l-15.266 15.266v-6.918c0-26.051 21.188-47.23 47.23-47.23h23.617v23.617c0 26.051-21.188 47.23-47.23 47.23h-6.918zm23.023 121.54h43.719c-27.945 29.051-67.113 47.23-110.51 47.23-43.398 0-82.566-18.18-110.51-47.23h43.719c15.762 0 30.594-6.1445 41.742-17.297 13.816-13.793 36.289-13.793 50.102 0 11.152 11.152 25.98 17.297 41.742 17.297zm-110.57-126.43c-4.6133 4.6133-4.6133 12.086 0 16.699l15.266 15.266h-6.918c-26.043 0-47.23-21.184-47.23-47.23v-23.617h23.617c26.043 0 47.23 21.184 47.23 47.23v6.918l-15.266-15.266c-4.6133-4.6133-12.086-4.6133-16.699 0zm318.43 232.7c27.867-121.15 25.977-248.21-5.4336-368.53l-14.879-57.031c-2.125 0.35547-4.25 0.47266-6.375 0.47266l-495.95-0.007813c-2.125 0-4.25-0.11719-6.375-0.47266l-14.879 57.031c-31.41 120.32-33.297 247.38-5.4336 368.53h549.31zm-274.66-389.66c97.664 0 177.12 79.449 177.12 177.12 0 97.672-79.457 177.12-177.12 177.12-97.664 0-177.12-79.449-177.12-177.12 0-97.672 79.457-177.12 177.12-177.12zm-66.797 259.78h-62.348c-15.344-23.891-24.359-52.215-24.359-82.656 0-84.641 68.859-153.5 153.5-153.5 84.645 0 153.5 68.863 153.5 153.5 0 30.441-9.0156 58.766-24.359 82.656h-62.348c-9.3242 0-18.449-3.7812-25.047-10.379-8.4961-8.4922-18.969-13.801-29.941-16.027v-32.637h23.617c39.066 0 70.848-31.781 70.848-70.848v-35.426c0-6.5273-5.2852-11.809-11.809-11.809h-35.426c-27.348 0-51.078 15.602-62.883 38.348-12.996-16.156-32.895-26.539-55.195-26.539h-35.426c-6.5195 0-11.809 5.2812-11.809 11.809v35.426c0 39.066 31.781 70.848 70.848 70.848h23.617v20.824c-10.977 2.2266-21.445 7.5352-29.941 16.027-6.5977 6.5977-15.723 10.379-25.047 10.379zm-204.79-342.44v-11.809c0-13.02 10.59-23.617 23.617-23.617h495.94c13.023 0 23.617 10.598 23.617 23.617v11.809c0 13.02-10.59 23.617-23.617 23.617l-495.94-0.003906c-13.023 0-23.617-10.598-23.617-23.617z" fill="#007258"/>
 </g>
</svg>
