<?xml version="1.0" encoding="UTF-8"?>
<svg width="512pt" height="512pt" version="1.1" viewBox="0 0 512 512" xmlns="http://www.w3.org/2000/svg">
 <path d="m169.96 420.68c0.12109 0.62109 0.17969 1.2383 0.17969 1.8594 0 2.6211-1.0391 5.1406-2.8984 7-3.4219 3.4414-8.8203 3.8789-12.762 1.0781-3.9414-2.8203-5.2617-8.0781-3.1211-12.422 1.1602-2.3789 3.1992-4.1797 5.6992-5.0195 2.9219-1.0195 6.1602-0.57812 8.7188 1.1602 2.1797 1.4609 3.6797 3.7383 4.1992 6.3203zm-7.1406 1.8594c0-0.16016 0-0.33984-0.039062-0.5-0.019532-0.16016-0.078125-0.32031-0.14062-0.46094-0.17969-0.5-0.51953-0.92188-0.96094-1.1992-0.66016-0.46094-1.5195-0.55859-2.2812-0.30078-0.28125 0.078125-0.53906 0.21875-0.76172 0.37891-0.32031 0.26172-0.55859 0.55859-0.73828 0.92188-0.17969 0.35938-0.26172 0.73828-0.26172 1.1406 0 0.67969 0.26172 1.3398 0.76172 1.8398 1 1 2.6406 1 3.6602 0 0.48047-0.5 0.73828-1.1602 0.73828-1.8398zm-94.918 8.4805c3.7812 3.7617 3.8789 9.8594 0.23828 13.738l-0.23828 0.26172c-1.8594 1.8594-4.3594 2.8984-6.9805 2.8984-2.6211 0-5.1406-1.0391-7-2.8984-3.8203-3.8203-3.8789-10-0.12109-13.879 3.7617-3.8789 9.9219-4.0391 13.879-0.33984l0.23828 0.23828zm-4.4219 7c0.019532-0.69922-0.26172-1.3594-0.73828-1.8398l-0.12109-0.12109c-0.48047-0.39844-1.0781-0.64062-1.7188-0.62109-0.67969-0.019531-1.3398 0.23828-1.8398 0.73828-0.98047 1.0195-0.98047 2.6406 0 3.6602 1.0195 1 2.6602 1 3.6797 0l0.12109-0.12109c0.42188-0.48047 0.64062-1.0781 0.62109-1.7188zm189.76 13.18h0.019531c0.10156 0.55859 0.14062 1.1211 0.14062 1.6797 0 2.6211-1.0391 5.1406-2.8789 6.9805-1.8594 1.8594-4.3789 2.9219-7 2.9219s-5.1406-1.0586-6.9805-2.9219c-2.6016-2.6016-3.5586-6.4219-2.4609-9.9414 1.1016-3.5 4.0586-6.1211 7.6797-6.7812l0.87891-0.14062c0.30078-0.019532 0.60156-0.039063 0.87891-0.039063 4.1797 0.019531 7.8789 2.6602 9.3008 6.582 0.17969 0.53906 0.33984 1.0781 0.44141 1.6602zm-7.1602 1.6992v-0.019532c0-0.14062 0-0.30078-0.019531-0.46094-0.019532-0.14062-0.058594-0.28125-0.12109-0.42188-0.17969-0.5-0.51953-0.94141-0.96094-1.2383-0.44141-0.30078-0.94141-0.46094-1.4805-0.46094h-0.48047c-0.60156 0.10156-1.1406 0.42188-1.5391 0.87891-0.37891 0.48047-0.57812 1.0781-0.57812 1.6797-0.019531 0.67969 0.26172 1.3398 0.73828 1.8398 1.0195 0.98047 2.6406 0.98047 3.6602 0 0.48047-0.5 0.73828-1.1602 0.73828-1.8398zm117.76-161.58 91.219-0.019531c0.94141-2.4609 1.2188-5.1211 0.78125-7.7188-0.42188-2.5781-1.5195-4.9805-3.2188-6.9805l-0.10156-0.12109c-0.39844-0.44141-0.83984-0.87891-1.2812-1.2617-2.3594-2.0781-5.3594-3.2383-8.5-3.3008-1.8203 0-3.6406 0.35938-5.3203 1.0586-0.33984 0.23828-0.71875 0.39844-1.1211 0.5-0.82031 0.44141-1.6211 0.96094-2.3398 1.5391-1.1406 0.92188-2.7188 1.0586-4 0.37891-1.3008-0.67969-2.0391-2.0781-1.9219-3.5195 0.44141-5.2188-1.3008-10.379-4.8398-14.219-3.5391-3.8594-8.5195-6.0391-13.762-6.0391-0.69922 0-1.3984 0.039063-2.1016 0.12109l-0.17969 0.019531h-0.019532c-2.6406 0.32031-5.1992 1.2188-7.4805 2.6211-2.8398 1.7383-5.1211 4.2617-6.582 7.2617-1.5 3.1211-2.1211 6.6016-1.7812 10.039 0.12109 1.4805-0.66016 2.8984-1.9805 3.5781-1.3398 0.67969-2.9414 0.48047-4.0586-0.5-5.2188-4.0586-12.578-3.8789-17.578 0.44141-2.4805 2.1602-4.1016 5.1211-4.6211 8.3594-0.44141 2.6016-0.16016 5.2617 0.78125 7.7188zm66.121-36.918 0.019531-0.019532c-4.6406-5.9609-11.621-9.6211-19.16-10.039l2.5586-29.379v0.019531c0.10156-1.1992-0.37891-2.3594-1.3008-3.1211-11.461-10.039-20.859-22.199-27.641-35.84l-0.058594-0.12109c-0.16016-0.37891-0.19922-0.80078-0.12109-1.2188v-0.10156 0.019531c0.12109-0.39844 0.33984-0.76172 0.66016-1.0195 0.32031-0.28125 0.71875-0.44141 1.1406-0.46094 0.42187 0 0.83984 0.16016 1.1797 0.42187l21.422 16.66h-0.019531c1.1406 0.87891 2.6992 1.0195 3.9609 0.33984 1.2812-0.67969 2.0391-2.0391 1.9414-3.4805l0.57813-47.961 3.0781-10.359c0.26172-0.83984 1.0195-1.4219 1.8984-1.4219s1.6602 0.57812 1.9219 1.4219l3.0781 10.359 0.57812 48.262c0.039063 2 1.6797 3.6016 3.6992 3.5781 0.80078-0.019531 1.5781-0.28125 2.1992-0.78125l21.281-16.719 0.019532 0.019531c0.33984-0.23828 0.76172-0.35938 1.1797-0.35938 0.44141 0 0.87891 0.16016 1.2188 0.46094 0.37891 0.28125 0.66016 0.67969 0.80078 1.1211 0.078126 0.32031 0.039063 0.66016-0.12109 0.94141-3.4609 6.9219-7.582 13.5-12.301 19.641-4.6211 6.0391-9.8203 11.621-15.559 16.621-0.42188 0.37891-0.76172 0.83984-0.96094 1.3594l-0.058594 0.14062c-0.17969 0.46094-0.23828 0.94141-0.21875 1.4414 0 11.141 2.3203 27.141 3.3203 38.719-0.12109 0.26172-0.19922 0.53906-0.26172 0.83984zm-313 4.6406h0.019531c0.46094-5.4609-2.1797-10.719-6.8398-13.602-0.57812-0.35938-1.1992-0.67969-1.8203-0.96094h-0.12109c-0.83984 0-1.6406-0.28125-2.3008-0.80078-1.1016-0.26172-2.2188-0.37891-3.3594-0.37891-4.0586-0.019531-7.9414 1.6797-10.68 4.6797s-4.1016 7-3.7617 11.039c0.12109 1.4805-0.66016 2.8984-1.9805 3.5586-1.3203 0.67969-2.9219 0.48047-4.0391-0.48047-1.8984-1.5-4.2617-2.2812-6.6602-2.2188-2.5 0.078125-4.8984 1.0391-6.8008 2.6992-1.9609 1.6992-3.2812 4.0195-3.7188 6.582-0.33984 1.8398-0.19922 3.7188 0.39844 5.4805l74.902-0.16016h-0.019531c1.4805-4.2383 0.21875-8.9609-3.1797-11.898l-0.17969-0.16016c-1.9414-1.6016-4.3594-2.5-6.8789-2.5586-2.5586-0.078125-5.0586 0.76172-7.0586 2.3203-1.1406 0.92187-2.6992 1.0586-4 0.37891-1.2812-0.69922-2.0391-2.0781-1.8984-3.5195zm152.3-38.059 0.019532-0.019531c1.4805-4.2383 0.21875-8.9609-3.1797-11.898l-0.17969-0.16016c-1.9609-1.6016-4.3789-2.5-6.8984-2.5586-2.5391-0.078125-5.0586 0.73828-7.0586 2.3008-1.1406 0.92188-2.7188 1.0586-4 0.37891-1.2812-0.69922-2.0391-2.0781-1.9219-3.5195 0.23828-2.6797-0.28125-5.3789-1.4805-7.7812l-0.33984-0.64062-0.23828-0.39844h-0.019531c-4.1797-6.8398-13.121-8.9805-19.961-4.7812-2.3398 1.4414-4.2383 3.5-5.5 5.9609-1.2188 2.3789-1.7617 5.0781-1.5391 7.7617 0.12109 1.4805-0.66016 2.8789-1.9805 3.5586-1.3203 0.67969-2.9219 0.48047-4.0391-0.5-4.1016-3.1602-9.8789-3.0195-13.801 0.35938-1.9609 1.7188-3.2812 4.0391-3.7188 6.6016-0.33984 1.8398-0.19922 3.7188 0.37891 5.4805l75.48-0.16016zm-159.66-139.64h37.82c2.6406-0.23828 5.0391-1.5391 6.6992-3.5781 1.6602-2.0586 2.4219-4.6992 2.0781-7.3203-0.42187-3.5195-2.7383-6.5195-6.0195-7.8594-1.6211-0.64063-3.3984-0.83984-5.1211-0.57813-2.3398 0.28125-4.4609-1.3398-4.8203-3.6602 0-6.6797-5.4219-12.121-12.121-12.121s-12.121 5.4414-12.121 12.121c0 0.26172-0.039063 0.51953-0.10156 0.78125-0.35938 1.8984-2.1992 3.1797-4.1211 2.8789-1.7188-0.26172-3.5-0.058593-5.1211 0.57813-4.1992 1.6602-6.7188 6-6.0586 10.461 0.66016 4.4805 4.3008 7.8984 8.8008 8.3008h0.21875zm126.04 32.141 38.02-0.058594c3.5195-0.35938 6.5586-2.6016 7.9414-5.8398 1.3984-3.2617 0.92188-7-1.2383-9.7812-1.0781-1.4219-2.5195-2.5195-4.1602-3.1797-1.6016-0.66016-3.3594-0.87891-5.0781-0.62109-0.16016 0.019532-0.33984 0.039063-0.5 0.039063-2.0195 0.019531-3.6797-1.5781-3.6992-3.6016-0.078125-4.8398-3.0391-9.1797-7.5195-11-4.5-1.8398-9.6406-0.82031-13.078 2.6016-2.2812 2.2383-3.6016 5.3008-3.6602 8.5 0 0.16016-0.019531 0.33984-0.039062 0.5-0.16016 0.96094-0.67969 1.8203-1.4609 2.3789-0.78125 0.57812-1.7617 0.82031-2.6992 0.66016-3.5195-0.53906-7.0391 0.87891-9.2188 3.6992-2.1602 2.8203-2.6211 6.582-1.1992 9.8398 0.67969 1.6211 1.8008 3.0391 3.1992 4.1016 1.2812 0.96094 2.8008 1.5586 4.3984 1.7188zm109.8-61.137c-0.14062-6.582-5.5195-11.859-12.121-11.859s-11.98 5.2812-12.121 11.859c-0.039062 2.0195-1.6797 3.6211-3.6992 3.6016-0.16016 0-0.33984 0-0.51953-0.039063v-0.019531c-1.6992-0.23828-3.4609-0.039063-5.0586 0.62109-1.6406 0.67969-3.0781 1.7812-4.1797 3.1797-2.1406 2.8398-2.6016 6.6016-1.1992 9.8594 0.78125 1.8008 1.9609 3.3789 3.4805 4.6211 1.1406 0.96094 2.5195 1.5781 4 1.7812h37.98c1.6406-0.23828 3.1992-0.92188 4.5-1.9414 1.5391-1.1602 2.7812-2.6992 3.5781-4.4609 1.4219-3.2617 0.96094-7.0195-1.1992-9.8594-1.0781-1.3984-2.5195-2.5-4.1797-3.1797-1.6016-0.66016-3.3594-0.87891-5.0586-0.62109-0.96094 0.16016-1.9414-0.078125-2.7188-0.66016-0.78125-0.57812-1.3008-1.4414-1.4414-2.3984-0.019531-0.17969-0.039062-0.33984-0.039062-0.51953zm-50.559 139.04h-45.699c-6.6992-9.1992-19.359-11.66-29.02-5.6797-2.3789 1.4805-4.4805 3.4219-6.1406 5.6797h-54.84c-0.30078-2.0195-0.83984-3.9805-1.6211-5.8398-1.2812-3.0586-3.1797-5.8398-5.5586-8.1406 5.8594-6.3594 7.7812-15.441 4.9609-23.621-1.6406-4.7383-4.8008-8.8008-9-11.559-1.3398-0.87891-2.7617-1.6406-4.2383-2.2383 4.2383-11.082 16.102-17.238 27.602-14.34 11.5 2.8984 19.02 13.941 17.5 25.699-0.21875 1.6797 0.73828 3.2812 2.3008 3.8789 1.5586 0.60156 3.3398 0.058594 4.3008-1.3203 4.6797-6.4805 13.039-9.1406 20.621-6.5391 7.3984 2.6211 12.141 9.8398 11.602 17.68-0.12109 1.7383 1.0195 3.3203 2.6992 3.7617s3.4609-0.35938 4.2188-1.9414c1.6797-3.5781 4.6992-6.3594 8.418-7.7383 7.8594-2.7812 16.52 1.0586 19.762 8.7383 1.5586 3.7383 1.6211 7.9414 0.16016 11.719-0.64062 1.6992 0.058594 3.6211 1.6406 4.5 1.6016 0.87891 3.5781 0.46094 4.6797-1 1.8984-2.6016 4.6406-4.4805 7.7617-5.3398 3.0781-0.80078 6.3398-0.53906 9.2383 0.76172 5.1406 2.2617 8.5 7.2812 8.6602 12.879zm-45.801 127.84c0.85938-3.0195 1.2617-6.1797 1.1797-9.3203 0.019532-1.9805 1.5781-3.5781 3.5586-3.6211 1.9805-0.058594 3.6211 1.4805 3.7188 3.4414 0.12109 4.4805-0.53906 8.9609-1.9609 13.199 0.67969 0.57812 1.3008 1.2188 1.8789 1.8984 5.0195 5.8398 5.6602 14.238 1.6211 20.781l-0.17969 0.26172h-0.019531c-4.9414 6.6016-11.82 11.5-19.699 13.98l-0.17969 0.058594c-7.9414 2.4609-16.441 2.3984-24.359-0.14062l-0.17969-0.058594c-1.0195-0.33984-1.9414-0.89844-2.7188-1.6602-0.67969-0.64062-1.2383-1.3789-1.6602-2.2188l-0.14062-0.26172c-0.5-1-0.69922-2.1406-0.55859-3.2617 0.10156-0.67969 0.28125-1.3594 0.53906-1.9805l0.078126-0.21875c2-5.0586 4.5781-9.8398 7.6797-14.301 3.1211-4.5195 6.7383-8.6602 10.781-12.359 3.1211-2.8789 7.0586-4.7188 11.262-5.2812 3.1797-0.42187 6.3984-0.058593 9.3984 1.0586zm-10.18 24.461v0.019531c-1.7383 1-3.9609 0.44141-4.9805-1.2812-1.0195-1.7188-0.48047-3.9414 1.2383-4.9805 4.6406-2.8008 8.4609-6.7617 11.121-11.48-1.8203-0.62109-3.7383-0.82031-5.6406-0.57812-2.7188 0.37891-5.2617 1.6016-7.2812 3.4609-3.6211 3.3203-6.8789 7.0391-9.6797 11.102-2.7812 3.9805-5.0781 8.2812-6.8789 12.801v0.039062h0.078125c6.4805 2.0781 13.461 2.1211 19.961 0.12109l0.16016-0.039062c6.3398-2 11.898-5.8984 15.922-11.18 2.2188-3.6211 2-8.2188-0.55859-11.602-3.2617 5.6016-7.8984 10.281-13.461 13.621zm-76.52-75.621 0.12109 0.21875h-0.019532c2.6016 4.8789 6.4609 8.9609 11.141 11.859 1.6602 1.0781 2.1406 3.2812 1.1016 4.9609-1.0391 1.6797-3.2188 2.2188-4.9219 1.2383-5.7812-3.5586-10.52-8.6016-13.719-14.602l-0.019531 0.039062c-2.9609 3.3594-3.4219 8.2188-1.1602 12.059 4.1211 5.5391 9.8008 9.6797 16.34 11.898 6.4414 2.1992 13.441 2.3203 19.961 0.32031 0.12109-0.058594 0.12109-0.078125 0.16016-0.19922v-0.10156c-1.7383-4.5586-3.9414-8.9414-6.6016-13.039l-0.28125-0.44141v0.019531c-2.6211-4.0391-5.7383-7.7383-9.2383-11.059-3.4609-3.1797-8.3203-4.3789-12.879-3.1797zm-10.82-15.898c-0.17969 4.1992 0.33984 8.3789 1.5195 12.422-0.92188 0.69922-1.7812 1.5-2.5586 2.3789-0.96094 1.0781-1.7812 2.2812-2.4414 3.5781-0.019531-0.92188-0.10156-1.8398-0.26172-2.7617-0.69922-4.1797-2.8594-7.9805-6.0586-10.738l-0.23828-0.19922h-0.019531c-4.9219-4.0391-11.539-5.3008-17.602-3.3398-0.37891-1.9219-1.0195-3.7812-1.8984-5.5195-1.8203-3.6016-4.6016-6.6406-8.0391-8.7383-0.67969-0.42188-1.3789-0.80078-2.1211-1.1602v-15.641c9.0195-0.21875 17.98-1.3398 26.762-3.3398 10.02-1.7812 18-9.3789 20.281-19.301l0.19922-1.1016 51.316-0.019531c-0.12109 0.46094-0.23828 0.92188-0.33984 1.3789-6.1016-2.0391-12.84-0.71875-17.699 3.4805-3.2383 2.8008-5.3984 6.6211-6.1602 10.84-0.73828 4.1797 0 8.5195 2.1211 12.199 0.64062 1.1406 1.8398 1.8398 3.1406 1.8398l80.137-0.16016 0.019531-0.019531c1.3398 0 2.5781-0.73828 3.1992-1.9219 4.3008-7.582 2.6406-17.121-3.9805-22.801l-0.23828-0.19922c-4.9219-4.0586-11.578-5.3203-17.641-3.3594-0.078125-0.42188-0.17969-0.83984-0.30078-1.2617h44.98v-0.019531c0.37891 0.058594 0.76172 0.058594 1.1211 0h53.238c1.6016 2.8008 3.5781 5.3398 5.8789 7.582 4.9219 4.8203 11.219 7.9609 18 9.0195l29.898 2.6797-2.3789 27.059h0.019531c-2.6797 0.66016-5.2383 1.7188-7.582 3.1602-1.6016 0.98047-3.0781 2.1406-4.4219 3.4609l-201.94 25.02c-2.6992-3.8984-5.8008-7.5-9.2617-10.738-5.5-5.1016-13.301-6.8789-20.48-4.6992-0.71875-2.8594-1.0195-5.8203-0.92187-8.7812 0.058593-2-1.5-3.6797-3.5-3.7383-2-0.078125-3.6797 1.4805-3.7812 3.4805zm-86.117-57.34v0.35938c0.019531 1.0586 0.14062 2.1016 0.35938 3.1211 0.76172 3.4805 2.5 6.6602 5.0586 9.1602 2.3789 2.3789 5.4609 3.9414 8.7812 4.4805 0.17969 0.039062 0.33984 0.078125 0.51953 0.12109 8 1.8008 16.141 2.8203 24.34 3.0781v-8.4609l-19.102-18.539v-0.019532c-0.69922-0.66016-1.1016-1.5781-1.1016-2.5586-0.019531-0.96094 0.33984-1.8984 1.0195-2.5781 1.3984-1.4609 3.7188-1.4805 5.1602-0.078126l14.02 13.621v-40.16c0.078124-1.9609 1.6992-3.5195 3.6602-3.5195 1.9805 0 3.5781 1.5586 3.6602 3.5195v23.699l12.898-12.082c1.4805-1.3789 3.7812-1.3008 5.1602 0.16016 1.3789 1.4805 1.3008 3.7812-0.16016 5.1602l-17.879 16.762v25.059c8.5-0.21875 16.941-1.2617 25.238-3.1406l0.37891-0.058594h-0.019531c7.0586-1.3008 12.68-6.6602 14.301-13.641 0.21875-1.0391 0.33984-2.0781 0.37891-3.1406v-0.30078c0-2.2383-0.44141-4.4414-1.3008-6.5-1.3203-3.1602-3.5586-5.8594-6.4414-7.7188-0.80078-0.53906-1.3789-1.3594-1.5781-2.3008-0.19922-0.96094-0.019531-1.9414 0.51953-2.7617 0.23828-0.35937 0.53906-0.69922 0.92188-0.96094 5.7617-4.1992 8.1406-11.66 5.8398-18.422-1.1406-3.2383-3.3008-6-6.1602-7.8594-1.5781-1.0391-3.3203-1.8203-5.1602-2.2812l-0.37891-0.058594-0.42188-0.12109v-0.019532c-1.3594-0.28125-2.7617-0.39844-4.1602-0.35938-2 0.078125-3.6797-1.4805-3.7617-3.4805-0.30078-6.5-1.4805-12.918-3.4805-19.121-2.0195-6.2422-4.8398-12.18-8.418-17.68-1.0391-1.6016-2.4805-2.9219-4.1602-3.8398l-0.21875-0.14063v0.019532c-5.2617-2.7188-11.719-1-14.941 3.9609-3.5 5.3984-6.2422 11.219-8.1797 17.359-1.9805 6.1992-3.1211 12.621-3.3984 19.141-0.10156 2-1.8008 3.5586-3.8008 3.4805h-0.058594c-7.1211-0.21875-13.559 4.2383-15.859 11l-0.058594 0.14062c-1.0781 3.2617-1.1211 6.7812-0.10156 10.059 1.0391 3.3008 3.1211 6.1602 5.918 8.1992 0.80078 0.55859 1.3203 1.4219 1.4805 2.3789 0.14062 0.96094-0.078125 1.9414-0.66016 2.7383-0.30078 0.42188-0.69922 0.76172-1.1406 1.0195-4.7188 3.1406-7.5391 8.4414-7.5195 14.102zm-39.719-3.4219h-0.019531c0.60156-7.1602 3.7188-13.859 8.8008-18.922 5.8594-5.7383 13.738-8.9219 21.941-8.8594h2.9609c0.46094 5.1406 2.6016 9.9805 6.1016 13.781-3.8594 3.7383-6.3789 8.6406-7.1406 13.98zm-0.12109 7.2812h32.879l0.19922 1.1016v0.019532c1.0586 4.8789 3.5 9.3398 7.0781 12.84 3.4805 3.4609 7.9414 5.7383 12.801 6.5195h0.039062-0.019531c8.5195 1.9219 17.219 3 25.961 3.2617v13.66c-0.66016-0.058594-1.3203-0.10156-2-0.10156-10.359 0-19.301 7.3008-21.359 17.461-1.9219-0.64062-3.9219-0.92188-5.9414-0.85938-4.1797 0.12109-8.1992 1.6992-11.359 4.4609-3.2383 2.8008-5.3984 6.6406-6.1406 10.859-0.76172 4.1797-0.019531 8.5 2.1016 12.199 0.64062 1.1406 1.8398 1.8203 3.1602 1.8203l79.539-0.16016c1.3398 0 2.5781-0.73828 3.2188-1.9219l0.44141-0.80078c0 0.57812 0.039063 1.1406 0.12109 1.6992l-0.019531-0.019532c0.32031 2.4805 1.1406 4.8594 2.4219 6.9805 0.10156 0.16016 0.17969 0.30078 0.30078 0.42188 0.32031 0.44141 0.64062 0.85938 0.98047 1.2812-17.121 7.418-31.98 19.238-43.082 34.238-11.102 15-18.039 32.66-20.141 51.219-3.1992-1.6016-6.4805-3-9.8398-4.1992-16.52-5.8398-34.398-6.582-51.34-2.1211zm0 274.04h262.9c1.6992-11.281-1.8984-22.738-9.7578-31.02-7.8398-8.3008-19.059-12.52-30.441-11.48-7.7188 0.76172-15 3.9219-20.801 9.0781-0.82031 0.71875-1.9414 1.0391-3.0195 0.85937-1.0781-0.19922-2.0391-0.85937-2.5781-1.8203-7.1797-12.98-18.102-23.48-31.34-30.141-13.262-6.6406-28.199-9.1406-42.898-7.1602-9.8203 1.3203-19.301 4.5586-27.879 9.5586-1.7188 0.98047-3.9414 0.42188-4.9609-1.2812-9.3398-14.379-23.059-25.359-39.121-31.34-16.078-5.9805-33.641-6.6406-50.102-1.8594zm455.44-220.7-43.641-0.51953-2.8789-33.441 28.238-1.7617c0.19922-0.019532 0.37891-0.039063 0.57812-0.078126 6.5586-1.1602 12.699-4.1211 17.699-8.5391zm0 18.461h-24.141c-0.28125-0.28125-0.57812-0.53906-0.89844-0.82031v0.019531c-4.7812-4.1797-11.219-5.8789-17.441-4.6211l-0.51953-6.2422 43 0.51953v11.18zm0 76.18c-3.5 0.058593-8.1992 0.19922-13.641 0.35938-47.719 1.3984-157.06 4.6016-161.5-25.34-1.0195-6.9414 4.6406-13.922 12.801-20.082 11.379-8.0195 23.879-14.301 37.102-18.641-0.67969 4.7617 0.23828 9.6406 2.6211 13.82 0.66016 1.1406 1.8594 1.8203 3.1602 1.8203h95.738c1.4609 0 2.7812-0.83984 3.3594-2.1797 2.3203-4.2812 3.1602-9.2188 2.3594-14.039-0.26172-1.5586-0.69922-3.1211-1.2812-4.6016h19.281zm0 126.06v-118.74c-3.7188 0.058594-8.1992 0.17969-13.441 0.33984-49.699 1.4609-163.54 4.8203-168.94-31.559-1.5-10.102 5.4805-19.301 15.621-26.98h0.019531c13.578-9.5391 28.641-16.762 44.578-21.398 1.1016-1.7617 2.4609-3.3594 4.0195-4.6992 5.8789-5.0586 14.039-6.5 21.301-3.7812 0.32031-2.1406 0.89844-4.2188 1.7383-6.2188l-192.22 23.82c1.6992 3.1211 3.1992 6.3594 4.4805 9.6992 0.71875 1.9219 0.62109 4.0781-0.28125 5.9414-0.46094 0.92188-1.0781 1.7383-1.8594 2.4219-0.78125 0.66016-1.6797 1.1602-2.6602 1.4805-8 2.4609-16.582 2.3203-24.5-0.37891-4.9219-1.6797-9.4805-4.2617-13.441-7.6211-17.059 6.8203-31.859 18.281-42.762 33.059-10.898 14.781-17.48 32.32-18.961 50.621 9.9805 6.1797 18.602 14.301 25.359 23.898 8.6211-4.5391 17.98-7.5391 27.641-8.8203 15.418-2.0391 31.078 0.37891 45.16 6.9805 14.078 6.6211 25.941 17.141 34.199 30.32 14.16-10.262 33.059-11.16 48.121-2.2812 15.359 8.9805 23.879 26.262 21.66 43.898zm0.51953-276.42c0.078124-0.16016 0.16016-0.30078 0.28125-0.42188 1.8789-2.7812 3.2383-5.8789 3.9609-9.1602 2.3594-10.941-2.3008-22.219-11.68-28.301-1.0195-0.66016-1.6406-1.7617-1.6602-2.9609-0.039062-1.1992 0.51953-2.3398 1.5-3.0586 4.3594-3.1406 7.5391-7.6406 9.0781-12.801 1.5586-5.3398 1.4219-11.039-0.42188-16.301l-0.039062-0.16016v0.019531c-3.7188-10.66-13.941-17.66-25.219-17.281-1.9805 0.039063-3.6406-1.5-3.7188-3.4805-0.44141-9.6406-2.1602-19.16-5.1211-28.34-3.0391-9.2617-7.2812-18.078-12.621-26.238-3.4414-5.3398-9.3398-8.5586-15.68-8.582-6.3398 0-12.262 3.1992-15.699 8.5195-5.3398 8.1992-9.5586 17.078-12.578 26.398-3 9.2812-4.7383 18.922-5.1992 28.68-0.078125 2-1.7812 3.5586-3.7812 3.4805h-0.058593c-5.5195-0.17969-10.98 1.3594-15.559 4.4414-4.5 3.0195-7.8789 7.4414-9.6406 12.578-3.6797 10.719 0.078125 22.582 9.2617 29.238 0.80078 0.55859 1.3203 1.4219 1.4805 2.3789 0.14062 0.96094-0.10156 1.9609-0.66016 2.7383-0.30078 0.42188-0.69922 0.76172-1.1406 1.0195-4.5 2.9609-8.0195 7.1992-10.082 12.16-2.1016 5.0195-2.6016 10.559-1.4414 15.879 1.1406 5.4414 3.8789 10.441 7.8594 14.32 3.8008 3.7383 8.6602 6.1992 13.922 7.0391l22.762 2.0391 0.019532 0.019531c-8.7812-9.1211-16.102-19.539-21.738-30.859l-0.10156-0.23828h-0.019532c-0.83984-1.8203-1.0781-3.8594-0.66016-5.8398l0.039063-0.17969c0.46094-1.9805 1.5781-3.7617 3.1406-5.0586 3.2812-2.7383 8.0391-2.8203 11.398-0.17969l15.641 12.16 0.51953-41.418c0-0.33984 0.058593-0.67969 0.14062-1l3.1992-10.82c1.1797-3.9609 4.8008-6.6797 8.9219-6.6797s7.7617 2.7188 8.9219 6.6797l3.2188 10.82c0.10156 0.39844 0.16016 0.80078 0.14062 1.1992l0.51953 41.18 15.641-12.281v-0.019531c3.4219-2.4805 8.1211-2.3398 11.398 0.33984 1.5781 1.2812 2.7188 3.0391 3.2188 5.0195 0.5 2 0.23828 4.1016-0.67969 5.918-5.7812 11.559-13.262 22.18-22.219 31.48l21.859-1.3594c5.6602-1.0586 10.859-3.7383 15-7.7188 1.6211-1.5195 3.0781-3.1992 4.3594-5.0195z" fill="#007258" fill-rule="evenodd"/>
</svg>
