<?xml version="1.0" encoding="UTF-8"?>
<svg width="512pt" height="512pt" version="1.1" viewBox="0 0 512 512" xmlns="http://www.w3.org/2000/svg">
 <path d="m266.39 3.6641 28.105 21.996c3.6641 2.4453 8.5547 3.6641 13.441 2.4453l35.438-9.7773c7.332-1.2227 14.664 1.2227 18.328 8.5547l18.328 30.551c2.4453 4.8867 6.1094 7.332 12.219 8.5547l35.438 4.8867c7.332 0 13.441 6.1094 14.664 13.441l3.6641 35.438c1.2227 4.8867 3.6641 9.7773 8.5547 12.219l31.77 18.328c6.1094 3.6641 8.5547 10.996 7.332 18.328l-9.7773 34.215c-1.2227 4.8867 0 9.7773 2.4453 14.664l21.996 28.105c4.8867 6.1094 4.8867 14.664 0 20.773l-20.773 28.105c-3.6641 3.6641-4.8867 8.5547-3.6641 13.441l9.7773 35.438c1.2227 7.332-1.2227 14.664-8.5547 18.328l-30.551 18.328c-3.6641 2.4453-7.332 6.1094-7.332 12.219l-4.8867 35.438c-1.2227 7.332-7.332 13.441-14.664 14.664l-35.438 3.6641c-4.8867 1.2227-9.7773 3.6641-12.219 8.5547l-18.328 31.77c-3.6641 6.1094-10.996 8.5547-18.328 7.332l-34.215-9.7773c-4.8867-1.2227-9.7773 0-14.664 2.4453l-28.105 21.996c-6.1094 4.8867-14.664 4.8867-20.773 0l-28.105-20.773c-3.6641-3.6641-8.5547-4.8867-13.441-3.6641l-35.438 9.7773c-7.332 1.2227-14.664-1.2227-18.328-8.5547l-18.328-30.551c-2.4453-3.6641-6.1094-7.332-10.996-7.332l-36.66-4.8867c-7.332-1.2227-13.441-7.332-13.441-14.664l-4.8867-35.438c-1.2227-4.8867-3.6641-9.7773-8.5547-12.219l-30.551-18.328c-7.332-3.6641-9.7773-10.996-8.5547-18.328l9.7773-34.215c1.2227-4.8867 0-9.7773-2.4453-14.664l-21.996-28.105c-4.8867-6.1094-4.8867-14.664 0-20.773l21.996-28.105c2.4453-3.6641 3.6641-8.5547 2.4453-13.441l-9.7773-35.438c-1.2227-7.332 1.2227-14.664 8.5547-18.328l30.551-18.328c4.8867-2.4453 7.332-6.1094 8.5547-10.996l4.8867-36.66c0-7.332 6.1094-13.441 13.441-13.441l35.438-4.8867c4.8867-1.2227 9.7773-3.6641 12.219-8.5547l18.328-30.551c3.6641-7.332 10.996-9.7773 18.328-8.5547l34.215 9.7773c4.8867 1.2227 9.7773 0 14.664-2.4453l28.105-21.996c6.1094-4.8867 14.664-4.8867 20.773 0zm-105.09 265.16c-7.332-7.332-7.332-18.328 0-24.438 6.1094-7.332 17.105-7.332 24.438 0l42.77 42.77 97.758-98.98c7.332-6.1094 18.328-6.1094 24.438 0 7.332 7.332 7.332 18.328 0 25.66l-109.98 109.98c-6.1094 6.1094-17.105 6.1094-24.438 0z" fill="#007258" fill-rule="evenodd"/>
</svg>
