<?xml version="1.0" encoding="UTF-8"?>
<svg width="512pt" height="512pt" version="1.1" viewBox="0 0 512 512" xmlns="http://www.w3.org/2000/svg">
 <path d="m159.27 168.94c-7.3711 0-14.129 2.5156-19.547 6.6484l111.04 104.29c2.4961 2.3438 7.9844 2.3438 10.48 0l111.04-104.29c-5.4219-4.1328-12.176-6.6484-19.547-6.6484zm-28.012 16.324c-2.6562 4.6914-4.2305 10.125-4.2305 15.922v109.63c0 6.5664 1.9961 12.648 5.3398 17.734l0.30469-0.19922 81.113-65.496-82.523-77.586zm249.49 0-82.523 77.586 81.113 65.496 0.30469 0.19922c3.3438-5.0859 5.3398-11.168 5.3398-17.734v-109.63c0-5.7969-1.5781-11.23-4.2305-15.922zm-157.49 86.453-81.719 66c5.0859 3.3438 11.168 5.3398 17.734 5.3398h193.46c6.5664 0 12.648-1.9961 17.734-5.3398l-81.719-66-18.641 17.531c-7.8906 7.4102-20.32 7.4102-28.215 0l-18.641-17.531z" fill="#007258"/>
</svg>
