<?xml version="1.0" encoding="UTF-8"?>
<svg width="1200pt" height="1200pt" version="1.1" viewBox="0 0 1200 1200" xmlns="http://www.w3.org/2000/svg">
 <defs>
  <clipPath id="a">
   <path d="m222.14 354h755.71v492h-755.71z"/>
  </clipPath>
 </defs>
 <g clip-path="url(#a)">
  <path d="m433.05 807.83c0.15234-0.21094 0.25-0.45312 0.39062-0.65234 2.0898-3.0625 3.9531-6.2852 5.668-9.5977 0.46484-0.92188 0.90625-1.8516 1.3359-2.7852 1.5352-3.2617 2.9219-6.6133 4.0547-10.074 0.089844-0.29297 0.21484-0.57031 0.31641-0.84375 1.168-3.7305 2.0117-7.5977 2.6797-11.516 0.14062-0.76562 0.27734-1.5352 0.39062-2.3164h354.62c0.10156 0.78125 0.25 1.5508 0.375 2.3164 0.68359 3.918 1.5273 7.7852 2.6953 11.516 0.089843 0.27344 0.23047 0.55078 0.31641 0.84375 1.1328 3.4609 2.5078 6.8125 4.043 10.074 0.44141 0.93359 0.88281 1.8633 1.3477 2.7852 1.7148 3.3125 3.5664 6.5352 5.668 9.5977 0.14062 0.19922 0.23828 0.44141 0.39062 0.65234zm-159.59-37.785h-13.527c-6.9414 0-12.598-5.6562-12.598-12.594v-176.34c0-6.9375 5.6562-12.594 12.598-12.594 21.285 0 41.766 7.7852 57.66 21.93l73.594 65.418-18.918 14.184c-0.30078-0.039062-0.61719-0.027343-0.92969-0.0625-3.4922-0.42969-7.0312-0.70703-10.645-0.70703-48.605 0-88.168 39.551-88.168 88.168 0 3.9414 0.35547 7.8086 0.85547 11.625 0.050781 0.31641 0.027344 0.65625 0.078125 0.96875zm301.35-176.33h100.76v-25.191h-100.76zm273.84 85.723c-0.14062 0.074218-0.26562 0.17578-0.40625 0.25-3.0977 1.6523-6.0547 3.5039-8.9023 5.5078-0.79297 0.55078-1.5391 1.1445-2.3047 1.7109-2.207 1.6484-4.3086 3.3867-6.3359 5.2148-0.69141 0.62891-1.3867 1.2344-2.0547 1.8633-2.5547 2.4688-5.0117 5.0625-7.2539 7.8203-0.13672 0.17969-0.25 0.35547-0.39062 0.51953-2.1289 2.6445-4.0664 5.4414-5.8828 8.3242-0.41406 0.64062-0.80469 1.3086-1.1953 1.9648-1.6992 2.8594-3.25 5.793-4.6211 8.8438-0.12891 0.27344-0.27734 0.53906-0.40625 0.82812-1.4727 3.375-2.7188 6.8516-3.7656 10.441-0.1875 0.64453-0.32422 1.2969-0.50391 1.9414-0.77734 2.8984-1.3945 5.8438-1.875 8.8555-0.074219 0.45312-0.22656 0.87891-0.28906 1.332h-354.52c-0.0625-0.45312-0.21484-0.87891-0.28906-1.332-0.47656-3.0117-1.0938-5.957-1.875-8.8555-0.17969-0.64453-0.31641-1.2969-0.50391-1.9414-1.0469-3.5898-2.293-7.0664-3.7812-10.441-0.11328-0.28906-0.26172-0.55469-0.39062-0.82812-1.3711-3.0508-2.9336-5.9844-4.6211-8.8438-0.39062-0.65625-0.79297-1.3242-1.1953-1.9648-1.8164-2.8828-3.7539-5.6797-5.8828-8.3242-0.14062-0.16406-0.25391-0.33984-0.39062-0.51953-2.2539-2.7578-4.6992-5.3516-7.2539-7.8203-0.66797-0.62891-1.3633-1.2344-2.0547-1.8633-2.0273-1.8281-4.1445-3.5664-6.3359-5.2148-0.76562-0.56641-1.5117-1.1602-2.3047-1.7109-2.8594-2.0039-5.8164-3.8555-8.9023-5.5078-0.14062-0.074219-0.26562-0.17578-0.40625-0.25l13.527-10.152h419.84zm41.047-10.152c-3.8906 0-7.707 0.33984-11.477 0.83203l-31.348-23.504c-2.1797-1.6367-4.8242-2.5195-7.5586-2.5195h-45.164l-46.691-46.688c-2.3555-2.3711-5.5547-3.6914-8.9062-3.6914h-37.785v-25.191c20.848 0 37.785-16.953 37.785-37.785 0-48.617-39.547-88.168-88.164-88.168h-100.76c-20.836 0-37.789 16.953-37.789 37.785v50.383c0 20.832 16.953 37.785 37.789 37.785v25.191h-37.789c-3.3359 0-6.5352 1.3203-8.9023 3.6914l-39.398 39.395-143.61-220.35c1.8516-3.5156 2.9844-7.4297 2.9844-11.664v-25.191c0-13.891-11.301-25.188-25.191-25.188h-50.383c-13.891 0-25.188 11.297-25.188 25.188v25.191c0 13.895 11.297 25.191 25.188 25.191h50.383c0.31641 0 0.59375-0.074218 0.89453-0.089844l139.61 214.21h-22.344l-81.543-72.473c-20.516-18.238-46.93-28.289-74.398-28.289-20.832 0-37.785 16.953-37.785 37.785v176.34c0 20.832 16.953 37.785 37.785 37.785h21.223c14.195 29.738 44.461 50.379 79.539 50.379 16.523 0 31.953-4.6602 45.18-12.594h438.64c13.238 7.9336 28.656 12.594 45.18 12.594 48.617 0 88.168-39.547 88.168-88.164 0-48.617-39.551-88.168-88.168-88.168z" fill="#007258" fill-rule="evenodd"/>
 </g>
</svg>
