<?xml version="1.0" encoding="UTF-8"?>
<svg width="512pt" height="512pt" version="1.1" viewBox="0 0 512 512" xmlns="http://www.w3.org/2000/svg">
 <path d="m496 328v8c0 12.73-5.0586 24.938-14.059 33.941-9.0039 9-21.211 14.059-33.941 14.059h-24v16c-5.3711-0.015625-10.73 0.49219-16 1.5195v-65.52h-24c-12.73 0-24.938-5.0586-33.941-14.059-9-9.0039-14.059-21.211-14.059-33.941v-8c0-4.418 3.582-8 8-8h32c11.82 0.027344 23.215 4.4141 32 12.32v-28.32c0-4.418 3.582-8 8-8s8 3.582 8 8v76.32c8.7852-7.9062 20.18-12.293 32-12.32h32c2.1211 0 4.1562 0.84375 5.6562 2.3438s2.3438 3.5352 2.3438 5.6562zm-432 8h24v64c5.3711-0.015625 10.73 0.49219 16 1.5195v-17.52h24c12.73 0 24.938-5.0586 33.941-14.059 9-9.0039 14.059-21.211 14.059-33.941v-8c0-2.1211-0.84375-4.1562-2.3438-5.6562s-3.5352-2.3438-5.6562-2.3438h-32c-11.82 0.027344-23.215 4.4141-32 12.32v-76.32c0-4.418-3.582-8-8-8s-8 3.582-8 8v28.32c-8.7852-7.9062-20.18-12.293-32-12.32h-32c-4.418 0-8 3.582-8 8v8c0 12.73 5.0586 24.938 14.059 33.941 9.0039 9 21.211 14.059 33.941 14.059zm360 80c-7.8906 0-15.73 1.2969-23.199 3.8398-9.8906-12.703-23.75-21.727-39.367-25.625-15.617-3.9023-32.094-2.457-46.793 4.1055-13.512-18.965-35.355-30.223-58.641-30.223s-45.129 11.258-58.641 30.223c-14.699-6.5625-31.176-8.0078-46.793-4.1055-15.617 3.8984-29.477 12.922-39.367 25.625-21.984-7.4844-46.23-3.9023-65.113 9.6172-18.883 13.52-30.086 35.32-30.086 58.543 0 2.1211 0.84375 4.1562 2.3438 5.6562s3.5352 2.3438 5.6562 2.3438h464c2.1211 0 4.1562-0.84375 5.6562-2.3438s2.3438-3.5352 2.3438-5.6562c0-19.094-7.5859-37.41-21.09-50.91-13.5-13.504-31.816-21.09-50.91-21.09zm-240-256c0 2.1211 0.84375 4.1562 2.3438 5.6562s3.5352 2.3438 5.6562 2.3438h128c2.1211 0 4.1562-0.84375 5.6562-2.3438s2.3438-3.5352 2.3438-5.6562c0-6.3633-2.5273-12.469-7.0312-16.969-4.5-4.5039-10.605-7.0312-16.969-7.0312h-96c-6.3633 0-12.469 2.5273-16.969 7.0312-4.5039 4.5-7.0312 10.605-7.0312 16.969zm72-120c2.1211 0 4.1562-0.84375 5.6562-2.3438s2.3438-3.5352 2.3438-5.6562v-8c0-4.418-3.582-8-8-8s-8 3.582-8 8v8c0 2.1211 0.84375 4.1562 2.3438 5.6562s3.5352 2.3438 5.6562 2.3438zm0 40c2.1211 0 4.1562-0.84375 5.6562-2.3438s2.3438-3.5352 2.3438-5.6562v-8c0-4.418-3.582-8-8-8s-8 3.582-8 8v8c0 2.1211 0.84375 4.1562 2.3438 5.6562s3.5352 2.3438 5.6562 2.3438zm0 40c2.1211 0 4.1562-0.84375 5.6562-2.3438s2.3438-3.5352 2.3438-5.6562v-8c0-4.418-3.582-8-8-8s-8 3.582-8 8v8c0 2.1211 0.84375 4.1562 2.3438 5.6562s3.5352 2.3438 5.6562 2.3438zm128.56-56.559c2.1289 0.011719 4.1719-0.82422 5.6797-2.3203l5.6797-5.6797h0.003906c3.1367-3.1367 3.1367-8.2227 0-11.363-3.1406-3.1367-8.2266-3.1367-11.363 0l-5.6797 5.6797v0.003907c-1.5117 1.5-2.3672 3.5469-2.3672 5.6797 0 2.1328 0.85547 4.1758 2.3672 5.6797 1.5117 1.4961 3.5547 2.332 5.6797 2.3203zm-28.238 28.238c2.0977-0.007813 4.1094-0.83984 5.6016-2.3203l5.6797-5.6797c1.6914-1.4492 2.7031-3.5391 2.7891-5.7656 0.085937-2.2305-0.76172-4.3906-2.3359-5.9688-1.5781-1.5742-3.7383-2.4219-5.9688-2.3359-2.2266 0.085937-4.3164 1.0977-5.7656 2.7891l-5.6797 5.6797c-3.1016 3.1211-3.1016 8.1602 0 11.281 1.5078 1.5 3.5547 2.332 5.6797 2.3203zm-28.32 28.32c2.125 0.011719 4.1719-0.82422 5.6797-2.3203l5.6016-5.6797c2.7188-3.1758 2.5352-7.9062-0.42188-10.859-2.9531-2.957-7.6836-3.1406-10.859-0.42188l-5.6797 5.6016c-1.5156 1.5-2.3672 3.5469-2.3672 5.6797s0.85156 4.1797 2.3672 5.6797c1.5078 1.4961 3.5547 2.332 5.6797 2.3203zm104 48h8c4.418 0 8-3.582 8-8s-3.582-8-8-8h-8c-4.418 0-8 3.582-8 8s3.582 8 8 8zm-48-8c0 2.1211 0.84375 4.1562 2.3438 5.6562s3.5352 2.3438 5.6562 2.3438h8c4.418 0 8-3.582 8-8s-3.582-8-8-8h-8c-4.418 0-8 3.582-8 8zm-32 8h8c4.418 0 8-3.582 8-8s-3.582-8-8-8h-8c-4.418 0-8 3.582-8 8s3.582 8 8 8zm-200-16c-4.418 0-8 3.582-8 8s3.582 8 8 8h8c4.418 0 8-3.582 8-8s-3.582-8-8-8zm-40 16h8c4.418 0 8-3.582 8-8s-3.582-8-8-8h-8c-4.418 0-8 3.582-8 8s3.582 8 8 8zm-40 0h8c4.418 0 8-3.582 8-8s-3.582-8-8-8h-8c-4.418 0-8 3.582-8 8s3.582 8 8 8zm106.32-50.32c1.5 1.5156 3.5469 2.3672 5.6797 2.3672s4.1797-0.85156 5.6797-2.3672c1.5156-1.5 2.3672-3.5469 2.3672-5.6797s-0.85156-4.1797-2.3672-5.6797l-5.6797-5.6016c-3.1758-2.7188-7.9062-2.5352-10.859 0.42188-2.957 2.9531-3.1406 7.6836-0.42188 10.859zm-28.238-28.32h-0.003906c3.1211 3.1016 8.1602 3.1016 11.281 0 3.1016-3.1211 3.1016-8.1602 0-11.281l-5.6797-5.6797c-3.1719-2.7148-7.9062-2.5352-10.859 0.42187-2.957 2.9531-3.1367 7.6875-0.42187 10.859zm-28.32-28.238c1.5078 1.4961 3.5508 2.332 5.6797 2.3203 2.125 0.011719 4.168-0.82422 5.6797-2.3203 1.5117-1.5039 2.3672-3.5469 2.3672-5.6797 0-2.1328-0.85547-4.1797-2.3672-5.6797l-5.6797-5.6797v-0.003906c-3.1367-3.1367-8.2227-3.1367-11.363 0-3.1367 3.1406-3.1367 8.2266 0 11.363zm242.96 180.8 5.6016 5.6797h-0.003907c1.5 1.5117 3.5469 2.3633 5.6797 2.3633s4.1797-0.85156 5.6797-2.3633c3.1016-3.1211 3.1016-8.1602 0-11.281l-5.6797-5.6797c-1.4492-1.6953-3.5391-2.7031-5.7656-2.7891-2.2305-0.089843-4.3906 0.75781-5.9688 2.3359-1.5742 1.5742-2.4219 3.7383-2.3359 5.9648 0.085937 2.2266 1.0977 4.3164 2.7891 5.7695zm-28.32-28.238 5.6797 5.6016-0.003906-0.003906c3.1211 3.1016 8.1602 3.1016 11.281 0 3.1016-3.1211 3.1016-8.1602 0-11.281l-5.6797-5.6797c-3.1211-3.1016-8.1602-3.1016-11.281 0-1.5117 1.5-2.3633 3.5469-2.3633 5.6797s0.85156 4.1797 2.3633 5.6797zm-177.76-5.6836c-3.1016 3.1211-3.1016 8.1602 0 11.281 3.1211 3.1016 8.1602 3.1016 11.281 0l5.6797-5.6016c1.5117-1.5 2.3633-3.5469 2.3633-5.6797s-0.85156-4.1797-2.3633-5.6797c-3.1211-3.1016-8.1602-3.1016-11.281 0zm-28.32 40c1.5 1.5156 3.5469 2.3672 5.6797 2.3672s4.1797-0.85156 5.6797-2.3672l5.6016-5.6797c3.2227-3.1133 3.3125-8.2539 0.19922-11.48-3.1172-3.2266-8.2539-3.3164-11.48-0.19922l-5.6797 5.6797c-1.6172 1.5117-2.5312 3.625-2.5312 5.8398s0.91406 4.3281 2.5312 5.8398zm181.68 64v-88c0-2.1211-0.84375-4.1562-2.3438-5.6562s-3.5352-2.3438-5.6562-2.3438h-96c-4.418 0-8 3.582-8 8v88c0 2.1211 0.84375 4.1562 2.3438 5.6562s3.5352 2.3438 5.6562 2.3438h96c2.1211 0 4.1562-0.84375 5.6562-2.3438s2.3438-3.5352 2.3438-5.6562zm-88-128v16h64v-16zm32 168c10.953 0.019531 21.805 2.0781 32 6.0781v-22.078h-64v22.078c10.195-4 21.047-6.0586 32-6.0781z" fill="#007258"/>
</svg>
