<?xml version="1.0" encoding="UTF-8"?>
<svg width="512pt" height="512pt" version="1.1" viewBox="0 0 512 512" xmlns="http://www.w3.org/2000/svg">
 <path d="m214.28 148.88-53.656-53.656c-9.8789-9.8789-25.898-9.8789-35.781 0l-19.762 19.762c-11.918 11.918-18.121 28.32-17.199 45.16 1.0195 18.078 1.0781 34.961 10.141 57.078 21.699 53.203 61.336 97.176 81.52 117.86 21.5 20.84 63.602 57.957 115.3 78.961 22.281 9.0586 39.059 9.1211 57.078 10.141 16.84 0.92188 33.219-5.2812 45.16-17.199l19.762-19.762c9.8789-9.8789 9.8789-25.898 0-35.781l-53.656-53.656c-9.8789-9.8789-25.898-9.8789-35.781 0l-28.059 28.059c-15.16-5.2188-43.121-17.16-69.422-43.359-26.48-26.359-38.398-54.52-43.621-69.68l28.059-28.059c9.8789-9.8789 9.8789-25.898 0-35.781z" fill="#007258"/>
</svg>
