<?xml version="1.0" encoding="UTF-8"?>
<svg width="512pt" height="512pt" version="1.1" viewBox="0 0 512 512" xmlns="http://www.w3.org/2000/svg">
 <path d="m256 0c-5.6602 0-10.238 4.5781-10.238 10.238v51.199c0 5.6406 4.5781 10.238 10.238 10.238s10.238-4.6016 10.238-10.238v-51.199c0-2.7188-1.0781-5.3203-3-7.2383-1.9219-1.9219-4.5195-3-7.2383-3zm-173.78 71.996v-0.019532c-2.7188 0-5.3203 1.0781-7.2383 3-4 4-4 10.48 0 14.48l36.199 36.199c1.9219 1.9219 4.5195 3 7.2383 3s5.3203-1.0781 7.2383-3c4-4 4-10.48 0-14.48l-36.199-36.199c-1.9219-1.9219-4.5195-3-7.2383-3zm347.56 0v-0.019532c-2.7188 0-5.3203 1.0781-7.2383 3l-36.219 36.199h0.019531c-4 4-4 10.48 0 14.48 1.9219 1.9219 4.5195 3 7.2383 3s5.3203-1.0781 7.2383-3l36.199-36.199c4-4 4-10.48 0-14.48-1.9219-1.9219-4.5195-3-7.2383-3zm-173.78 30.398c-3.8398 0-7.3594 2.1797-9.1016 5.6406l-37.82 75.32-82.699 13h0.019531c-3.8008 0.60156-6.9609 3.3008-8.1406 6.9805-1.1797 3.6797-0.21875 7.7383 2.5 10.461l59.32 59.562-13.281 83.359c-0.62109 3.8203 0.96094 7.6797 4.0781 9.9609 3.1016 2.2812 7.2188 2.6016 10.641 0.83984l74.48-38.539 74.48 38.52v0.019531c3.4219 1.7617 7.5391 1.4414 10.641-0.83984 3.1211-2.2812 4.6992-6.1406 4.0781-9.9609l-13.301-83.359 59.32-59.562h0.019532c2.7188-2.7188 3.6797-6.7812 2.5-10.461-1.1797-3.6797-4.3398-6.3789-8.1406-6.9805l-82.68-13-37.82-75.32c-1.7383-3.4609-5.2617-5.6406-9.1016-5.6406zm-194.56 143.36h-51.199c-5.6602 0-10.238 4.5781-10.238 10.238 0 2.7188 1.0781 5.3203 3 7.2383 1.9219 1.9219 4.5195 3 7.2383 3h51.199c2.7188 0 5.3203-1.0781 7.2383-3 1.9219-1.9219 3-4.5195 3-7.2383s-1.0781-5.3203-3-7.2383c-1.9219-1.9219-4.5195-3-7.2383-3zm440.32 0h-51.199c-5.6602 0-10.238 4.5781-10.238 10.238 0 2.7188 1.0781 5.3203 3 7.2383 1.9219 1.9219 4.5195 3 7.2383 3h51.199c2.7188 0 5.3203-1.0781 7.2383-3 1.9219-1.9219 3-4.5195 3-7.2383s-1.0781-5.3203-3-7.2383c-1.9219-1.9219-4.5195-3-7.2383-3zm-383.34 137.56c-2.7188 0.019531-5.3203 1.1016-7.2383 3.0195l-36.199 36.199c-4 4-4 10.48 0 14.48s10.48 4 14.48 0l36.199-36.199c4-4 4-10.48 0-14.48-1.9219-1.9219-4.5195-3-7.2383-3.0195zm275.14 0c-2.6992 0.019531-5.3008 1.0781-7.2188 3.0195-4 3.9805-4 10.48 0 14.48l36.219 36.199h-0.019531c4 3.9805 10.48 3.9805 14.48 0 4-4 4-10.5 0-14.48l-36.199-36.199c-1.9219-1.9414-4.5391-3.0195-7.2617-3.0195zm-137.56 57c-5.6602 0-10.238 4.5781-10.238 10.238v51.199c0 2.7188 1.0781 5.3203 3 7.2383 1.9219 1.9219 4.5195 3 7.2383 3s5.3203-1.0781 7.2383-3c1.9219-1.9219 3-4.5195 3-7.2383v-51.199c0-2.7188-1.0781-5.3203-3-7.2383-1.9219-1.9219-4.5195-3-7.2383-3z" fill="#007258"/>
</svg>
