<?xml version="1.0" encoding="UTF-8"?>
<svg width="512pt" height="512pt" version="1.1" viewBox="0 0 512 512" xmlns="http://www.w3.org/2000/svg">
 <path d="m81.645 273.54h-49.105c-3.8242 0.019531-6.918 3.1133-6.9375 6.9375v158.45c0.019532 3.8242 3.1133 6.918 6.9375 6.9375h49.105c3.8203-0.019531 6.9102-3.1133 6.9297-6.9375v-158.45c-0.019531-3.8242-3.1133-6.918-6.9375-6.9375zm185.95 160.63c6.9883 0 12.652-5.6641 12.652-12.652 0-6.9844-5.6641-12.652-12.652-12.652-2.0391 0.10938-4.0273-0.625-5.5078-2.0273-1.4805-1.4062-2.3164-3.3555-2.3164-5.3945 0-2.0391 0.83594-3.9883 2.3164-5.3945 1.4805-1.4023 3.4688-2.1367 5.5078-2.0312 4.3672 0.68359 8.8047-0.6875 12.02-3.7227 3.6016-3.6172 4.6719-9.043 2.7227-13.762-1.9531-4.7148-6.5469-7.7969-11.652-7.8164-3.9453-0.20703-7.043-3.4688-7.043-7.4258 0-3.9531 3.0977-7.2148 7.043-7.4219 4.293 0.64062 8.6367-0.73438 11.777-3.7227 3.5977-3.6211 4.6719-9.0469 2.7188-13.766-1.9492-4.7148-6.543-7.7969-11.648-7.8164-2.0352 0.10938-4.0273-0.625-5.5078-2.0312-1.4766-1.4023-2.3164-3.3516-2.3164-5.3906 0-2.0391 0.83984-3.9922 2.3164-5.3945 1.4805-1.4023 3.4727-2.1367 5.5078-2.0312 4.2891 0.64062 8.6328-0.73438 11.777-3.7227 3.6367-3.6055 4.7383-9.0508 2.793-13.789-1.9453-4.7422-6.5547-7.8398-11.676-7.8516h-93.52c-2.6797 0.003906-5.1562-1.4336-6.4805-3.7695-1.3203-2.332-1.2812-5.1992 0.10156-7.4961 6.4023-13.012 11.988-26.41 16.723-40.113 3.043-8.5859 3.3398-21.254-1.6211-27.797-1.5469-2.3984-4.5586-3.3984-7.2305-2.3984-5.0234 1.3867-14.07 13.672-24.949 28.445-15.305 20.797-33.879 46.016-56.027 58.352v131.38c32.312 20.355 121.69 9.2148 164.15 9.2148zm-137.04-185.43c-5.8984-43.141-6.0703-86.867-0.51172-130.05 5.5039-0.9375 11.516-1.8438 17.746-2.7812 47.469-7.1289 107.5-16.152 158.47-76.852 50.977 60.699 111 69.723 158.47 76.852 6.2227 0.9375 12.227 1.8398 17.719 2.7734 25.758 226.43-79.199 292.84-160.33 344.16-5.5859 3.5312-11.07 7-15.871 10.102l-37.523-23.926c7.0234-0.30469 13.664-3.2891 18.562-8.332 4.8945-5.0469 7.6758-11.773 7.7695-18.805 0.097656-7.0273-2.5-13.828-7.2578-19.004 6.0195-4.7617 9.7734-11.828 10.344-19.48 0.57422-7.6562-2.082-15.199-7.3281-20.805 5.9609-4.7812 9.6602-11.832 10.203-19.457 0.54688-7.6211-2.1133-15.129-7.3359-20.707 5.957-4.7852 9.6562-11.836 10.211-19.457 0.55078-7.6211-2.0938-15.129-7.2969-20.723-5.207-5.5938-12.508-8.7695-20.148-8.7656h-81.758c4.6406-10.211 8.5391-20.215 12.559-31.566l0.003906 0.003906c3.4922-9.8555 3.9883-20.523 1.4258-30.66-3.6719-13.312-13.961-22.691-28.227-18.754-9.9844 2.7539-20.414 16.922-32.969 33.961-5.2578 7.168-10.93 14.848-16.953 22.273zm304.03 14.305c-9.3359 44.062-32.781 83.883-66.781 113.43-3.0664 2.7227-3.3438 7.4219-0.61719 10.488s7.4219 3.3398 10.488 0.61719c36.238-31.633 61.266-74.137 71.348-121.17 0.85937-3.9609-1.6211-7.8789-5.5703-8.8008-3.9492-0.91797-7.9062 1.5-8.8867 5.4336zm6.457-40.07-0.21484 2.1562-0.23047 2.1875c-0.25781 1.9766 0.29688 3.9766 1.5352 5.543 1.2344 1.5664 3.0508 2.5664 5.0352 2.7812 1.9844 0.21094 3.9727-0.38672 5.5117-1.6562 1.5391-1.2734 2.5-3.1094 2.668-5.0977l0.23047-2.2461 0.21875-2.2734c0.21094-1.9688-0.37891-3.9414-1.6328-5.4727-1.2539-1.5312-3.0664-2.5-5.0391-2.6836-1.9688-0.1875-3.9336 0.42188-5.4492 1.6953-1.5195 1.2695-2.4648 3.0938-2.6289 5.0664zm-383.95 178.45c4.8164 0 9.1602 2.9023 11.004 7.3516 1.8398 4.4492 0.82422 9.5742-2.582 12.98-3.4062 3.4023-8.5312 4.4219-12.98 2.5781-4.4492-1.8398-7.3516-6.1836-7.3516-11 0-6.5781 5.332-11.91 11.91-11.91z" fill="#007258" fill-rule="evenodd"/>
</svg>
