<?xml version="1.0" encoding="UTF-8"?>
<svg viewBox="0 0 1200 1200" xmlns="http://www.w3.org/2000/svg">
 <rect x="-120" y="-120" width="1440" height="1440" fill="#fff"/>
 <path d="m479.29 434.74c-0.003906 5.5703 2.207 10.914 6.1445 14.852 3.9375 3.9414 9.2773 6.1562 14.848 6.1562 5.5703 0.003906 10.914-2.207 14.852-6.1445 3.9414-3.9375 6.1562-9.2773 6.1562-14.848 0.003906-5.5703-2.207-10.914-6.1445-14.852-3.9375-3.9414-9.2773-6.1562-14.848-6.1562-5.5703-0.003906-10.914 2.207-14.852 6.1445-3.9414 3.9375-6.1562 9.2773-6.1562 14.848z" fill="#007258"/>
 <path d="m470.75 339.14c5.5703 0 10.914-2.2109 14.852-6.1484 3.9414-3.9375 6.1562-9.2812 6.1562-14.852 0-5.5703-2.2109-10.914-6.1523-14.852-3.9375-3.9375-9.2812-6.1523-14.852-6.1523s-10.914 2.2148-14.852 6.1562-6.1484 9.2812-6.1484 14.855c0 5.5664 2.2148 10.906 6.1484 14.844 3.9375 3.9336 9.2773 6.1484 14.848 6.1484z" fill="#007258"/>
 <path d="m419.72 419.82c5.5664 0 10.906-2.2109 14.844-6.1484s6.1484-9.2773 6.1484-14.844c0-5.5703-2.2109-10.91-6.1484-14.848s-9.2773-6.1484-14.844-6.1484-10.906 2.2109-14.844 6.1484-6.1484 9.2773-6.1484 14.848c-0.003906 5.5664 2.207 10.906 6.1445 14.844s9.2773 6.1484 14.848 6.1484z" fill="#007258"/>
 <path d="m913.24 884.02c-2.6641-36.23-28.352-57.531-62.516-62.246-1.1602-10.004-6.6523-18.996-15.02-24.602-8.3711-5.6016-18.777-7.25-28.469-4.5117v-101.8l10.605 10.211c6.2539 6 15.23 8.2109 23.555 5.8047 8.3242-2.4062 14.734-9.0664 16.82-17.473 2.0898-8.4102-0.46484-17.297-6.6953-23.316l-19.07-18.355c4.4922-30.66 0.375-53.117-12.305-66.734-6.3047-6.7383-14.711-11.141-23.84-12.488v-72.34h11.379-0.003906c4.1758 0 7.5586-3.3828 7.5586-7.5586v-32.883c0-4.1719-3.3828-7.5547-7.5586-7.5547h-4.2188c-0.96484-7.4531-3.0859-14.707-6.2852-21.508-2.2383-4.6016-1.4609-10.102 1.9688-13.898 75.074-82.625 47.59-158.89-6.0391-158.89-37.262 0-75.801 35.547-75.801 95.031 0 17.16 4.5078 26.863-4.4062 39.004v0.003906c-11.328 17.906-15.07 39.586-10.402 60.258h-5.6562c-4.1719 0-7.5586 3.3828-7.5586 7.5547v32.883c0 2.0039 0.79688 3.9258 2.2148 5.3438 1.418 1.418 3.3398 2.2148 5.3438 2.2148h11.379v31.977l-70.535-67.895c0.57031-10.355-3.1445-20.488-10.273-28.02-7.1289-7.5312-17.043-11.797-27.414-11.797-10.367 0-20.281 4.2656-27.41 11.797s-10.844 17.664-10.273 28.02l-45.617 43.91c-14.922-7.0859-31.996-8.1562-47.688-2.9922-32.871 10.859-53.816 45.762-59.629 56.555-35.445 10.098-47.727 29.523-51.75 44.266-4.0273 16.32-1.1992 33.574 7.8281 47.754l-16.98 16.344h0.003906c-6.25 6.0156-8.8164 14.906-6.7305 23.328 2.082 8.4219 8.5 15.09 16.836 17.492 8.3359 2.4062 17.32 0.17969 23.566-5.8359l10.609-10.211v101.11c-29.816 4.8359-44.027 37.609-49.176 53.316-30.016-9.2227-53.887 6.8164-56.77 38.719h-0.003906c-10.102 2.3867-18.379 9.6055-22.121 19.289-3.7422 9.6836-2.4648 20.59 3.4062 29.152 5.875 8.5625 15.59 13.676 25.973 13.668h611.86c10.375 0.007812 20.086-5.1016 25.961-13.652 5.8711-8.5508 7.1562-19.449 3.4297-29.133-3.7266-9.6797-11.988-16.906-22.078-19.309zm-77.055-55.32c0 4.1094 3.2812 7.4648 7.3867 7.5547 2.125 0.046876 49.582 1.7031 54.375 46.871h-90.711v-74.746c4.3477-2.1016 9.3047-2.582 13.977-1.3477 4.6719 1.2305 8.7461 4.0898 11.492 8.0664 2.7461 3.9727 3.9805 8.7969 3.4805 13.602zm-26.938-237.23c7.7734 8.5039 10.992 23.246 9.5039 43.07l-94.426-90.887c5.6328-4.7773 12.922-7.1289 20.277-6.5508 20.375 0 36.586 12.469 36.586 38.508h0.003906c0.015626 2.1094 0.91016 4.1172 2.4648 5.5469 1.5547 1.4258 3.6289 2.1445 5.7344 1.9805 7.5117-0.22266 14.754 2.8164 19.852 8.332zm-84.16-194.61c12.684-17.277 7.3359-32.48 7.3359-47.949 0-55.121 35.488-79.918 60.688-79.918 40.18 0 60.027 61.883-5.1484 133.61-3.7031 4.0742-6.1016 9.1602-6.8906 14.605-0.78906 5.4492 0.070312 11.004 2.4609 15.961 2.2422 4.7617 3.8086 9.8125 4.6602 15.004h-70.195c-4.0156-15.484-2.8203-37.816 7.0898-51.316zm-352.88 209.11c4.4336-16.246 19.734-28.176 44.246-34.504v0.003906c2.1562-0.55859 3.957-2.0352 4.9219-4.043 0.19922-0.41016 20.168-41.266 52.371-51.902 10.059-3.3242 20.934-3.2617 30.957 0.18359l-128.09 123.3v-0.003906c-5.5391-10.074-7.1133-21.855-4.4102-33.027zm-0.53906 84.215v0.003906c-3.6445 3.5078-9.4492 3.3984-12.961-0.25-3.5078-3.6445-3.3984-9.4492 0.25-12.957l216.48-208.39c1.7812-1.7148 2.6133-4.1914 2.2227-6.6328-1.1055-6.5703 0.73828-13.297 5.0391-18.383 4.3008-5.0898 10.629-8.0234 17.289-8.0234 6.6641 0 12.988 2.9336 17.293 8.0234 4.3008 5.0859 6.1445 11.812 5.0391 18.383-0.39062 2.4414 0.44141 4.918 2.2188 6.6328l216.49 208.39c3.6445 3.5117 3.7539 9.3086 0.24609 12.957-3.5117 3.6445-9.3125 3.7578-12.957 0.25l-223.09-214.74c-2.9258-2.8164-7.5547-2.8164-10.48 0zm367.43 33.359v159.58h-72.301v-159.58zm-131.55-128.18v-27.293c6.6836 1.4609 12.809 4.8086 17.645 9.6484 4.8398 4.8359 8.1875 10.961 9.6523 17.645zm27.293 15.113h0.003907c-1.4648 6.6836-4.8125 12.809-9.6523 17.645-4.8359 4.8398-10.961 8.1875-17.645 9.6523v-27.297zm-69.703-15.113c1.4648-6.6836 4.8125-12.809 9.6523-17.645 4.8359-4.8398 10.961-8.1875 17.645-9.6484v27.293zm27.293 15.113 0.003906 27.297c-6.6836-1.4648-12.809-4.8125-17.645-9.6523-4.8398-4.8359-8.1875-10.961-9.6523-17.645zm-137.11 143.11c1.0195 4.6445 3.25 8.9336 6.4648 12.438 5.2148 5.8281 8.5039 13.125 9.4102 20.895h-30.176v-33.332zm-14.301-15.113v-40.266h30.422c-0.25 11.629-3.9258 22.93-10.562 32.48-1.9492 2.3125-3.4805 4.9453-4.5273 7.7852zm31.398 1.9766v-0.003906c8.9609-12.285 13.914-27.035 14.184-42.238h47.598c0.26953 15.203 5.2227 29.953 14.184 42.242 3.7734 4.4961 3.5586 11.113-0.50391 15.355-7.7891 8.6094-12.539 19.543-13.52 31.113h-47.918c-0.98047-11.57-5.7305-22.5-13.52-31.113-4.0625-4.2422-4.2773-10.859-0.50391-15.355zm86.598 25.574c3.2148-3.5039 5.4453-7.7969 6.4648-12.438h14.301v33.332h-30.172c0.90234-7.7695 4.1914-15.066 9.4062-20.895zm5.4336-27.551v-0.003906c-1.0469-2.8359-2.5781-5.4688-4.5273-7.7812-6.6367-9.5508-10.312-20.852-10.562-32.48h30.422v40.262zm-218.91 123.66c2.0664 0.91016 4.4297 0.84766 6.4453-0.16406 2.0156-1.0117 3.4727-2.8711 3.9766-5.0703 0.10547-0.46484 10.082-42.547 36.801-49.457v53.055c0.007813 3.2109 2.0391 6.0664 5.0703 7.125 3.0312 1.0547 6.3984 0.085938 8.4023-2.4219 14.141-17.789 56.145-16.031 63.719-1.2578 0.91797 1.793 2.5156 3.1445 4.4336 3.7578 1.9219 0.60938 4.0078 0.42578 5.793-0.50781 9.6836-4.418 20.219-6.6719 30.863-6.5977h0.10938c19.883 0.17578 38.871 8.2852 52.738 22.531h-261.77c3.2383-24.102 21.348-30.742 43.422-20.992zm560.39 68.867h-611.86c-5.8516 0-11.258-3.1211-14.184-8.1914-2.9258-5.0664-2.9258-11.309 0-16.379 2.9258-5.0664 8.332-8.1914 14.184-8.1914h611.86c5.8516 0 11.258 3.125 14.184 8.1914 2.9258 5.0703 2.9258 11.312 0 16.379-2.9258 5.0703-8.332 8.1914-14.184 8.1914z" fill="#007258"/>
 <path d="m679.83 814.35c5.0039 3.0156 11.414 2.2734 15.605-1.8008 4.1875-4.0742 5.1016-10.461 2.2227-15.551-2.875-5.0859-8.8203-7.5938-14.473-6.1055-5.6523 1.4922-9.5859 6.6055-9.582 12.449-0.015624 4.5117 2.3516 8.6953 6.2266 11.008z" fill="#007258"/>
</svg>
