<?xml version="1.0" encoding="UTF-8"?>
<svg width="512pt" height="512pt" version="1.1" viewBox="0 0 512 512" xmlns="http://www.w3.org/2000/svg">
 <path d="m174.21 144.04c-0.003906 5.7539 3.4609 10.945 8.7773 13.148 5.3164 2.2031 11.438 0.98828 15.508-3.0781 4.0703-4.0664 5.2891-10.188 3.0898-15.504-2.2031-5.3203-7.3867-8.7852-13.145-8.7891-3.7734 0-7.3906 1.4961-10.062 4.1641-2.668 2.668-4.168 6.2852-4.168 10.059z" fill="#007258"/>
 <path d="m168.43 79.27c5.7578 0 10.949-3.4648 13.152-8.7812 2.2031-5.3203 0.98438-11.441-3.0859-15.512-4.0703-4.0664-10.191-5.2852-15.508-3.082s-8.7812 7.3945-8.7812 13.148c0 7.8555 6.3711 14.223 14.223 14.227z" fill="#007258"/>
 <path d="m133.86 133.93c5.7539 0 10.941-3.4648 13.141-8.7812 2.2031-5.3164 0.98828-11.434-3.082-15.5-4.0664-4.0664-10.184-5.2852-15.5-3.082-5.3164 2.1992-8.7812 7.3867-8.7812 13.141 0 3.7695 1.5 7.3906 4.168 10.059 2.6641 2.6641 6.2852 4.1641 10.055 4.1641z" fill="#007258"/>
 <path d="m468.22 448.43c-1.8047-24.547-19.211-38.977-42.352-42.172h-0.003906c-0.78516-6.7773-4.5078-12.871-10.176-16.668-5.6719-3.793-12.723-4.9141-19.289-3.0586v-68.965l7.1875 6.918c4.2344 4.0625 10.316 5.5625 15.957 3.9336 5.6406-1.6328 9.9844-6.1445 11.398-11.84 1.4141-5.6992-0.31641-11.719-4.5391-15.797l-12.918-12.438c3.043-20.773 0.25391-35.984-8.3359-45.211-4.2734-4.5664-9.9688-7.5469-16.152-8.4609v-49.012h7.707c2.8281 0 5.1211-2.293 5.1211-5.1211v-22.277c0-2.8242-2.293-5.1172-5.1211-5.1172h-2.8594c-0.65625-5.0508-2.0938-9.9648-4.2578-14.57-1.5195-3.1172-0.98828-6.8438 1.332-9.418 50.867-55.977 32.242-107.65-4.0898-107.65-25.242 0-51.355 24.082-51.355 64.383 0 11.625 3.0547 18.199-2.9844 26.426v0.003906c-7.6758 12.133-10.211 26.82-7.0508 40.824h-3.832c-2.8242 0-5.1172 2.293-5.1172 5.1172v22.277c0 1.3594 0.53906 2.6602 1.5 3.6211 0.95703 0.96094 2.2617 1.5 3.6172 1.5h7.707v21.664l-47.785-46c0.38672-7.0117-2.1289-13.879-6.9609-18.98-4.8281-5.1016-11.543-7.9922-18.57-7.9922s-13.742 2.8906-18.57 7.9922c-4.832 5.1016-7.3477 11.969-6.9609 18.98l-30.906 29.75c-10.109-4.8008-21.68-5.5234-32.309-2.0234-22.27 7.3555-36.461 31.004-40.398 38.316-24.012 6.8398-32.336 20.004-35.062 29.988h0.003906c-2.7305 11.055-0.81641 22.746 5.3008 32.352l-11.504 11.074c-4.2344 4.0742-5.9727 10.102-4.5586 15.805 1.4102 5.707 5.7617 10.223 11.406 11.852 5.6484 1.6289 11.734 0.12109 15.969-3.9531l7.1875-6.918v68.5c-20.199 3.2773-29.828 25.48-33.316 36.121-20.336-6.25-36.508 4.6172-38.461 26.23h-0.003906c-6.8438 1.6172-12.453 6.5078-14.988 13.07s-1.6719 13.949 2.3086 19.75 10.562 9.2656 17.598 9.2617h414.53c7.0312 0.003906 13.609-3.457 17.59-9.25 3.9805-5.793 4.8477-13.176 2.3242-19.738-2.5273-6.5586-8.1211-11.453-14.957-13.082zm-52.207-37.48c0 2.7852 2.2227 5.0586 5.0039 5.1211 1.4375 0.03125 33.59 1.1523 36.84 31.754h-61.457v-50.641c4.4805-2.168 9.7812-1.7383 13.852 1.1211 4.0742 2.8594 6.2773 7.6992 5.7617 12.645zm-18.25-160.72c5.2695 5.7617 7.4492 15.75 6.4375 29.18l-63.969-61.574c3.8125-3.2344 8.75-4.832 13.738-4.4375 13.805 0 24.789 8.4492 24.789 26.09h-0.003907c0.011719 1.4297 0.61719 2.7891 1.6719 3.7578 1.0508 0.96484 2.4609 1.4531 3.8867 1.3438 5.0859-0.15234 9.9922 1.9062 13.449 5.6445zm-57.02-131.85c8.5938-11.707 4.9688-22.008 4.9688-32.484 0-37.348 24.043-54.145 41.117-54.145 27.223 0 40.668 41.926-3.4883 90.523v-0.003906c-2.5078 2.7617-4.1328 6.207-4.6641 9.8945-0.53516 3.6914 0.046874 7.457 1.668 10.816 1.5156 3.2227 2.5781 6.6445 3.1562 10.164h-47.559c-2.7227-10.492-1.9141-25.621 4.8008-34.766zm-239.07 141.67c3.0039-11.008 13.367-19.09 29.977-23.375h0.003906c1.457-0.37891 2.6797-1.3789 3.332-2.7383 0.13281-0.27734 13.664-27.957 35.48-35.164 6.8164-2.2539 14.184-2.2109 20.973 0.12109l-86.777 83.535c-3.75-6.8281-4.8164-14.809-2.9883-22.379zm-0.36328 57.055c-2.4727 2.3789-6.4023 2.3047-8.7812-0.16797-2.3789-2.4688-2.3008-6.3984 0.16797-8.7773l146.67-141.19c1.207-1.1602 1.7695-2.8398 1.5039-4.4922-0.75-4.4531 0.5-9.0078 3.4141-12.453 2.9141-3.4492 7.1992-5.4375 11.715-5.4375s8.8008 1.9883 11.715 5.4375c2.9141 3.4453 4.1641 8 3.4141 12.453-0.26562 1.6523 0.29688 3.332 1.5039 4.4922l146.67 141.19c2.4688 2.3789 2.543 6.3086 0.16406 8.7773-2.375 2.4688-6.3047 2.5469-8.7773 0.16797l-151.14-145.48c-1.9805-1.9102-5.1211-1.9102-7.1016 0zm248.94 22.602v108.12h-48.984v-108.12zm-89.125-86.84v-18.492c4.5273 0.99219 8.6758 3.2578 11.953 6.5352 3.2773 3.2812 5.5469 7.4297 6.5391 11.957zm18.492 10.238c-0.99219 4.5273-3.2617 8.6797-6.5391 11.957-3.2773 3.2773-7.4258 5.5469-11.953 6.5352v-18.492zm-47.227-10.238c0.99219-4.5273 3.2617-8.6758 6.5391-11.957 3.2773-3.2773 7.4258-5.543 11.953-6.5352v18.492zm18.492 10.238v18.492c-4.5273-0.98828-8.6758-3.2578-11.953-6.5352-3.2773-3.2773-5.5469-7.4297-6.5391-11.957zm-92.895 96.953c0.69141 3.1484 2.1992 6.0547 4.3789 8.4297 3.5352 3.9453 5.7617 8.8906 6.375 14.156h-20.441v-22.586zm-9.6875-10.238v-27.277h20.609c-0.16797 7.8789-2.6602 15.531-7.1562 22.004-1.3203 1.5664-2.3594 3.3516-3.0703 5.2734zm21.273 1.3398h-0.003906c6.0703-8.3242 9.4258-18.316 9.6094-28.617h32.25c0.17969 10.301 3.5352 20.293 9.6055 28.617 2.5586 3.0469 2.4141 7.5312-0.33984 10.402-5.2773 5.8359-8.4961 13.242-9.1562 21.082h-32.469c-0.66406-7.8398-3.8789-15.246-9.1602-21.082-2.75-2.8711-2.8984-7.3555-0.33984-10.402zm58.672 17.328h-0.003907c2.1758-2.375 3.6875-5.2812 4.3789-8.4297h9.6875v22.582l-20.441 0.003906c0.61328-5.2656 2.8398-10.211 6.375-14.156zm3.6797-18.668h-0.003906c-0.70703-1.9219-1.7461-3.707-3.0664-5.2734-4.4961-6.4727-6.9883-14.125-7.1562-22.004h20.609v27.277zm-148.32 83.781c1.4023 0.61719 3 0.57422 4.3672-0.10938 1.3672-0.6875 2.3555-1.9453 2.6953-3.4375 0.070313-0.3125 6.8281-28.828 24.934-33.508v35.945c0.003906 2.1758 1.3828 4.1094 3.4336 4.8281 2.0547 0.71484 4.3359 0.058594 5.6914-1.6406 9.5781-12.051 38.039-10.863 43.168-0.85156h0.003906c0.62109 1.2148 1.7031 2.1289 3.0039 2.543 1.3008 0.41406 2.7148 0.29297 3.9258-0.33984 6.5586-2.9961 13.695-4.5234 20.91-4.4727h0.074219c13.469 0.11719 26.332 5.6133 35.73 15.266h-177.36c2.1953-16.328 14.465-20.828 29.418-14.223zm379.66 46.66h-414.53c-6.1289 0-11.098-4.9688-11.098-11.098 0-6.1328 4.9688-11.102 11.098-11.102h414.53c6.1289 0 11.098 4.9688 11.098 11.102 0 6.1289-4.9688 11.098-11.098 11.098z" fill="#007258"/>
 <path d="m310.08 401.22c3.3906 2.043 7.7344 1.543 10.574-1.2188 2.8359-2.7617 3.457-7.0898 1.5078-10.535-1.9492-3.4453-5.9805-5.1445-9.8086-4.1367-3.8281 1.0117-6.4961 4.4727-6.4922 8.4336-0.007812 3.0586 1.5938 5.8906 4.2188 7.457z" fill="#007258"/>
</svg>
