<?xml version="1.0" encoding="UTF-8"?>
<svg viewBox="0 0 1200 1200" xmlns="http://www.w3.org/2000/svg">
 <rect x="-120" y="-120" width="1440" height="1440" fill="#fff"/>
 <path d="m876.22 876.81h-0.5625c-3.1602 0.32422-6.2578-1.2695-7.8242-4.043-1.5039-2.7734-1.2695-6.2578 0.70703-8.707 10.508-13.371 16.148-29.43 16.148-46.582 0-13.934-3.8672-27.512-11.16-39.32-14.465-23.41-39.617-37.02-67.453-35.75-2.0664 0.089844-4.043 0.32422-6.082 0.5625-1.9766 0.23438-4.043 0.5625-6.0234 0.94531-3.8672 0.79688-7.6758-1.3594-9.0039-5.0469-11.305-30.996-41.211-51.867-74.273-51.867-37.875 0-70.551 26.98-77.664 64.059-0.47266 2.5977-2.3008 4.8125-4.7539 5.7852-2.4492 1.0352-5.2266 0.79688-7.4375-0.70703-13.195-9.0039-28.637-13.758-44.605-13.758-18.184 0-36.074 6.3164-50.156 17.801-1.8906 1.5938-4.4297 2.2148-6.7891 1.5938-2.3633-0.5625-4.3398-2.2148-5.3711-4.4297-12.723-28.309-41.031-46.582-72.117-46.582-38.199 0-70.938 27.219-77.816 64.68-0.79688 4.6641-1.2695 9.4766-1.2695 14.406 0 10.449 1.9766 20.574 5.9336 30.199 1.0352 2.3008 0.79687 4.8984-0.47266 7.0273-1.2695 2.125-3.4844 3.5703-6.0234 3.8086-56.797 5.9336-100.04 52.516-102.17 109.22h680.05c0-35.039-28.723-63.734-63.824-63.262zm-505.59 15.824c-4.3398 0-7.9102-3.5703-7.9102-7.9102 0-4.3398 3.5703-7.9102 7.9102-7.9102 4.3398 0 7.9102 3.5703 7.9102 7.9102 0 4.3398-3.5703 7.9102-7.9102 7.9102zm86.996-63.262c-4.3398 0-7.9102-3.5703-7.9102-7.9102s3.5703-7.9102 7.9102-7.9102 7.9102 3.5703 7.9102 7.9102-3.5703 7.9102-7.9102 7.9102zm0-55.352c-4.3398 0-7.9102-3.5703-7.9102-7.9102 0-4.3398 3.5703-7.9102 7.9102-7.9102s7.9102 3.5703 7.9102 7.9102c0 4.3398-3.5703 7.9102-7.9102 7.9102zm260.98 7.9102c-4.3398 0-7.9102-3.5703-7.9102-7.9102 0-4.3398 3.5703-7.9102 7.9102-7.9102 4.3398 0 7.9102 3.5703 7.9102 7.9102 0 4.3398-3.5703 7.9102-7.9102 7.9102zm86.996 86.996c-4.3398 0-7.9102-3.5703-7.9102-7.9102 0-4.3398 3.5703-7.9102 7.9102-7.9102s7.9102 3.5703 7.9102 7.9102c0 4.3398-3.5703 7.9102-7.9102 7.9102z" fill="#007258"/>
 <path d="m904.59 663.26c0 36.605 9.8906 71.883 28.637 102.82h-48.707c-0.23438-0.32422-0.47266-0.62109-0.62109-0.94531-0.62109-0.79687-1.1797-1.5938-1.832-2.4492-0.70703-0.85547-1.3594-1.832-2.125-2.6875-0.62109-0.79688-1.2695-1.5938-1.9766-2.3633-0.70703-0.79687-1.418-1.6523-2.2148-2.4492-0.70703-0.79688-1.418-1.5039-2.2148-2.2148-0.70703-0.79688-1.5039-1.5039-2.3008-2.3008-0.70703-0.70703-1.5039-1.418-2.3633-2.0664-0.79688-0.70703-1.5938-1.418-2.3633-2.0664-0.79688-0.62109-1.6523-1.3594-2.5391-1.9766-0.79688-0.62109-1.6523-1.1797-2.5391-1.832-0.85547-0.62109-1.7422-1.1797-2.5977-1.832-0.85547-0.5625-1.7422-1.1211-2.6875-1.5938-0.85547-0.5625-1.832-1.1211-2.7734-1.6523-0.85547-0.47266-1.832-0.94531-2.6875-1.418l-2.832-1.418c-0.94531-0.38281-1.8906-0.79688-2.832-1.1797-1.0352-0.38281-1.9766-0.85547-3.0117-1.1797-0.94531-0.38281-1.9766-0.70703-2.9219-1.1211-1.0352-0.32422-2.0664-0.62109-3.0703-0.94531-0.94531-0.32422-1.9766-0.5625-3.0117-0.85547-1.0352-0.23438-2.0664-0.5625-3.0703-0.79688-1.0352-0.23438-2.125-0.38281-3.1602-0.5625-1.0352-0.23438-2.125-0.47266-3.1602-0.62109-1.0352-0.14844-2.125-0.23438-3.2461-0.38281-1.0352-0.089844-2.125-0.23438-3.1602-0.32422-1.1211-0.089844-2.3008-0.14844-3.3945-0.14844-1.0352-0.089843-2.0664-0.14844-3.1602-0.14844-1.1797 0-2.4492 0.089844-3.7188 0.089844-0.94531 0.089843-1.8906 0-2.832 0.089843-2.2148 0.14844-4.4297 0.38281-6.6406 0.62109-15.172-33.859-49.18-56.148-86.672-56.148-41.77 0-78.141 27.219-90.48 66.125-29.816-15.586-68.016-13.668-96.324 4.8984-16.77-29.02-48.09-47.293-82.094-47.293-2.7734 0-5.5508 0.14844-8.2969 0.38281-0.94531 0.089844-1.832 0.23438-2.6875 0.32422-1.832 0.23438-3.6328 0.38281-5.4609 0.70703-1.0352 0.23438-2.125 0.47266-3.1602 0.70703-1.5938 0.32422-3.1602 0.62109-4.7539 1.0352-1.0938 0.32422-2.2148 0.70703-3.2461 1.0352-1.5039 0.38281-3.0117 0.85547-4.4297 1.3594-1.1211 0.38281-2.125 0.85547-3.2461 1.3594-1.418 0.5625-2.7734 1.1211-4.1016 1.7422-1.1211 0.47266-2.125 1.0352-3.2461 1.5039-1.2695 0.70703-2.5977 1.3594-3.8672 2.0664-1.0352 0.5625-2.0664 1.1797-3.0703 1.832-1.1797 0.79688-2.4492 1.5039-3.6328 2.3633-1.0352 0.62109-1.9766 1.3594-2.9219 2.0664-1.1797 0.85547-2.3008 1.7422-3.3945 2.5977-0.94531 0.79688-1.8906 1.5938-2.7734 2.3633-1.1211 0.85547-2.125 1.8906-3.1602 2.832-0.85547 0.85547-1.7422 1.6523-2.5977 2.5391-0.94531 1.0352-1.9766 2.0664-2.9219 3.1602-0.79688 0.85547-1.5938 1.832-2.3633 2.7734-0.85547 1.0938-1.7422 2.2148-2.5977 3.3945-0.70703 0.94531-1.418 1.8906-2.125 2.9219-0.79688 1.1797-1.5938 2.3633-2.3633 3.6328-0.62109 1.0352-1.2695 2.0664-1.8906 3.0703-0.70703 1.2695-1.418 2.5977-2.0664 3.8672-0.5625 1.1211-1.1211 2.2148-1.5938 3.3359-0.62109 1.3594-1.1797 2.6875-1.832 4.043-0.38281 1.1797-0.85547 2.3008-1.3594 3.3945-0.47266 1.418-0.94531 2.9219-1.3594 4.3398-0.38281 1.1797-0.79688 2.3008-1.1211 3.4844-0.089844 0.32422-0.14844 0.62109-0.23438 0.94531l-83.332-0.03125c18.746-30.938 28.637-66.184 28.637-102.82 0-18.98-2.6875-37.578-7.8242-55.352h367.82c4.3398 0 7.9102-3.5703 7.9102-7.9102s-3.5703-7.9102-7.9102-7.9102h-371.72c-0.47266 0-0.94531 0.14844-1.418 0.32422-4.1914-11.07-9.3281-21.758-15.5-31.941h666.53c-14.699 24.207-23.793 51.012-27.129 79.086h-369.41c-4.3398 0-7.9102 3.5703-7.9102 7.9102s3.5703 7.9102 7.9102 7.9102h368.14c-0.089844 2.5977-0.23438 5.2266-0.23438 7.9102z" fill="#007258"/>
 <path d="m655.32 449.74h15.824v94.91h-15.824z" fill="#007258"/>
 <path d="m592.06 449.74h15.824v94.91h-15.824z" fill="#007258"/>
 <path d="m528.77 449.74h15.824v94.91h-15.824z" fill="#007258"/>
 <path d="m821.4 402.28h-86.996c-4.3398 0-7.9102-3.5703-7.9102-7.9102v-14.465c0-8-6.4961-14.555-14.465-14.555h-224.11c-8 0-14.465 6.5547-14.465 14.555v14.465c0 4.3398-3.5703 7.9102-7.9102 7.9102h-86.996c-13.047 0-23.734 10.688-23.734 23.734v118.64h158.17v-102.82c0-4.3398 3.5703-7.9102 7.9102-7.9102h31.645c4.3398 0 7.9102 3.5703 7.9102 7.9102v102.82h15.824v-102.82c0-4.3398 3.5703-7.9102 7.9102-7.9102h31.645c4.3398 0 7.9102 3.5703 7.9102 7.9102v102.82h15.824v-102.82c0-4.3398 3.5703-7.9102 7.9102-7.9102h31.645c4.3398 0 7.9102 3.5703 7.9102 7.9102v102.82h158.17v-118.64c0-13.047-10.688-23.734-23.734-23.734zm-387.51 126.55c-26.184 0-47.438-21.285-47.438-47.438 0-26.184 21.285-47.438 47.438-47.438 26.184 0 47.438 21.285 47.438 47.438 0 26.184-21.285 47.438-47.438 47.438zm332.16 0c-26.184 0-47.438-21.285-47.438-47.438 0-26.184 21.285-47.438 47.438-47.438 26.184 0 47.438 21.285 47.438 47.438 0 26.184-21.285 47.438-47.438 47.438z" fill="#007258"/>
 <path d="m797.67 481.36c0 42.184-63.262 42.184-63.262 0 0-42.156 63.262-42.156 63.262 0" fill="#007258"/>
 <path d="m465.51 481.36c0 42.184-63.262 42.184-63.262 0 0-42.156 63.262-42.156 63.262 0" fill="#007258"/>
 <path d="m742.32 386.48v-6.5547c0-16.77-13.609-30.375-30.289-30.375h-224.11c-16.68 0-30.289 13.609-30.289 30.375v6.5547h-53.371l23.969-107.95c2.4492-10.922 11.957-18.598 23.172-18.598h297.21c11.219 0 20.723 7.6758 23.172 18.598l23.969 107.95z" fill="#007258"/>
 <path d="m338.98 259.93h45.195v79.086h-45.195z" fill="#007258"/>
 <path d="m815.77 259.93h45.195v79.086h-45.195z" fill="#007258"/>
</svg>
