<?xml version="1.0" encoding="UTF-8"?>
<svg width="512pt" height="512pt" version="1.1" viewBox="0 0 512 512" xmlns="http://www.w3.org/2000/svg">
 <path d="m443.14 443.54h-0.37891c-2.1406 0.21875-4.2383-0.85937-5.3008-2.7383-1.0195-1.8789-0.85938-4.2383 0.48047-5.8984 7.1211-9.0586 10.941-19.941 10.941-31.559 0-9.4414-2.6211-18.641-7.5586-26.641-9.8008-15.859-26.84-25.078-45.699-24.219-1.3984 0.058594-2.7383 0.21875-4.1211 0.37891-1.3398 0.16016-2.7383 0.37891-4.0781 0.64062-2.6211 0.53906-5.1992-0.92188-6.1016-3.4219-7.6602-21-27.918-35.141-50.32-35.141-25.66 0-47.801 18.281-52.617 43.398-0.32031 1.7617-1.5586 3.2617-3.2188 3.9219-1.6602 0.69922-3.5391 0.53906-5.0391-0.48047-8.9414-6.1016-19.398-9.3203-30.219-9.3203-12.32 0-24.441 4.2812-33.98 12.059-1.2812 1.0781-3 1.5-4.6016 1.0781-1.6016-0.37891-2.9414-1.5-3.6406-3-8.6211-19.18-27.801-31.559-48.859-31.559-25.879 0-48.059 18.441-52.719 43.82-0.53906 3.1602-0.85938 6.4219-0.85938 9.7578 0 7.0781 1.3398 13.941 4.0195 20.461 0.69922 1.5586 0.53906 3.3203-0.32031 4.7617s-2.3594 2.4219-4.0781 2.5781c-38.48 4.0195-67.777 35.578-69.223 74h460.74c0-23.738-19.461-43.18-43.238-42.859zm-342.54 10.719c-2.9414 0-5.3594-2.4219-5.3594-5.3594 0-2.9414 2.4219-5.3594 5.3594-5.3594 2.9414 0 5.3594 2.4219 5.3594 5.3594 0 2.9414-2.4219 5.3594-5.3594 5.3594zm58.941-42.859c-2.9414 0-5.3594-2.4219-5.3594-5.3594 0-2.9414 2.4219-5.3594 5.3594-5.3594 2.9414 0 5.3594 2.4219 5.3594 5.3594 0 2.9414-2.4219 5.3594-5.3594 5.3594zm0-37.5c-2.9414 0-5.3594-2.4219-5.3594-5.3594 0-2.9414 2.4219-5.3594 5.3594-5.3594 2.9414 0 5.3594 2.4219 5.3594 5.3594 0 2.9414-2.4219 5.3594-5.3594 5.3594zm176.82 5.3594c-2.9414 0-5.3594-2.4219-5.3594-5.3594 0-2.9414 2.4219-5.3594 5.3594-5.3594 2.9414 0 5.3594 2.4219 5.3594 5.3594 0 2.9414-2.4219 5.3594-5.3594 5.3594zm58.941 58.941c-2.9414 0-5.3594-2.4219-5.3594-5.3594 0-2.9414 2.4219-5.3594 5.3594-5.3594 2.9414 0 5.3594 2.4219 5.3594 5.3594 0 2.9414-2.4219 5.3594-5.3594 5.3594z" fill="#007258"/>
 <path d="m462.36 298.86c0 24.801 6.6992 48.699 19.398 69.656h-33c-0.16016-0.21875-0.32031-0.42188-0.42188-0.64062-0.42188-0.53906-0.80078-1.0781-1.2383-1.6602-0.48047-0.57812-0.92187-1.2383-1.4414-1.8203-0.42188-0.53906-0.85938-1.0781-1.3398-1.6016-0.48047-0.53906-0.96094-1.1211-1.5-1.6602-0.48047-0.53906-0.96094-1.0195-1.5-1.5-0.48047-0.53906-1.0195-1.0195-1.5586-1.5586-0.48047-0.48047-1.0195-0.96094-1.6016-1.3984-0.53906-0.48047-1.0781-0.96094-1.6016-1.3984-0.53906-0.42188-1.1211-0.92188-1.7188-1.3398-0.53906-0.42188-1.1211-0.80078-1.7188-1.2383-0.57812-0.42188-1.1797-0.80078-1.7617-1.2383-0.57812-0.37891-1.1797-0.76172-1.8203-1.0781-0.57812-0.37891-1.2383-0.76172-1.8789-1.1211-0.57812-0.32031-1.2383-0.64062-1.8203-0.96094l-1.9219-0.96094c-0.64062-0.26172-1.2812-0.53906-1.9219-0.80078-0.69922-0.26172-1.3398-0.57812-2.0391-0.80078-0.64062-0.26172-1.3398-0.48047-1.9805-0.76172-0.69922-0.21875-1.3984-0.42187-2.0781-0.64062-0.64063-0.21875-1.3398-0.37891-2.0391-0.57813-0.69922-0.16016-1.3984-0.37891-2.0781-0.53906-0.69922-0.16016-1.4414-0.26172-2.1406-0.37891-0.69922-0.16016-1.4414-0.32031-2.1406-0.42188-0.69922-0.10156-1.4414-0.16016-2.1992-0.26172-0.69922-0.058594-1.4414-0.16016-2.1406-0.21875-0.76172-0.058594-1.5586-0.10156-2.3008-0.10156-0.69922-0.058594-1.3984-0.10156-2.1406-0.10156-0.80078 0-1.6602 0.058594-2.5195 0.058594-0.64062 0.058593-1.2812 0-1.9219 0.058593-1.5 0.10156-3 0.26172-4.5 0.42188-10.281-22.941-33.32-38.039-58.723-38.039-28.301 0-52.941 18.441-61.301 44.801-20.199-10.559-46.078-9.2617-65.258 3.3203-11.359-19.66-32.582-32.039-55.617-32.039-1.8789 0-3.7617 0.10156-5.6211 0.26172-0.64062 0.058594-1.2383 0.16016-1.8203 0.21875-1.2383 0.16016-2.4609 0.26172-3.6992 0.48047-0.69922 0.16016-1.4414 0.32031-2.1406 0.48047-1.0781 0.21875-2.1406 0.42188-3.2188 0.69922-0.73828 0.21875-1.5 0.48047-2.1992 0.69922-1.0195 0.26172-2.0391 0.57812-3 0.92188-0.76172 0.26172-1.4414 0.57812-2.1992 0.92188-0.96094 0.37891-1.8789 0.76172-2.7812 1.1797-0.76172 0.32031-1.4414 0.69922-2.1992 1.0195-0.85938 0.48047-1.7617 0.92188-2.6211 1.3984-0.69922 0.37891-1.3984 0.80078-2.0781 1.2383-0.80078 0.53906-1.6602 1.0195-2.4609 1.6016-0.69922 0.42188-1.3398 0.92188-1.9805 1.3984-0.80078 0.57812-1.5586 1.1797-2.3008 1.7617-0.64062 0.53906-1.2812 1.0781-1.8789 1.6016-0.76172 0.57812-1.4414 1.2812-2.1406 1.9219-0.57812 0.57812-1.1797 1.1211-1.7617 1.7188-0.64062 0.69922-1.3398 1.3984-1.9805 2.1406-0.53906 0.57812-1.0781 1.2383-1.6016 1.8789-0.57812 0.73828-1.1797 1.5-1.7617 2.3008-0.48047 0.64062-0.96094 1.2812-1.4414 1.9805-0.53906 0.80078-1.0781 1.6016-1.6016 2.4609-0.42188 0.69922-0.85938 1.3984-1.2812 2.0781-0.48047 0.85937-0.96094 1.7617-1.3984 2.6211-0.37891 0.76172-0.76172 1.5-1.0781 2.2617-0.42187 0.92188-0.80078 1.8203-1.2383 2.7383-0.26172 0.80078-0.57812 1.5586-0.92188 2.3008-0.32031 0.96094-0.64062 1.9805-0.92188 2.9414-0.26172 0.80078-0.53906 1.5586-0.76172 2.3594-0.058593 0.21875-0.10156 0.42188-0.16016 0.64062l-56.457-0.019531c12.699-20.961 19.398-44.84 19.398-69.656 0-12.859-1.8203-25.461-5.3008-37.5h249.2c2.9414 0 5.3594-2.4219 5.3594-5.3594 0-2.9414-2.4219-5.3594-5.3594-5.3594h-251.84c-0.32031 0-0.64062 0.10156-0.96094 0.21875-2.8398-7.5-6.3203-14.738-10.5-21.641h451.58c-9.9609 16.398-16.121 34.559-18.379 53.582h-250.28c-2.9414 0-5.3594 2.4219-5.3594 5.3594 0 2.9414 2.4219 5.3594 5.3594 5.3594h249.42c-0.058594 1.7617-0.16016 3.5391-0.16016 5.3594z" fill="#007258"/>
 <path d="m293.48 154.2h10.719v64.301h-10.719z" fill="#007258"/>
 <path d="m250.62 154.2h10.719v64.301h-10.719z" fill="#007258"/>
 <path d="m207.74 154.2h10.719v64.301h-10.719z" fill="#007258"/>
 <path d="m406 122.04h-58.941c-2.9414 0-5.3594-2.4219-5.3594-5.3594v-9.8008c0-5.4219-4.3984-9.8594-9.8008-9.8594h-151.84c-5.4219 0-9.8008 4.4414-9.8008 9.8594v9.8008c0 2.9414-2.4219 5.3594-5.3594 5.3594h-58.941c-8.8398 0-16.078 7.2383-16.078 16.078v80.379h107.16v-69.656c0-2.9414 2.4219-5.3594 5.3594-5.3594h21.441c2.9414 0 5.3594 2.4219 5.3594 5.3594v69.656h10.719v-69.656c0-2.9414 2.4219-5.3594 5.3594-5.3594h21.441c2.9414 0 5.3594 2.4219 5.3594 5.3594v69.656h10.719v-69.656c0-2.9414 2.4219-5.3594 5.3594-5.3594h21.441c2.9414 0 5.3594 2.4219 5.3594 5.3594v69.656h107.16v-80.379c0-8.8398-7.2383-16.078-16.078-16.078zm-262.54 85.738c-17.738 0-32.141-14.422-32.141-32.141 0-17.738 14.422-32.141 32.141-32.141 17.738 0 32.141 14.422 32.141 32.141 0 17.738-14.422 32.141-32.141 32.141zm225.04 0c-17.738 0-32.141-14.422-32.141-32.141 0-17.738 14.422-32.141 32.141-32.141 17.738 0 32.141 14.422 32.141 32.141 0 17.738-14.422 32.141-32.141 32.141z" fill="#007258"/>
 <path d="m389.92 175.62c0 28.578-42.859 28.578-42.859 0 0-28.559 42.859-28.559 42.859 0" fill="#007258"/>
 <path d="m164.88 175.62c0 28.578-42.859 28.578-42.859 0 0-28.559 42.859-28.559 42.859 0" fill="#007258"/>
 <path d="m352.42 111.34v-4.4414c0-11.359-9.2188-20.578-20.52-20.578h-151.84c-11.301 0-20.52 9.2188-20.52 20.578v4.4414h-36.16l16.238-73.141c1.6602-7.3984 8.1016-12.602 15.699-12.602h201.36c7.6016 0 14.039 5.1992 15.699 12.602l16.238 73.141z" fill="#007258"/>
 <path d="m79.16 25.602h30.621v53.582h-30.621z" fill="#007258"/>
 <path d="m402.18 25.602h30.621v53.582h-30.621z" fill="#007258"/>
</svg>
