<?xml version="1.0" encoding="UTF-8"?>
<svg width="512pt" height="512pt" version="1.1" viewBox="0 0 512 512" xmlns="http://www.w3.org/2000/svg">
 <path d="m501.12 333.12h-496.88c-2.3164 0-4.2383 1.918-4.2383 4.2383v42.801c0 19.84 16.078 35.922 35.84 35.922h433.6c19.84 0 35.84-16.078 35.84-35.922v-42.801c0-2.3203-1.8398-4.2383-4.1602-4.2383zm-453.28 64.32c-12.641 0-22.801-10.238-22.801-22.801 0-12.559 10.238-22.801 22.801-22.801 12.559 0 22.801 10.32 22.801 22.801 0 12.641-10.32 22.801-22.801 22.801zm40.641 14.797c-7.1992 0-13.121-5.8398-13.121-13.039s5.9219-13.121 13.121-13.121 13.039 5.9219 13.039 13.121-5.8398 13.039-13.039 13.039zm11.758-45.199c-7.1992 0-13.121-5.9219-13.121-13.121s5.9219-13.039 13.121-13.039 13.039 5.8398 13.039 13.039c0.003906 7.2031-5.8359 13.121-13.039 13.121zm38.082 41.84c-12.641 0-22.801-10.238-22.801-22.801 0-12.559 10.238-22.719 22.801-22.719 12.559 0 22.801 10.238 22.801 22.719 0.078125 12.641-10.242 22.801-22.801 22.801zm29.52-54.957c0-7.1992 5.9219-13.039 13.121-13.039 7.1992 0 13.039 5.8398 13.039 13.039s-5.8398 13.121-13.039 13.121c-7.2812-0.003907-13.121-5.9219-13.121-13.121zm22 58.316c-7.1211 0-13.039-5.8398-13.039-13.039s5.9219-13.121 13.039-13.121c7.1992 0 13.121 5.9219 13.121 13.121s-5.9219 13.039-13.121 13.039zm40.641-14.797c-12.559 0-22.801-10.238-22.801-22.801 0-12.559 10.32-22.801 22.801-22.801 12.641 0 22.801 10.32 22.801 22.801 0 12.641-10.16 22.801-22.801 22.801zm56.961 1.7578c-7.1992 0-13.121-5.9219-13.121-13.121s5.9219-13.039 13.121-13.039c7.1992 0 13.039 5.8398 13.039 13.039 0 7.2031-5.8398 13.121-13.039 13.121zm51.438 9.6797c-12.559 0-22.719-10.238-22.719-22.801 0-12.559 10.238-22.719 22.719-22.719 12.641 0 22.801 10.238 22.801 22.719 0 12.641-10.16 22.801-22.801 22.801zm16.082-48.801c-7.1992 0-13.039-5.8398-13.039-13.039 0-7.1992 5.8398-13.121 13.039-13.121 7.1992 0 13.121 5.9219 13.121 13.121-0.003906 7.2812-5.9219 13.039-13.121 13.039zm48.48 52.16c-7.1992 0-13.039-5.8398-13.039-13.039s5.8398-13.121 13.039-13.121c7.1992 0 13.121 5.9219 13.121 13.121-0.003906 7.1992-5.9219 13.039-13.121 13.039zm35.598-25.68c-12.641 0-22.801-10.238-22.801-22.801 0-12.559 10.238-22.719 22.801-22.719 12.559 0 22.719 10.238 22.719 22.719 0.003907 12.641-10.156 22.801-22.719 22.801z" fill="#007258"/>
 <path d="m17.922 324.88h473.84c-3.4414-50.719 2.8008-101.52 20.238-163.04-30 16.398-50.398 100.88-56 134.4-0.32031 2.0781-2.1602 3.4414-4.1602 3.5195-2.0781 0-3.7617-1.6016-4.0781-3.6016-11.039-82.801 3.9219-148.24 44.398-194.8-34.238 23.359-64.801 95.52-65.121 96.32-0.71875 1.9219-2.7188 2.8789-4.7188 2.4805-2-0.48047-3.3594-2.3203-3.1992-4.3203l6.0781-100c-11.199 8.8008-23.68 53.52-29.602 95.68-0.32031 2-2 3.5195-4.0781 3.6016-1.9219-0.16016-3.7617-1.3594-4.1602-3.2812-9.0391-44.559-31.52-71.199-47.52-85.199 28.078 46 36.48 92.078 24.961 137.12-0.48047 2-2.2383 3.2812-4.3203 3.1211-2-0.16016-3.6016-1.7617-3.8398-3.7617-5.6797-52.48-27.121-90.641-39.359-108.56 6.1602 72.32-1.9219 120-25.281 149.52-0.80078 1.1992-2.3203 1.6797-3.7617 1.6016-1.4414-0.16016-2.6406-1.0391-3.1992-2.3203-18.641-38.961 1.5195-103.28 9.2812-124.88-21.121 10.16-36.48 66.078-40.961 88.879-0.32031 1.8398-1.9219 3.1992-3.8398 3.3594-1.9219 0.16016-3.6797-1.0391-4.2383-2.8789-20.559-64.078 27.762-128.96 46.078-150.48-21.121 8.7188-52.961 66.961-70.16 106.88-0.80078 1.8398-2.8008 2.8008-4.8008 2.3984-1.9219-0.48047-3.1992-2.3203-3.1211-4.3203l6-104.72c-12.078 12.961-21.762 61.762-25.121 97.121-0.23828 2-1.9219 3.6797-3.9219 3.7617-2.0781 0.16016-3.9219-1.3594-4.3203-3.2812-8.1602-39.762-26.961-65.121-43.441-80.559 29.602 48.801 28.801 126.4 28.719 130.4 0 2.1602-1.7617 3.9219-3.9219 4.0781-2.2383 0-4.0781-1.5195-4.3984-3.6797-7.3594-57.922-30.559-89.922-50-106.88 30.559 49.039 21.68 135.36 21.281 139.76-0.16016 1.1992-0.71875 2.1602-1.6016 2.8008-0.71875 0.55859-1.6797 0.87891-2.5586 0.87891h-0.55859c-23.922-3.4414-37.52-73.52-42.801-107.84l-8.2383 19.84c-0.64062 1.6797-2.2383 2.6406-4.0781 2.5586-1.7617-0.078125-3.1992-1.3594-3.7617-2.9609l-18.641-65.199c-0.23828 50.238-0.32031 107.44 0.078126 112.32 0.23828 1.0391 0 2.1602-0.55859 3.0391-0.71875 1.1992-2.0781 1.9219-3.5195 1.9219-0.71875 0-1.3594 0-3.1992-2.7188l-0.71484 0.078124c-0.078125-0.16016-0.16016-0.39844-0.23828-1.4414-4.3984-6.6406-14.559-24.719-41.52-72.961 18.477 61.844 23.68 113.2 15.68 156.24z" fill="#007258"/>
 <path d="m62.398 374.64c0 8.0391-6.5156 14.559-14.559 14.559-8.043 0-14.559-6.5195-14.559-14.559 0-8.043 6.5156-14.562 14.559-14.562 8.043 0 14.559 6.5195 14.559 14.562z" fill="#007258"/>
 <path d="m138.32 371.68c-8 0-14.559 6.4805-14.559 14.48 0 8.0781 6.5586 14.559 14.559 14.559s14.559-6.4805 14.559-14.559c0-8-6.5586-14.48-14.559-14.48z" fill="#007258"/>
 <path d="m230.48 360.08c-8 0-14.559 6.5586-14.559 14.559s6.5586 14.559 14.559 14.559c8.0781 0 14.559-6.5586 14.559-14.559 0-7.9961-6.4805-14.559-14.559-14.559z" fill="#007258"/>
 <path d="m338.88 371.68c-8 0-14.48 6.4805-14.48 14.48 0 8.0781 6.4805 14.559 14.48 14.559 8.0781 0 14.559-6.4805 14.559-14.559-0.078125-8-6.4766-14.48-14.559-14.48z" fill="#007258"/>
 <path d="m439.04 349.36c-8.0781 0-14.559 6.4805-14.559 14.48 0 8.0781 6.4805 14.559 14.559 14.559 8 0 14.48-6.4805 14.48-14.559 0-8-6.4805-14.48-14.48-14.48z" fill="#007258"/>
 <path d="m100.24 349.2c-2.6406 0-4.8008 2.1602-4.8008 4.7188 0 2.6406 2.1602 4.8008 4.8008 4.8008s4.7188-2.1602 4.7188-4.8008c0.003907-2.5586-2.0781-4.7188-4.7188-4.7188z" fill="#007258"/>
 <path d="m185.68 353.92c0-2.5586-2.0781-4.7188-4.7188-4.7188-2.6406 0-4.8008 2.1602-4.8008 4.7188 0 2.6406 2.1602 4.8008 4.8008 4.8008 2.6406-0.003906 4.7188-2.1641 4.7188-4.8008z" fill="#007258"/>
 <path d="m189.84 394.4c-2.5586 0-4.7188 2.1602-4.7188 4.8008s2.1602 4.7188 4.7188 4.7188c2.6406 0 4.8008-2.0781 4.8008-4.7188s-2.1602-4.8008-4.8008-4.8008z" fill="#007258"/>
 <path d="m287.44 381.36c-2.6406 0-4.8008 2.1602-4.8008 4.7188 0 2.6406 2.1602 4.8008 4.8008 4.8008s4.7188-2.1602 4.7188-4.8008c0-2.5586-2.082-4.7188-4.7188-4.7188z" fill="#007258"/>
 <path d="m403.44 394.4c-2.6406 0-4.7188 2.1602-4.7188 4.8008s2.0781 4.7188 4.7188 4.7188 4.8008-2.0781 4.8008-4.7188c-0.003907-2.6406-2.1641-4.8008-4.8008-4.8008z" fill="#007258"/>
 <path d="m354.96 342.24c-2.5586 0-4.7188 2.1602-4.7188 4.8008 0 2.5586 2.1602 4.7188 4.7188 4.7188 2.6406 0 4.8008-2.1602 4.8008-4.7188 0-2.6406-2.1602-4.8008-4.8008-4.8008z" fill="#007258"/>
 <path d="m88.48 394.4c-2.6406 0-4.8008 2.1602-4.8008 4.8008s2.1602 4.7188 4.8008 4.7188 4.7188-2.0781 4.7188-4.7188-2.0781-4.8008-4.7188-4.8008z" fill="#007258"/>
</svg>
