<?xml version="1.0" encoding="UTF-8"?>
<svg width="512pt" height="512pt" version="1.1" viewBox="0 0 512 512" xmlns="http://www.w3.org/2000/svg">
 <path d="m439.56 420.7c0 18.781-28.18 18.781-28.18 0s28.18-18.781 28.18 0" fill="#007258"/>
 <path d="m374.84 411c-7.0391 0-12.621 5.5781-12.621 12.621 0 6.8984 5.5781 12.621 12.621 12.621 6.8984 0 12.621-5.7188 12.621-12.621-0.019532-7.0195-5.7383-12.621-12.621-12.621z" fill="#007258"/>
 <path d="m381.44 367.12c-6.8984 0-12.48 5.7188-12.48 12.621 0 6.8984 5.5781 12.621 12.48 12.621 7.0391 0 12.621-5.7188 12.621-12.621 0-6.8984-5.5781-12.621-12.621-12.621z" fill="#007258"/>
 <path d="m362.5 228.7h-0.16016c-2.6406 0-5.2812 1.0391-7.1992 2.9414-1.7617 1.9219-2.8008 4.3984-2.8008 7.0391 0.16016 5.4414 5 9.8398 10.141 9.8398 2.8008-0.16016 5.2812-1.1602 7.0391-3.0781 1.9219-1.7617 2.9414-4.3984 2.8008-7.1992 0-5.4414-4.3984-9.5391-9.8203-9.5391z" fill="#007258"/>
 <path d="m412.26 238.52c6.7617-11.301 4.3984-21.281 0.87891-27.879-5.2812-10.141-14.398-15.559-25.84-15.719-6.4609-11.16-15.84-14.078-23.199-14.52-11.602-0.71875-21 4.3984-27 14.52h-0.28125c-10.422 0-18.801 4.5586-24.219 13.359-6.1602 9.6797-6.3203 20.262-0.44141 30.238-7.0391 11.602-4.2617 21.879-0.44141 28.621 5.4414 9.9805 14.84 15.281 25.539 14.961 5.5781 9.3984 14.238 14.52 24.801 14.52 0.71875 0 1.4805 0 2.0586-0.16016 7.3398-0.44141 16.879-3.3789 23.199-14.52 12.762 0.16016 19.961-6.4609 23.922-12.48 6.7383-9.7812 7.0391-20.66 1.0195-30.941zm-32.141 17.199c-4.5586 4.6992-10.859 7.3398-17.48 7.4805h-0.28125c-13.359 0-24.359-10.859-24.66-24.219 0-6.6016 2.3594-12.918 7.0391-17.621 4.6992-4.6992 10.859-7.3398 17.621-7.3398h0.16016c13.641 0 24.359 10.559 24.52 24.078 0.12109 6.7383-2.3789 12.898-6.9219 17.621z" fill="#007258"/>
 <path d="m359.72 452.12c-0.28125-0.87891-0.71875-1.7617-1.4805-2.5l-26.121-31.281c-27.602-32.879-43-74.559-43.16-117.44-0.16016-9.9805-7.0391-18.48-16.141-21.141l0.44141-226.2c0-11.879-9.6797-21.578-21.578-21.578-5.8789 0.44141-11.16 2.1992-15.281 6.3203-3.9609 3.9609-6.3203 9.3984-6.3203 15.121l-0.44141 226.2c-9.2383 2.6406-16.141 11-16.281 21-0.60156 42.859-16.281 84.398-44.18 117l-26.422 31.121c-0.16016 0-0.16016 0.16016-0.16016 0.16016-0.60156 0.71875-1.0391 1.4805-1.3203 2.3594-0.16016 0.44141-0.16016 1.0391-0.16016 1.4805s-0.16016 0.87891-0.16016 1.3203c0.16016 0.87891 0.28125 1.9219 0.71875 2.8008 7.0391 14.078 19.082 22.461 32 22.602h0.16016c9.6797 0 18.941-4.8398 25.98-13.059 6.4609 6.4609 15.398 10.422 24.961 10.422h0.16016c9.6797 0 18.5-3.8203 25.102-10.281 6.8984 8.3594 16.141 13.199 25.84 13.199h0.16016c9.5391 0 18.5-4.5586 25.539-12.48 6.8984 8.0781 15.84 12.762 25.539 12.762 12.918 0 24.961-8.3594 32.16-22.32 0.44141-0.87891 0.71875-1.7617 0.71875-2.8008 0-0.44141-0.16016-0.87891-0.16016-1.1602 0-0.60156 0-1.0391-0.12109-1.6211zm-101.3-333.22h-13.801l0.16016-13.059h13.641zm0-27.738h-13.641l-0.019531-37.578c0-1.9219 0.71875-3.6797 2.0586-4.8398 1.3203-1.3203 3.3789-2.1992 4.8398-2.0391 3.8203 0 6.8984 3.0781 6.8984 6.8984z" fill="#007258"/>
 <path d="m160.08 136.08c1.7617-1.7617 2.8008-4.3984 2.8008-7.1992-0.16016-5.4414-4.3984-9.5391-9.9805-9.5391-2.8008 0-5.2812 1.0391-7.1992 2.9414-1.9219 1.9219-2.9414 4.3984-2.8008 7.0391 0.16016 5.4414 5.1406 9.6797 9.9805 9.6797 2.7812 0 5.2812-1.0195 7.1992-2.9219z" fill="#007258"/>
 <path d="m117.64 363.44c-7.7812 0-14.078 6.3203-14.078 14.078 0 7.7812 6.3203 14.078 14.078 14.078 7.7812 0 14.078-6.3203 14.078-14.078 0.019531-7.7617-6.2812-14.078-14.078-14.078z" fill="#007258"/>
 <path d="m154.64 187.16c7.3398-0.44141 16.719-3.3789 23.039-14.52h0.16016c12.621 0 19.961-6.4609 23.922-12.48 6.6016-9.8398 6.8984-20.699 0.87891-30.961 6.7617-11.301 4.3984-21.281 1.0391-27.879-3.8203-7.3398-11.441-15.719-25.84-15.719h-0.16016c-6.3203-11.16-15.84-14.078-23.199-14.52-11.441-0.71875-21 4.3984-26.859 14.52-10.719 0.16016-19.082 4.5586-24.66 13.359-6.1602 9.6797-6.1602 20.262-0.28125 30.238-7.0391 11.602-4.3984 21.879-0.60156 28.621 5.5781 9.9805 13.941 14.961 25.68 14.961 5.5781 9.3984 14.238 14.52 24.801 14.52 0.76172 0 1.3594 0 2.0781-0.14062zm-26.422-57.539c-0.16016-6.6016 2.3594-12.918 6.8984-17.621 4.6992-4.6992 11-7.3398 17.602-7.3398h0.16016c13.641 0 24.52 10.559 24.66 24.078 0 6.7617-2.3594 12.918-7.0391 17.621-4.5586 4.6992-10.719 7.3398-17.48 7.3398h-0.16016c-13.34-0.019531-24.5-10.738-24.641-24.078z" fill="#007258"/>
 <path d="m103.56 424.36c0 20.762-31.121 20.762-31.121 0 0-20.738 31.121-20.738 31.121 0" fill="#007258"/>
</svg>
