<?xml version="1.0" encoding="UTF-8"?>
<svg viewBox="0 0 1200 1200" xmlns="http://www.w3.org/2000/svg">
 <rect x="-120" y="-120" width="1440" height="1440" fill="#fff"/>
 <path d="m520.06 757.61c-0.5625-1.7109-2.4219-2.6289-4.1016-2.0352-11.777 3.9258-17.594 9.7695-24.117 16.355-7.2617 7.3203-15.527 15.617-35.098 22.879 12.93-30.672 30.496-50.035 48.68-60.93 10.805-6.4648 21.816-9.9492 32.176-11.012 10.273-1.0625 19.895 0.23438 28.016 3.3359 7.5 2.8633 13.699 7.2305 17.859 12.605-7.5 4.0156-26.125 15.32-44.281 36.516-10.922 12.754-22.906 20.516-34.422 24.945-11.777 4.5156-23.055 5.4922-32.117 4.7227-6.4961-0.5625-11.719-1.9492-15.086-3.5703 21.934-7.8828 30.969-16.945 38.879-24.914 5.9648-5.9922 11.277-11.336 21.578-14.789 1.7109-0.5625 2.6289-2.4219 2.0664-4.1016zm114.04-67.719c16.117 5.4023 24.117 13.43 33.121 22.496 10.566 10.625 22.582 22.699 52.102 33.18-18.242-44.574-43.395-72.59-69.461-88.207-15.23-9.1211-30.73-14.023-45.344-15.527-14.523-1.5039-28.133 0.35547-39.617 4.7227-11.246 4.2812-20.398 10.953-26.332 19.219 9.3008 4.8398 36.34 20.547 62.641 51.305 15.352 17.949 32.266 28.898 48.473 35.098 16.621 6.375 32.531 7.7617 45.344 6.6719 10.98-0.94531 19.484-3.6328 24.031-6.4961-32.266-11.102-45.137-24.059-56.414-35.395-8.4414-8.4727-15.91-16-30.582-20.898-1.7109-0.5625-2.6289-2.4219-2.0352-4.1016 0.5625-1.7109 2.4219-2.6289 4.1016-2.0352zm-191.61-115.48c9.3008 0 17.711-3.7773 23.824-9.8594 6.082-6.082 9.8594-14.523 9.8594-23.824 0-9.2969-3.7773-17.711-9.8594-23.824-6.082-6.082-14.523-9.8594-23.824-9.8594-9.2969 0-17.711 3.7773-23.824 9.8594-6.082 6.082-9.8594 14.523-9.8594 23.824 0 9.2969 3.7773 17.711 9.8594 23.824 6.082 6.082 14.523 9.8594 23.824 9.8594zm-145.57-33.684c0-7.7617 5.875-15.055 15.645-20.871 10.508-6.2578 25.301-10.688 42.242-12.25 0.70703-0.03125 1.418-0.26562 2.0078-0.76562 1.3867-1.1523 1.5664-3.2188 0.41406-4.5742-10.953-13.105-18.332-26.773-21.344-38.672-2.8047-11.012-1.8008-20.34 3.6914-25.801 5.4922-5.4922 14.789-6.4648 25.801-3.6914 11.895 3.0117 25.562 10.391 38.672 21.344 1.3867 1.1523 3.4258 0.97266 4.5742-0.41406 0.5-0.58984 0.73828-1.3008 0.76562-2.0078 1.5352-16.945 5.9922-31.762 12.25-42.242 5.8164-9.7695 13.105-15.645 20.871-15.645 7.7617 0 15.055 5.875 20.871 15.645 6.2578 10.508 10.688 25.328 12.25 42.242 0.03125 0.70703 0.26563 1.418 0.76563 2.0078 1.1523 1.3867 3.2188 1.5664 4.5742 0.41406 13.105-10.953 26.773-18.332 38.672-21.344 11.012-2.8047 20.34-1.8008 25.801 3.6914 5.4922 5.4922 6.4648 14.789 3.6914 25.801-3.0117 11.895-10.391 25.562-21.344 38.672-1.1523 1.3867-0.97266 3.4258 0.41406 4.5742 0.58984 0.5 1.3008 0.73828 2.0078 0.76562 16.945 1.5352 31.762 5.9922 42.242 12.25 9.7695 5.8164 15.645 13.105 15.645 20.871 0 7.7617-5.875 15.055-15.645 20.871-10.508 6.2578-25.328 10.688-42.242 12.25-0.70703 0.03125-1.418 0.26562-2.0078 0.76562-1.3867 1.1523-1.5664 3.2188-0.41406 4.5742 10.953 13.105 18.332 26.773 21.344 38.672 2.8047 11.012 1.8008 20.34-3.6914 25.801-5.4922 5.4922-14.789 6.4648-25.801 3.6914-11.895-3.0117-25.562-10.391-38.672-21.344-1.3867-1.1523-3.4258-0.97266-4.5742 0.41406-0.5 0.58984-0.73828 1.3008-0.76563 2.0078-1.5352 16.945-5.9922 31.762-12.25 42.242-3.9258 6.6133-8.5625 11.426-13.52 13.875-0.11719 0.058593-0.20703 0.089843-0.32422 0.14844-2.2734 1.0625-4.6055 1.625-7.0273 1.625-2.3906 0-4.7539-0.5625-6.9961-1.625-0.11719-0.058594-0.20703-0.11719-0.32422-0.14844-4.9883-2.4219-9.5938-7.2617-13.52-13.875-6.2578-10.508-10.688-25.301-12.25-42.242-0.03125-0.70703-0.26562-1.418-0.76562-2.0078-1.1523-1.3867-3.2188-1.5664-4.5742-0.41406-13.105 10.953-26.773 18.332-38.672 21.344-11.012 2.8047-20.34 1.8008-25.801-3.6914-5.4922-5.4922-6.4648-14.789-3.6914-25.801 3.0117-11.895 10.391-25.562 21.344-38.672 1.1523-1.3867 0.97266-3.4258-0.41406-4.5742-0.58984-0.5-1.3008-0.73828-2.0078-0.76562-16.945-1.5352-31.762-5.9922-42.242-12.25-9.7695-5.8164-15.645-13.105-15.645-20.871zm66.184 0c0 1.8008 1.4453 3.2773 3.2773 3.2773h36.043c0.70703 8.7695 4.2227 16.738 9.6523 23.027l-30.496 29.609c-1.3008 1.2383-1.3281 3.3047-0.058593 4.6055 1.2383 1.3008 3.3047 1.3281 4.6055 0.058593l30.582-29.699c6.1992 5.1953 13.992 8.5312 22.523 9.2383v39.617c0 1.8008 1.4766 3.2773 3.2773 3.2773s3.2773-1.4766 3.2773-3.2773v-39.617c9.0312-0.73828 17.211-4.4297 23.586-10.125l27.836 28.133c1.2695 1.2695 3.3359 1.2695 4.6055 0 1.2695-1.2695 1.2695-3.3359 0-4.6055l-27.984-28.281c4.9297-6.1094 8.0898-13.668 8.7695-21.961h36.043c1.8008 0 3.2773-1.4766 3.2773-3.2773 0-1.8008-1.4453-3.2773-3.2773-3.2773h-36.043c-0.67969-8.4414-3.957-16.148-9.0625-22.316l30.555-29.668c1.3008-1.2383 1.3281-3.3047 0.058594-4.6055-1.2383-1.3008-3.3047-1.3281-4.6055-0.058594l-30.523 29.668c-6.4648-5.668-14.762-9.3008-23.883-9.8594v-42.035c0-1.8008-1.4453-3.2773-3.2773-3.2773-1.8008 0-3.2773 1.4453-3.2773 3.2773v42.156c-8.3242 0.79688-15.91 4.1328-21.961 9.2383l-27.926-28.191c-1.2695-1.2695-3.3359-1.2695-4.6055 0-1.2695 1.2695-1.2695 3.3359 0 4.6055l27.895 28.191c-5.3711 6.2578-8.8867 14.199-9.5625 22.938h-36.043c-1.8008 0-3.2773 1.4453-3.2773 3.2773zm549.16-78.496c0 9.6523-7.2305 18.688-19.277 25.859-12.812 7.6172-30.848 13.047-51.484 14.906-0.70703 0.03125-1.418 0.26562-2.0078 0.76562-1.3867 1.1523-1.5664 3.2188-0.41406 4.5742 13.312 15.969 22.316 32.621 25.977 47.113 3.4531 13.578 2.1836 25.094-4.6328 31.91-6.8203 6.8203-18.332 8.0898-31.91 4.6328-14.496-3.6602-31.145-12.664-47.113-25.977-1.3867-1.1523-3.4258-0.97266-4.5742 0.41406-0.5 0.58984-0.73828 1.3008-0.76562 2.0078-1.8906 20.637-7.293 38.672-14.906 51.484-4.8398 8.1484-10.539 14.082-16.707 17.094-0.11719 0.058593-0.20703 0.089843-0.32422 0.14844-2.8633 1.3281-5.8164 2.0352-8.8281 2.0352s-5.9648-0.70703-8.7969-2.0352c-0.11719-0.058594-0.20703-0.11719-0.32422-0.14844-6.168-2.9805-11.867-8.9453-16.707-17.062-7.6172-12.812-13.047-30.879-14.906-51.484-0.03125-0.70703-0.26562-1.418-0.76562-2.0078-1.1523-1.3867-3.2188-1.5664-4.5742-0.41406-15.969 13.312-32.621 22.316-47.113 25.977-13.578 3.4531-25.094 2.1836-31.91-4.6328-6.8203-6.8203-8.0898-18.332-4.6328-31.91 3.6602-14.496 12.664-31.145 25.977-47.113 1.1523-1.3867 0.97266-3.4258-0.41406-4.5742-0.58984-0.5-1.3008-0.73828-2.0078-0.76562-20.637-1.8906-38.672-7.293-51.484-14.906-12.043-7.1719-19.277-16.176-19.277-25.859 0-9.6523 7.2305-18.688 19.277-25.859 12.812-7.6172 30.879-13.047 51.484-14.906 0.70703-0.03125 1.418-0.26563 2.0078-0.76563 1.3867-1.1523 1.5664-3.2188 0.41406-4.5742-13.312-15.969-22.316-32.621-25.977-47.113-3.4531-13.578-2.1836-25.094 4.6328-31.91 6.8203-6.8203 18.332-8.0898 31.91-4.6328 14.496 3.6602 31.145 12.664 47.113 25.977 1.3867 1.1523 3.4258 0.97266 4.5742-0.41406 0.5-0.58984 0.73828-1.3008 0.76562-2.0078 1.8906-20.637 7.293-38.672 14.906-51.484 7.1719-12.043 16.176-19.277 25.859-19.277 9.6523 0 18.688 7.2305 25.859 19.277 7.6172 12.812 13.047 30.879 14.906 51.484 0.03125 0.70703 0.26562 1.418 0.76562 2.0078 1.1523 1.3867 3.2188 1.5664 4.5742 0.41406 15.969-13.312 32.621-22.316 47.113-25.977 13.578-3.4531 25.094-2.1836 31.91 4.6328 6.8203 6.8203 8.0898 18.332 4.6328 31.91-3.6602 14.496-12.664 31.145-25.977 47.113-1.1523 1.3867-0.97266 3.4258 0.41406 4.5742 0.58984 0.5 1.3008 0.73828 2.0078 0.76563 20.637 1.8906 38.672 7.293 51.484 14.906 12.043 7.1719 19.277 16.176 19.277 25.859zm-81.535 0c0-1.8008-1.4766-3.2773-3.2773-3.2773h-44.281c-0.70703-10.539-4.8398-20.164-11.277-27.75l37.43-36.367c1.3008-1.2383 1.3281-3.3047 0.058594-4.6055-1.2383-1.3008-3.3047-1.3281-4.6055-0.058593l-37.43 36.367c-7.9414-7.1445-18.242-11.66-29.609-12.25v-51.57c0-1.8008-1.4453-3.2773-3.2773-3.2773-1.8008 0-3.2773 1.4453-3.2773 3.2773v51.66c-10.391 0.85547-19.867 5.0469-27.336 11.512l-34.242-34.598c-1.2695-1.2695-3.3359-1.2695-4.6055 0-1.2695 1.2695-1.2695 3.3359 0 4.6055l34.242 34.598c-6.7891 7.7031-11.16 17.594-11.895 28.488h-44.281c-1.8008 0-3.2773 1.4453-3.2773 3.2773 0 1.8008 1.4453 3.2773 3.2773 3.2773h44.281c0.73828 10.953 5.1367 20.871 11.984 28.605l-37.402 36.309c-1.3008 1.2383-1.3281 3.3047-0.058594 4.6055 1.2383 1.3008 3.3047 1.3281 4.6055 0.058593l37.488-36.398c7.6172 6.5547 17.328 10.746 27.984 11.453v48.59c0 1.8008 1.4453 3.2773 3.2773 3.2773 1.8008 0 3.2773-1.4453 3.2773-3.2773v-48.59c11.246-0.76562 21.461-5.4023 29.254-12.574l34.184 34.539c1.2695 1.2695 3.3359 1.2695 4.6055 0 1.2695-1.2695 1.2695-3.3359 0-4.6055l-34.301-34.656c6.2305-7.5273 10.184-16.973 10.895-27.305h44.281c1.8008 0 3.2773-1.4453 3.2773-3.2773zm-95.41-41.477c-11.453 0-21.816 4.6328-29.312 12.133-7.5 7.5-12.164 17.891-12.164 29.312 0 11.453 4.6328 21.816 12.164 29.312 7.5 7.5 17.891 12.164 29.312 12.164 11.453 0 21.816-4.6328 29.312-12.164 7.5-7.5 12.164-17.891 12.164-29.312 0-11.453-4.6328-21.816-12.164-29.312-7.5-7.5-17.859-12.133-29.312-12.133zm142.35 269.88c-9.918-3.7773-21.699-5.3711-34.242-4.0742-12.637 1.3008-26.066 5.5508-39.23 13.43-22.406 13.43-44.043 37.43-59.809 75.57 24.914-9.0039 35.188-19.336 44.223-28.426 7.8516-7.9102 14.848-14.938 28.957-19.66 1.7109-0.5625 3.543 0.35547 4.1016 2.0664 0.5625 1.7109-0.35547 3.543-2.0664 4.1016-12.637 4.2227-19.098 10.746-26.391 18.066-9.7109 9.7695-20.812 20.93-48.324 30.555 4.043 2.3008 11.039 4.3672 19.926 5.1367 11.07 0.94531 24.828-0.26562 39.203-5.7852 14.023-5.3711 28.664-14.848 41.949-30.375 22.496-26.301 45.609-39.969 54.109-44.457-5.1055-6.9375-12.898-12.516-22.406-16.148zm-538.62 65.652c12.605 14.762 26.48 23.734 39.793 28.84 13.637 5.2266 26.688 6.375 37.195 5.4922 8.207-0.70703 14.699-2.5664 18.539-4.6641-25.918-9.1211-36.426-19.691-45.637-28.957-6.9062-6.9648-13.047-13.137-25.031-17.121-1.7109-0.5625-2.6289-2.4219-2.0664-4.1016 0.5625-1.7109 2.4219-2.6289 4.1016-2.0664 13.43 4.4883 20.102 11.188 27.57 18.715 8.5312 8.5898 18.215 18.332 41.625 26.832-14.969-36.016-35.453-58.688-56.648-71.41-12.488-7.5-25.238-11.512-37.227-12.754-11.895-1.2383-23.055 0.29688-32.473 3.8672-8.9453 3.3945-16.266 8.6484-21.105 15.145 8.207 4.3672 30.051 17.359 51.305 42.184zm504.79 148.25h-101.43v-259.78c-2.3008 0.64844-4.6953 1.0039-7.1133 1.0039-2.4219 0-4.8125-0.32422-7.1133-1.0039v259.78h-280.39v-212.34c-1.7422 0.41406-3.5117 0.64844-5.3125 0.64844s-3.5703-0.20703-5.3125-0.64844v212.34h-112.09c-2.8047 0-5.1055 2.2734-5.1055 5.1055 0 2.8047 2.2734 5.1055 5.1055 5.1055h518.78c2.8047 0 5.1055-2.2734 5.1055-5.1055 0-2.8047-2.2734-5.1055-5.1055-5.1055z" fill="#007258"/>
</svg>
