<?xml version="1.0" encoding="UTF-8"?>
<svg width="512pt" height="512pt" version="1.1" viewBox="0 0 512 512" xmlns="http://www.w3.org/2000/svg">
 <path d="m201.84 362.78c-0.37891-1.1602-1.6406-1.7812-2.7812-1.3789-7.9805 2.6602-11.918 6.6211-16.34 11.082-4.9219 4.9609-10.52 10.578-23.781 15.5 8.7617-20.781 20.66-33.898 32.98-41.281 7.3203-4.3789 14.781-6.7383 21.801-7.4609 6.9609-0.71875 13.48 0.16016 18.98 2.2617 5.0781 1.9414 9.2812 4.8984 12.102 8.5391-5.0781 2.7188-17.699 10.379-30 24.738-7.3984 8.6406-15.52 13.898-23.32 16.898-7.9805 3.0586-15.621 3.7188-21.762 3.1992-4.3984-0.37891-7.9414-1.3203-10.219-2.4219 14.859-5.3398 20.98-11.48 26.34-16.879 4.0391-4.0586 7.6406-7.6797 14.621-10.02 1.1602-0.37891 1.7812-1.6406 1.3984-2.7812zm77.262-45.879c10.922 3.6602 16.34 9.1016 22.441 15.238 7.1602 7.1992 15.301 15.379 35.301 22.48-12.359-30.199-29.398-49.18-47.059-59.762-10.32-6.1797-20.82-9.5-30.719-10.52-9.8398-1.0195-19.059 0.23828-26.84 3.1992-7.6211 2.8984-13.82 7.418-17.84 13.02 6.3008 3.2812 24.621 13.922 42.441 34.762 10.398 12.16 21.859 19.578 32.84 23.781 11.262 4.3203 22.039 5.2617 30.719 4.5195 7.4414-0.64063 13.199-2.4609 16.281-4.3984-21.859-7.5195-30.582-16.301-38.219-23.98-5.7188-5.7383-10.781-10.84-20.719-14.16-1.1602-0.37891-1.7812-1.6406-1.3789-2.7812 0.37891-1.1602 1.6406-1.7812 2.7812-1.3789zm-129.82-78.238c6.3008 0 12-2.5586 16.141-6.6797 4.1211-4.1211 6.6797-9.8398 6.6797-16.141 0-6.3008-2.5586-12-6.6797-16.141-4.1211-4.1211-9.8398-6.6797-16.141-6.6797-6.3008 0-12 2.5586-16.141 6.6797-4.1211 4.1211-6.6797 9.8398-6.6797 16.141 0 6.3008 2.5586 12 6.6797 16.141 4.1211 4.1211 9.8398 6.6797 16.141 6.6797zm-98.621-22.82c0-5.2617 3.9805-10.199 10.602-14.141 7.1211-4.2383 17.141-7.2383 28.621-8.3008 0.48047-0.019532 0.96094-0.17969 1.3594-0.51953 0.94141-0.78125 1.0586-2.1797 0.28125-3.1016-7.418-8.8789-12.422-18.141-14.461-26.199-1.8984-7.4609-1.2188-13.781 2.5-17.48 3.7188-3.7188 10.02-4.3789 17.48-2.5 8.0586 2.0391 17.32 7.0391 26.199 14.461 0.94141 0.78125 2.3203 0.66016 3.1016-0.28125 0.33984-0.39844 0.5-0.87891 0.51953-1.3594 1.0391-11.48 4.0586-21.52 8.3008-28.621 3.9414-6.6211 8.8789-10.602 14.141-10.602 5.2617 0 10.199 3.9805 14.141 10.602 4.2383 7.1211 7.2383 17.16 8.3008 28.621 0.019531 0.48047 0.17969 0.96094 0.51953 1.3594 0.78125 0.94141 2.1797 1.0586 3.1016 0.28125 8.8789-7.418 18.141-12.422 26.199-14.461 7.4609-1.8984 13.781-1.2188 17.48 2.5 3.7188 3.7188 4.3789 10.02 2.5 17.48-2.0391 8.0586-7.0391 17.32-14.461 26.199-0.78125 0.94141-0.66016 2.3203 0.28125 3.1016 0.39844 0.33984 0.87891 0.5 1.3594 0.51953 11.48 1.0391 21.52 4.0586 28.621 8.3008 6.6211 3.9414 10.602 8.8789 10.602 14.141 0 5.2617-3.9805 10.199-10.602 14.141-7.1211 4.2383-17.16 7.2383-28.621 8.3008-0.48047 0.019531-0.96094 0.17969-1.3594 0.51953-0.94141 0.78125-1.0586 2.1797-0.28125 3.1016 7.418 8.8789 12.422 18.141 14.461 26.199 1.8984 7.4609 1.2188 13.781-2.5 17.48-3.7188 3.7188-10.02 4.3789-17.48 2.5-8.0586-2.0391-17.32-7.0391-26.199-14.461-0.94141-0.78125-2.3203-0.66016-3.1016 0.28125-0.33984 0.39844-0.5 0.87891-0.51953 1.3594-1.0391 11.48-4.0586 21.52-8.3008 28.621-2.6602 4.4805-5.8008 7.7383-9.1602 9.3984-0.078124 0.039062-0.14062 0.058594-0.21875 0.10156-1.5391 0.71875-3.1211 1.1016-4.7617 1.1016-1.6211 0-3.2188-0.37891-4.7383-1.1016-0.078124-0.039062-0.14062-0.078124-0.21875-0.10156-3.3789-1.6406-6.5-4.9219-9.1602-9.3984-4.2383-7.1211-7.2383-17.141-8.3008-28.621-0.019531-0.48047-0.17969-0.96094-0.51953-1.3594-0.78125-0.94141-2.1797-1.0586-3.1016-0.28125-8.8789 7.418-18.141 12.422-26.199 14.461-7.4609 1.8984-13.781 1.2188-17.48-2.5-3.7188-3.7188-4.3789-10.02-2.5-17.48 2.0391-8.0586 7.0391-17.32 14.461-26.199 0.78125-0.94141 0.66016-2.3203-0.28125-3.1016-0.39844-0.33984-0.87891-0.5-1.3594-0.51953-11.48-1.0391-21.52-4.0586-28.621-8.3008-6.6211-3.9414-10.602-8.8789-10.602-14.141zm44.84 0c0 1.2188 0.98047 2.2188 2.2188 2.2188h24.418c0.48047 5.9414 2.8594 11.34 6.5391 15.602l-20.66 20.059c-0.87891 0.83984-0.89844 2.2383-0.039062 3.1211 0.83984 0.87891 2.2383 0.89844 3.1211 0.039062l20.719-20.121c4.1992 3.5195 9.4805 5.7812 15.262 6.2617v26.84c0 1.2188 1 2.2188 2.2188 2.2188s2.2188-1 2.2188-2.2188v-26.84c6.1211-0.5 11.66-3 15.98-6.8594l18.859 19.059c0.85938 0.85938 2.2617 0.85938 3.1211 0s0.85938-2.2617 0-3.1211l-18.961-19.16c3.3398-4.1406 5.4805-9.2617 5.9414-14.879h24.418c1.2188 0 2.2188-1 2.2188-2.2188s-0.98047-2.2188-2.2188-2.2188h-24.418c-0.46094-5.7188-2.6797-10.941-6.1406-15.121l20.699-20.102c0.87891-0.83984 0.89844-2.2383 0.039063-3.1211-0.83984-0.87891-2.2383-0.89844-3.1211-0.039063l-20.68 20.102c-4.3789-3.8398-10-6.3008-16.18-6.6797v-28.48c0-1.2188-0.98047-2.2188-2.2188-2.2188-1.2188 0-2.2188 0.98047-2.2188 2.2188v28.559c-5.6406 0.53906-10.781 2.8008-14.879 6.2617l-18.922-19.102c-0.85938-0.85938-2.2617-0.85938-3.1211 0-0.85938 0.85937-0.85938 2.2617 0 3.1211l18.898 19.102c-3.6406 4.2383-6.0195 9.6211-6.4805 15.539h-24.418c-1.2188 0-2.2188 0.98047-2.2188 2.2188zm372.06-53.18c0 6.5391-4.8984 12.66-13.059 17.52-8.6797 5.1602-20.898 8.8398-34.879 10.102-0.48047 0.019531-0.96094 0.17969-1.3594 0.51953-0.94141 0.78125-1.0586 2.1797-0.28125 3.1016 9.0195 10.82 15.121 22.102 17.602 31.922 2.3398 9.1992 1.4805 17-3.1406 21.621-4.6211 4.6211-12.422 5.4805-21.621 3.1406-9.8203-2.4805-21.102-8.582-31.922-17.602-0.94141-0.78125-2.3203-0.66016-3.1016 0.28125-0.33984 0.39844-0.5 0.87891-0.51953 1.3594-1.2812 13.98-4.9414 26.199-10.102 34.879-3.2812 5.5195-7.1406 9.5391-11.32 11.578-0.078125 0.039063-0.14062 0.058594-0.21875 0.10156-1.9414 0.89844-3.9414 1.3789-5.9805 1.3789-2.0391 0-4.0391-0.48047-5.9609-1.3789-0.078125-0.039063-0.14062-0.078125-0.21875-0.10156-4.1797-2.0195-8.0391-6.0586-11.32-11.559-5.1602-8.6797-8.8398-20.918-10.102-34.879-0.019532-0.48047-0.17969-0.96094-0.51953-1.3594-0.78125-0.94141-2.1797-1.0586-3.1016-0.28125-10.82 9.0195-22.102 15.121-31.922 17.602-9.1992 2.3398-17 1.4805-21.621-3.1406-4.6211-4.6211-5.4805-12.422-3.1406-21.621 2.4805-9.8203 8.582-21.102 17.602-31.922 0.78125-0.94141 0.66016-2.3203-0.28125-3.1016-0.39844-0.33984-0.87891-0.5-1.3594-0.51953-13.98-1.2812-26.199-4.9414-34.879-10.102-8.1602-4.8594-13.059-10.961-13.059-17.52 0-6.5391 4.8984-12.66 13.059-17.52 8.6797-5.1602 20.918-8.8398 34.879-10.102 0.48047-0.019532 0.96094-0.17969 1.3594-0.51953 0.94141-0.78125 1.0586-2.1797 0.28125-3.1016-9.0195-10.82-15.121-22.102-17.602-31.922-2.3398-9.1992-1.4805-17 3.1406-21.621 4.6211-4.6211 12.422-5.4805 21.621-3.1406 9.8203 2.4805 21.102 8.582 31.922 17.602 0.94141 0.78125 2.3203 0.66016 3.1016-0.28125 0.33984-0.39844 0.5-0.87891 0.51953-1.3594 1.2812-13.98 4.9414-26.199 10.102-34.879 4.8594-8.1602 10.961-13.059 17.52-13.059 6.5391 0 12.66 4.8984 17.52 13.059 5.1602 8.6797 8.8398 20.918 10.102 34.879 0.019531 0.48047 0.17969 0.96094 0.51953 1.3594 0.78125 0.94141 2.1797 1.0586 3.1016 0.28125 10.82-9.0195 22.102-15.121 31.922-17.602 9.1992-2.3398 17-1.4805 21.621 3.1406 4.6211 4.6211 5.4805 12.422 3.1406 21.621-2.4805 9.8203-8.582 21.102-17.602 31.922-0.78125 0.94141-0.66016 2.3203 0.28125 3.1016 0.39844 0.33984 0.87891 0.5 1.3594 0.51953 13.98 1.2812 26.199 4.9414 34.879 10.102 8.1602 4.8594 13.059 10.961 13.059 17.52zm-55.238 0c0-1.2188-1-2.2188-2.2188-2.2188h-30c-0.48047-7.1406-3.2812-13.66-7.6406-18.801l25.359-24.641c0.87891-0.83984 0.89844-2.2383 0.039062-3.1211-0.83984-0.87891-2.2383-0.89844-3.1211-0.039062l-25.359 24.641c-5.3789-4.8398-12.359-7.8984-20.059-8.3008v-34.941c0-1.2188-0.98047-2.2188-2.2188-2.2188-1.2188 0-2.2188 0.98047-2.2188 2.2188v35c-7.0391 0.57812-13.461 3.4219-18.52 7.8008l-23.199-23.441c-0.85938-0.85938-2.2617-0.85938-3.1211 0s-0.85938 2.2617 0 3.1211l23.199 23.441c-4.6016 5.2188-7.5586 11.918-8.0586 19.301h-30c-1.2188 0-2.2188 0.98047-2.2188 2.2188 0 1.2188 0.98047 2.2188 2.2188 2.2188h30c0.5 7.418 3.4805 14.141 8.1211 19.379l-25.34 24.602c-0.87891 0.83984-0.89844 2.2383-0.039062 3.1211 0.83984 0.87891 2.2383 0.89844 3.1211 0.039062l25.398-24.66c5.1602 4.4414 11.738 7.2812 18.961 7.7617v32.922c0 1.2188 0.98047 2.2188 2.2188 2.2188 1.2188 0 2.2188-0.98047 2.2188-2.2188v-32.922c7.6211-0.51953 14.539-3.6602 19.82-8.5195l23.16 23.398c0.85938 0.85938 2.2617 0.85938 3.1211 0s0.85938-2.2617 0-3.1211l-23.238-23.48c4.2188-5.1016 6.8984-11.5 7.3789-18.5h30c1.2188 0 2.2188-0.98047 2.2188-2.2188zm-64.641-28.102c-7.7617 0-14.781 3.1406-19.859 8.2188s-8.2383 12.121-8.2383 19.859c0 7.7617 3.1406 14.781 8.2383 19.859 5.0781 5.0781 12.121 8.2383 19.859 8.2383 7.7617 0 14.781-3.1406 19.859-8.2383 5.0781-5.0781 8.2383-12.121 8.2383-19.859 0-7.7617-3.1406-14.781-8.2383-19.859-5.0781-5.0781-12.102-8.2188-19.859-8.2188zm96.441 182.84c-6.7188-2.5586-14.699-3.6406-23.199-2.7617-8.5586 0.87891-17.66 3.7617-26.578 9.1016-15.18 9.1016-29.84 25.359-40.52 51.199 16.879-6.1016 23.84-13.102 29.961-19.262 5.3203-5.3594 10.059-10.121 19.621-13.32 1.1602-0.37891 2.3984 0.23828 2.7812 1.3984 0.37891 1.1602-0.23828 2.3984-1.3984 2.7812-8.5586 2.8594-12.941 7.2812-17.879 12.238-6.582 6.6211-14.102 14.18-32.738 20.699 2.7383 1.5586 7.4805 2.9609 13.5 3.4805 7.5 0.64062 16.82-0.17969 26.559-3.9219 9.5-3.6406 19.422-10.059 28.422-20.578 15.238-17.82 30.898-27.082 36.66-30.121-3.4609-4.6992-8.7383-8.4805-15.18-10.941zm-364.92 44.48c8.5391 10 17.941 16.078 26.961 19.539 9.2383 3.5391 18.078 4.3203 25.199 3.7188 5.5586-0.48047 9.9609-1.7383 12.559-3.1602-17.559-6.1797-24.68-13.34-30.922-19.621-4.6797-4.7188-8.8398-8.8984-16.961-11.602-1.1602-0.37891-1.7812-1.6406-1.3984-2.7812 0.37891-1.1602 1.6406-1.7812 2.7812-1.3984 9.1016 3.0391 13.621 7.582 18.68 12.68 5.7812 5.8203 12.34 12.422 28.199 18.18-10.141-24.398-24.02-39.762-38.379-48.379-8.4609-5.0781-17.102-7.8008-25.219-8.6406-8.0586-0.83984-15.621 0.19922-22 2.6211-6.0586 2.3008-11.02 5.8594-14.301 10.262 5.5586 2.9609 20.359 11.762 34.762 28.578zm342 100.44h-68.719v-176c-1.5586 0.44141-3.1797 0.67969-4.8203 0.67969s-3.2617-0.21875-4.8203-0.67969v176h-189.96v-143.86c-1.1797 0.28125-2.3789 0.44141-3.6016 0.44141-1.2188 0-2.4219-0.14062-3.6016-0.44141v143.86h-75.941c-1.8984 0-3.4609 1.5391-3.4609 3.4609 0 1.8984 1.5391 3.4609 3.4609 3.4609h351.48c1.8984 0 3.4609-1.5391 3.4609-3.4609 0-1.8984-1.5391-3.4609-3.4609-3.4609z" fill="#007258"/>
</svg>
