<?xml version="1.0" encoding="UTF-8"?>
<svg viewBox="0 0 1200 1200" xmlns="http://www.w3.org/2000/svg">
 <rect x="-120" y="-120" width="1440" height="1440" fill="#fff"/>
 <path d="m568.5 274.63c0-17.418 14.051-31.5 31.5-31.5 17.418 0 31.5 14.051 31.5 31.5 0 17.418-14.051 31.5-31.5 31.5-17.418 0-31.5-14.051-31.5-31.5zm251.93 356.87c17.418 0 31.5-14.051 31.5-31.5 0-17.418-14.051-31.5-31.5-31.5-17.418 0-31.5 14.051-31.5 31.5 0 17.418 14.051 31.5 31.5 31.5zm-64.68-155.99c8.1758 0 16.176-2.9531 22.258-9.0312 6.082-6.082 9.2383-13.844 9.2383-22.258 0-8.3828-3.1602-16.383-9.0312-22.465-12.398-12.164-32.324-12.164-44.723 0-5.875 6.082-9.2383 14.051-9.2383 22.465 0 8.3828 3.3672 16.176 9.2383 22.258 6.2891 6.082 14.289 9.0312 22.258 9.0312zm201.12 460.37c0 11.543-9.4453 20.988-20.988 20.988h-671.76c-11.543 0-20.988-9.4453-20.988-20.988 0-11.543 9.4453-20.988 20.988-20.988h70.965l-26.656-53.52c-5.2539-10.508-1.0625-23.086 9.2383-28.133 10.508-5.2539 23.086-1.0625 28.133 9.2383l23.293 46.406 23.293-46.406c5.0469-10.273 17.625-14.496 28.133-9.2383 10.273 5.0469 14.496 17.625 9.2383 28.133l-26.656 53.52h112.94v-209.91h-20.988c-11.543 0-20.988-9.4453-20.988-20.988 0-11.543 9.4453-20.988 20.988-20.988h83.953v-41.977h-104.98c-11.543 0-20.988-9.4453-20.988-20.988 0-81.035 65.918-146.95 146.95-146.95s146.95 65.918 146.95 146.95c0 11.543-9.4453 20.988-20.988 20.988h-104.98v41.977h83.953c11.543 0 20.988 9.4453 20.988 20.988 0 11.543-9.4453 20.988-20.988 20.988h-20.988v209.91h112.94l-26.656-53.52c-5.2539-10.508-1.0625-23.086 9.2383-28.133 10.508-5.2539 23.086-1.0625 28.133 9.2383l23.293 46.406 23.293-46.406c5.0469-10.273 17.625-14.496 28.133-9.2383 10.273 5.0469 14.496 17.625 9.2383 28.133l-26.656 53.52h70.965c11.543 0 20.988 9.4453 20.988 20.988zm-254.02-356.87c-9.8594-47.852-52.074-83.953-102.84-83.953-50.805 0-92.992 36.102-102.84 83.953h205.73zm222.52 52.488c17.418 0 31.5-14.051 31.5-31.5 0-17.418-14.051-31.5-31.5-31.5-17.418 0-31.5 14.051-31.5 31.5 0 17.418 14.051 31.5 31.5 31.5zm-95.289-230.08c7.9688 0 16.176-3.1602 22.258-9.2383 6.082-6.082 9.2383-13.844 9.2383-22.258 0-8.3828-3.3672-16.383-9.2383-22.258-12.398-12.398-32.324-12.398-44.516 0-5.875 5.875-9.2383 13.844-9.2383 22.258 0 8.3828 3.3672 16.383 9.2383 22.258 6.082 6.082 14.289 9.2383 22.258 9.2383zm-230.08 9.6523c17.418 0 31.5-14.051 31.5-31.5 0-17.418-14.051-31.5-31.5-31.5-17.418 0-31.5 14.051-31.5 31.5 0 17.418 14.051 31.5 31.5 31.5zm-230.08-9.6523c7.9688 0 16.176-3.1602 22.258-9.2383 5.875-5.875 9.2383-13.844 9.2383-22.258 0-8.3828-3.3672-16.383-9.2383-22.258-12.398-12.398-32.324-12.398-44.516 0-5.875 5.875-9.2383 13.844-9.2383 22.258 0 8.3828 3.3672 16.383 9.2383 22.258 5.875 5.875 14.289 9.2383 22.258 9.2383zm-95.289 230.08c17.418 0 31.5-14.051 31.5-31.5 0-17.418-14.051-31.5-31.5-31.5-17.418 0-31.5 14.051-31.5 31.5 0 17.418 14.051 31.5 31.5 31.5zm73.477-31.5c0 17.418 14.051 31.5 31.5 31.5 17.418 0 31.5-14.051 31.5-31.5 0-17.418-14.051-31.5-31.5-31.5-17.418 0-31.5 14.051-31.5 31.5zm96.148-124.49c7.9688 0 15.941-2.9531 22.051-9.0312 6.082-6.082 9.4453-13.844 9.4453-22.258 0-8.3828-3.3672-16.383-9.2383-22.465-12.398-12.164-32.324-12.164-44.723 0-5.875 6.082-9.0312 14.051-9.0312 22.465 0 8.3828 3.1602 16.176 9.2383 22.258 6.082 6.082 14.051 9.0312 22.258 9.0312z" fill="#007258"/>
</svg>
