<?xml version="1.0" encoding="UTF-8"?>
<svg viewBox="0 0 1200 1200" xmlns="http://www.w3.org/2000/svg">
 <rect x="-120" y="-120" width="1440" height="1440" fill="#fff"/>
 <path d="m870.94 843.1c0 27.719-41.594 27.719-41.594 0s41.594-27.719 41.594 0" fill="#007258"/>
 <path d="m775.41 828.78c-10.391 0-18.625 8.2344-18.625 18.625 0 10.184 8.2344 18.625 18.625 18.625 10.184 0 18.625-8.4414 18.625-18.625-0.03125-10.363-8.4727-18.625-18.625-18.625z" fill="#007258"/>
 <path d="m785.15 764.02c-10.184 0-18.422 8.4414-18.422 18.625s8.2344 18.625 18.422 18.625c10.391 0 18.625-8.4414 18.625-18.625s-8.2344-18.625-18.625-18.625z" fill="#007258"/>
 <path d="m757.2 559.71h-0.23438c-3.8984 0-7.793 1.5352-10.625 4.3398-2.5977 2.832-4.1328 6.4961-4.1328 10.391 0.23438 8.0312 7.3789 14.523 14.969 14.523 4.1328-0.23438 7.793-1.7109 10.391-4.5469 2.832-2.5977 4.3398-6.4961 4.1328-10.625 0-8.0312-6.4961-14.082-14.496-14.082z" fill="#007258"/>
 <path d="m830.64 574.2c9.9766-16.68 6.4961-31.41 1.3008-41.152-7.793-14.969-21.254-22.969-38.141-23.203-9.5352-16.473-23.379-20.781-34.242-21.43-17.121-1.0625-30.996 6.4961-39.852 21.43h-0.41406c-15.379 0-27.75 6.7305-35.75 19.719-9.0938 14.289-9.3281 29.902-0.64844 44.633-10.391 17.121-6.2891 32.293-0.64844 42.242 8.0312 14.73 21.902 22.555 37.699 22.082 8.2344 13.875 21.02 21.43 36.605 21.43 1.0625 0 2.1836 0 3.0391-0.23438 10.832-0.64844 24.914-4.9883 34.242-21.43 18.832 0.23438 29.461-9.5352 35.305-18.422 9.9492-14.438 10.391-30.496 1.5039-45.668zm-47.438 25.387c-6.7305 6.9375-16.031 10.832-25.801 11.039h-0.41406c-19.719 0-35.957-16.031-36.398-35.75 0-9.7422 3.4844-19.07 10.391-26.008 6.9375-6.9375 16.031-10.832 26.008-10.832h0.23437c20.133 0 35.957 15.586 36.191 35.543 0.17578 9.9492-3.5117 19.039-10.215 26.008z" fill="#007258"/>
 <path d="m753.09 889.48c-0.41406-1.3008-1.0625-2.5977-2.1836-3.6914l-38.555-46.168c-40.738-48.531-63.469-110.05-63.703-173.35-0.23438-14.73-10.391-27.277-23.824-31.203l0.64844-333.88c0-17.535-14.289-31.852-31.852-31.852-8.6797 0.64844-16.473 3.2461-22.555 9.3281-5.8438 5.8438-9.3281 13.875-9.3281 22.316l-0.64844 333.88c-13.637 3.8984-23.824 16.234-24.031 30.996-0.88672 63.262-24.031 124.57-65.211 172.7l-38.996 45.934c-0.23438 0-0.23438 0.23438-0.23438 0.23438-0.88672 1.0625-1.5352 2.1836-1.9492 3.4844-0.23438 0.64844-0.23438 1.5352-0.23438 2.1836 0 0.64844-0.23438 1.3008-0.23438 1.9492 0.23438 1.3008 0.41406 2.832 1.0625 4.1328 10.391 20.781 28.164 33.152 47.23 33.359h0.23438c14.289 0 27.957-7.1445 38.348-19.277 9.5352 9.5352 22.73 15.379 36.84 15.379h0.23438c14.289 0 27.305-5.6367 37.047-15.172 10.184 12.34 23.824 19.484 38.141 19.484h0.23438c14.082 0 27.305-6.7305 37.699-18.422 10.184 11.926 23.379 18.832 37.699 18.832 19.07 0 36.84-12.34 47.469-32.945 0.64844-1.3008 1.0625-2.5977 1.0625-4.1328 0-0.64844-0.23438-1.3008-0.23438-1.7109 0-0.88672 0-1.5352-0.17578-2.3906zm-149.52-491.83h-20.367l0.23438-19.277h20.133zm0-40.945h-20.133l-0.03125-55.469c0-2.832 1.0625-5.4336 3.0391-7.1445 1.9492-1.9492 4.9883-3.2461 7.1445-3.0117 5.6367 0 10.184 4.5469 10.184 10.184z" fill="#007258"/>
 <path d="m458.43 423c2.5977-2.5977 4.1328-6.4961 4.1328-10.625-0.23438-8.0312-6.4961-14.082-14.73-14.082-4.1328 0-7.793 1.5352-10.625 4.3398-2.832 2.832-4.3398 6.4961-4.1328 10.391 0.23438 8.0312 7.5859 14.289 14.73 14.289 4.1016 0 7.793-1.5039 10.625-4.3086z" fill="#007258"/>
 <path d="m395.79 758.58c-11.484 0-20.781 9.3281-20.781 20.781 0 11.484 9.3281 20.781 20.781 20.781 11.484 0 20.781-9.3281 20.781-20.781 0.03125-11.453-9.2695-20.781-20.781-20.781z" fill="#007258"/>
 <path d="m450.39 498.39c10.832-0.64844 24.68-4.9883 34.008-21.43h0.23438c18.625 0 29.461-9.5352 35.305-18.422 9.7422-14.523 10.184-30.555 1.3008-45.699 9.9766-16.68 6.4961-31.41 1.5352-41.152-5.6367-10.832-16.887-23.203-38.141-23.203h-0.23438c-9.3281-16.473-23.379-20.781-34.242-21.43-16.887-1.0625-30.996 6.4961-39.645 21.43-15.824 0.23438-28.164 6.7305-36.398 19.719-9.0938 14.289-9.0938 29.902-0.41406 44.633-10.391 17.121-6.4961 32.293-0.88672 42.242 8.2344 14.73 20.574 22.082 37.902 22.082 8.2344 13.875 21.02 21.43 36.605 21.43 1.1211 0 2.0078 0 3.0703-0.20703zm-38.996-84.926c-0.23438-9.7422 3.4844-19.07 10.184-26.008 6.9375-6.9375 16.234-10.832 25.977-10.832h0.23438c20.133 0 36.191 15.586 36.398 35.543 0 9.9766-3.4844 19.07-10.391 26.008-6.7305 6.9375-15.824 10.832-25.801 10.832h-0.23438c-19.691-0.03125-36.164-15.852-36.367-35.543z" fill="#007258"/>
 <path d="m375 848.5c0 30.641-45.934 30.641-45.934 0 0-30.613 45.934-30.613 45.934 0" fill="#007258"/>
</svg>
