<?xml version="1.0" encoding="UTF-8"?>
<svg width="512pt" height="512pt" version="1.1" viewBox="0 0 512 512" xmlns="http://www.w3.org/2000/svg">
 <path d="m93.18 218h48.359c17.441-17.301 38.781-30.68 62.582-38.68v-24.102h103.78v24.102c23.801 8.0195 45.141 21.379 62.582 38.68h48.359v230.86h-48.359c-29.379 29.141-69.82 47.141-114.48 47.141s-85.098-18-114.48-47.141h-48.359v-230.86zm194.62 87.762-43.82 43.82-19.801-19.801c-2.3398-2.3398-6.1406-2.3398-8.4805 0-2.3398 2.3398-2.3398 6.1406 0 8.4805l24.039 24.039c2.3398 2.3398 6.1406 2.3398 8.4805 0l48.078-48.078c2.3398-2.3398 2.3398-6.1406 0-8.4805-2.3398-2.3398-6.1406-2.3398-8.4805 0zm-83.68-162.54h103.78c7.9414 0 14.422-6.5 14.422-14.422 0-7.9414-6.5-14.422-14.422-14.422h-103.78c-7.9414 0-14.422 6.5-14.422 14.422 0 7.9414 6.5 14.422 14.422 14.422zm51.883 94.02c-53.457 0-96.777 43.34-96.777 96.777 0 53.457 43.34 96.777 96.777 96.777 53.457 0 96.777-43.34 96.777-96.777 0-53.457-43.34-96.777-96.777-96.777zm-12.02 95.379-11.301-11.301c-7.0195-7.0195-18.422-7.0195-25.461 0-7.0195 7.0195-7.0195 18.422 0 25.461l24.039 24.039c7.0195 7.0195 18.422 7.0195 25.461 0l48.078-48.078c7.0195-7.0195 7.0195-18.422 0-25.461-7.0195-7.0195-18.422-7.0195-25.461 0l-35.34 35.34zm28.539-230.26v-16.641h-33.059v16.641zm-150.24-86.359h267.44c15.879 0 28.859 12.98 28.859 28.859s-12.98 28.859-28.859 28.859h-267.44c-15.879 0-28.859-12.98-28.859-28.859s12.98-28.859 28.859-28.859zm-41.102 432.86v-230.86c0-10.02-8.1992-18.199-18.199-18.199h-40.398c-3.6211 0-6.582 2.9609-6.582 6.582v254.08c0 3.6211 2.9609 6.582 6.582 6.582h40.398c10 0 18.199-8.1992 18.199-18.199zm349.64 0v-230.86c0-10.02 8.1992-18.199 18.199-18.199h40.398c3.6211 0 6.582 2.9609 6.582 6.582v254.08c0 3.6211-2.9609 6.582-6.582 6.582h-40.398c-10 0-18.199-8.1992-18.199-18.199zm-174.82-223.62c-60.078 0-108.78 48.719-108.78 108.78 0 60.078 48.719 108.78 108.78 108.78 60.078 0 108.78-48.719 108.78-108.78 0-60.078-48.719-108.78-108.78-108.78z" fill="#007258" fill-rule="evenodd"/>
</svg>
