<?xml version="1.0" encoding="UTF-8"?>
<svg viewBox="0 0 1200 1200" xmlns="http://www.w3.org/2000/svg">
 <rect x="-120" y="-120" width="1440" height="1440" fill="#fff"/>
 <path d="m463.97 923.92c7.4375 2.0977 15.824-6.168 12.93-13.52-2.0078-5.1367-5.4922-10.156-8.2969-14.906l-13.254-22.699c-13.578-23.32-16.77-35.777-47.379-44.664 10.625-45.402 19.836-91.184 29.609-136.8 0.03125-0.14844 59.336-264.73 59.777-267.86 12.637 3.6914 20.664 7.9414 25.031-7.6445 2.9805-10.625 5.1367-21.551 8.4414-32.09 43.188 6.1094 20.547 1.5352 56.59-17.004 9.7109-4.9883 19.926-7.7344 30.434-10.48 13.875 6.0508 39.852 20.547 52.93 23.32 12.488-4.043 15.379-23.438 19.66-34.184 7.7617-19.453 23.262-36.398 0.5-46.906-20.426-9.3867-129.77-62.23-147.83-62.082-39.676 3.543-50.566 48.648-23.027 73.949-11.426 11.363-29.43 26.422-39.086 38.465-2.5391 3.1875-15.824 56.473-15.027 60.34 1.0625 5.1953 6.6406 6.4062 11.102 7.0547-43.305 183.03-89.832 406.7-90.359 410.12-39.352 6.0234-44.723 20.957-61.078 50.656-4.25 7.7031-26.273 36.84-14.996 44.664 20.781 14.438 19.75-29.227 36.281-27.246 0.88672 12.695-5.9922 25.859 10.156 30.141 13.637-3.3359 11.633-18.746 12.25-30.141 4.0742-0.03125 8.1758-0.11719 12.25 0-0.089844 11.984-4.2227 25.977 9.9766 30.141 15.293-3.6914 11.426-17.477 11.395-30.141h11.809c1.1797 7.5859 0.67969 23.262 7.0859 28.043 4.2227 3.1602 11.305 2.0352 14.199-2.4492 4.1914-6.5547 0.58984-18.184 0.47266-25.625 2.6875-0.089844 6.168-0.97266 7.6758 1.7422 4.1016 7.8828 11.07 25.359 19.777 27.809zm79.145-665.2c8.207-0.91406 122.09 52.457 134.52 58.539-2.5977 6.168-12.367 33.004-14.879 35.629-40.562-19.426-80.648-37.137-121.38-55.824-20.754-9.5625-20.457-30.969 1.7422-38.348zm-2.5078 62.168c14.879 5.4336 33.062 14.969 47.852 21.668-13.312 5.9023-25.031 12.574-36.398 21.785-15.41-3.1602-28.605-5.7852-40.707 6.8789-5.1055 8.207-6.0234 20.637-8.1172 30.023-4.2227-1.3281-8.4414-2.5391-12.695-3.6914 10.715-52.93 15.379-38.141 50.066-76.668zm-187.75 551.05c6.4961-13.344 19.453-20.812 33.859-23.293 17.387-2.0664 36.34 6.7305 43.336 23.293z" fill="#007258"/>
 <path d="m892.28 886.58c-2.2734-212.07 12.516-219.45-43.926-301.28-36.016-52.223-36.574-79.707-36.488-141.17 0.03125-20.754 1.8008-42.895-24.207-48.973-9.6523-2.2734-37.699-0.97266-48.887-0.94531-26.008 5.4336-26.301 22.73-26.273 45.254l0.03125 34.242c-71.969 8.6211-128.05 57.445-137.8 131.46-0.88672 6.7891-3.543 21.078 2.9219 26.035 19.395 14.906 18.98-26.98 20.133-32.531 11.426-55.055 58.863-97.328 114.78-102.41-2.5664 8.1484-3.4844 16.59-5.5195 24.855-8.6211 35.07-22.523 52.367-41.742 81.211-30.699 46.141-31.941 86.785-31.91 138.89v136.53c0 22.699-2.9531 43.66 10.656 63.32-0.14844 0-182.16-0.089844-182.35-0.089844-9.6836 1.3594-14.109 12.34-6.1094 19.277 6.168 5.3438 80.711 2.5664 93.43 2.5664l280.86 0.03125c28.871 0.14844 56.621-9.0039 61.668-42.566 1.6523-10.832 0.73828-22.699 0.73828-33.711zm-151.2-470.37c8.5-0.20703 32.031-0.88672 39.113 0.41406 11.777 2.1562 9.0312 15.203 9.0312 24.031l-0.03125 31.027h-54.762c0.058593-13.844-5.8438-50.184 6.6406-55.469zm129.24 476.6c0.03125 45.668-8.707 48.531-49.094 48.324-27.895-0.03125-111.41-0.089843-107.22-0.089843-22.672 0-50.125 4.9297-57.27-22.438-2.7734-10.625-1.832-23.762-1.832-34.746v-121.21c0-52.664-1.5938-102.52 28.957-148.04 28.367-42.242 44.84-65.918 50.598-120.88h54.762c4.9883 38.082 19.16 74.391 41.652 105.48 25.301 35.012 38.555 61.551 39.379 107.01 0.85547 47.027 0.03125 94.199 0.058594 141.23z" fill="#007258"/>
 <path d="m829.05 683.75c-5.9336-2.3906-114.89-1.2695-130.42-0.94531-13.844 4.6055-10.422 20.898 4.5742 21.637 38.023 1.832 85.281 0.88672 123.45-0.03125 9.918-3.0703 13.668-16.148 2.3906-20.664z" fill="#007258"/>
 <path d="m515.81 753.42c2.0977-8.0586-5.3438-13.402-12.605-12.664-10.242 4.1914-58.656 54.141-60.871 58.922-3.9258 8.5 3.5117 17.152 12.281 14.762 8.2969-4.6055 59.156-53.195 61.195-61.02z" fill="#007258"/>
 <path d="m478.32 842.51c5.0469 1.9766 53.195 1.0625 62.316 0.94531 5.6094-1.5352 9.7695-7.5586 8.3242-13.371-3.0703-12.398-23.145-8.6797-32.621-8.6797-12.016 0-24.059-0.11719-36.074 0.03125-9.832 3.543-13.52 16.531-1.9492 21.078z" fill="#007258"/>
</svg>
