<?xml version="1.0" encoding="UTF-8"?>
<svg width="512pt" height="512pt" version="1.1" viewBox="0 0 512 512" xmlns="http://www.w3.org/2000/svg">
 <path d="m163.84 475.46c5.0391 1.4219 10.719-4.1797 8.7617-9.1602-1.3594-3.4805-3.7188-6.8789-5.6211-10.102l-8.9805-15.379c-9.1992-15.801-11.359-24.238-32.102-30.262 7.1992-30.762 13.441-61.777 20.059-92.684 0.019531-0.10156 40.199-179.36 40.5-181.48 8.5586 2.5 14 5.3789 16.961-5.1797 2.0195-7.1992 3.4805-14.602 5.7188-21.738 29.262 4.1406 13.922 1.0391 38.34-11.52 6.582-3.3789 13.5-5.2383 20.621-7.1016 9.3984 4.1016 27 13.922 35.859 15.801 8.4609-2.7383 10.422-15.879 13.32-23.16 5.2617-13.18 15.762-24.66 0.33984-31.781-13.84-6.3594-87.922-42.16-100.16-42.059-26.879 2.3984-34.262 32.961-15.602 50.102-7.7383 7.6992-19.941 17.898-26.48 26.059-1.7188 2.1602-10.719 38.262-10.18 40.879 0.71875 3.5195 4.5 4.3398 7.5195 4.7812-29.34 124-60.863 275.54-61.219 277.86-26.66 4.0781-30.301 14.199-41.379 34.32-2.8789 5.2188-17.801 24.961-10.16 30.262 14.078 9.7812 13.379-19.801 24.582-18.461 0.60156 8.6016-4.0586 17.52 6.8789 20.422 9.2383-2.2617 7.8789-12.699 8.3008-20.422 2.7617-0.019532 5.5391-0.078126 8.3008 0-0.058594 8.1211-2.8594 17.602 6.7617 20.422 10.359-2.5 7.7383-11.84 7.7188-20.422h8c0.80078 5.1406 0.46094 15.762 4.8008 19 2.8594 2.1406 7.6602 1.3789 9.6211-1.6602 2.8398-4.4414 0.39844-12.32 0.32031-17.359 1.8203-0.058594 4.1797-0.66016 5.1992 1.1797 2.7812 5.3398 7.5 17.18 13.398 18.84zm53.621-450.68c5.5586-0.62109 82.719 35.539 91.141 39.66-1.7617 4.1797-8.3789 22.359-10.082 24.141-27.48-13.16-54.641-25.16-82.238-37.82-14.059-6.4805-13.859-20.98 1.1797-25.98zm-1.6992 42.121c10.082 3.6797 22.398 10.141 32.418 14.68-9.0195 4-16.961 8.5195-24.66 14.762-10.441-2.1406-19.379-3.9219-27.578 4.6602-3.4609 5.5586-4.0781 13.98-5.5 20.34-2.8594-0.89844-5.7188-1.7188-8.6016-2.5 7.2617-35.859 10.422-25.84 33.922-51.941zm-127.2 373.34c4.3984-9.0391 13.18-14.102 22.941-15.781 11.781-1.3984 24.621 4.5586 29.359 15.781z" fill="#007258"/>
 <path d="m454.02 450.16c-1.5391-143.68 8.4805-148.68-29.762-204.12-24.398-35.379-24.781-54-24.719-95.641 0.019532-14.059 1.2188-29.059-16.398-33.18-6.5391-1.5391-25.539-0.66016-33.121-0.64062-17.621 3.6797-17.82 15.398-17.801 30.66l0.019531 23.199c-48.762 5.8398-86.758 38.922-93.359 89.062-0.60156 4.6016-2.3984 14.281 1.9805 17.641 13.141 10.102 12.859-18.281 13.641-22.039 7.7383-37.301 39.879-65.941 77.762-69.383-1.7383 5.5195-2.3594 11.238-3.7383 16.84-5.8398 23.762-15.262 35.48-28.281 55.02-20.801 31.262-21.641 58.797-21.621 94.102v92.496c0 15.379-2 29.578 7.2188 42.898-0.10156 0-123.42-0.058594-123.54-0.058594-6.5586 0.92188-9.5586 8.3594-4.1406 13.059 4.1797 3.6211 54.68 1.7383 63.297 1.7383l190.28 0.019532c19.559 0.10156 38.359-6.1016 41.781-28.84 1.1211-7.3398 0.5-15.379 0.5-22.84zm-102.44-318.68c5.7617-0.14062 21.699-0.60156 26.5 0.28125 7.9805 1.4609 6.1211 10.301 6.1211 16.281l-0.019531 21.02h-37.102c0.039063-9.3789-3.9609-34 4.5-37.578zm87.562 322.9c0.019531 30.941-5.8984 32.879-33.262 32.738-18.898-0.019532-75.48-0.058594-72.641-0.058594-15.359 0-33.961 3.3398-38.801-15.199-1.8789-7.1992-1.2383-16.102-1.2383-23.539v-82.121c0-35.68-1.0781-69.457 19.621-100.3 19.219-28.621 30.379-44.66 34.281-81.898h37.102c3.3789 25.801 12.98 50.398 28.219 71.461 17.141 23.719 26.121 41.699 26.68 72.5 0.57813 31.859 0.019532 63.82 0.039063 95.684z" fill="#007258"/>
 <path d="m411.18 312.74c-4.0195-1.6211-77.84-0.85938-88.359-0.64062-9.3789 3.1211-7.0586 14.16 3.1016 14.66 25.758 1.2383 57.777 0.60156 83.641-0.019531 6.7188-2.0781 9.2617-10.941 1.6211-14z" fill="#007258"/>
 <path d="m198.96 359.94c1.4219-5.4609-3.6211-9.0781-8.5391-8.582-6.9414 2.8398-39.738 36.68-41.238 39.922-2.6602 5.7617 2.3789 11.621 8.3203 10 5.6211-3.1211 40.078-36.039 41.461-41.34z" fill="#007258"/>
 <path d="m173.56 420.3c3.4219 1.3398 36.039 0.71875 42.219 0.64062 3.8008-1.0391 6.6211-5.1211 5.6406-9.0586-2.0781-8.3984-15.68-5.8789-22.102-5.8789-8.1406 0-16.301-0.078125-24.441 0.019532-6.6602 2.3984-9.1602 11.199-1.3203 14.281z" fill="#007258"/>
</svg>
