<?xml version="1.0" encoding="UTF-8"?>
<svg width="512pt" height="512pt" version="1.1" viewBox="0 0 512 512" xmlns="http://www.w3.org/2000/svg">
 <path d="m234.66 35.559c0-11.801 9.5195-21.34 21.34-21.34 11.801 0 21.34 9.5195 21.34 21.34 0 11.801-9.5195 21.34-21.34 21.34-11.801 0-21.34-9.5195-21.34-21.34zm170.68 241.78c11.801 0 21.34-9.5195 21.34-21.34 0-11.801-9.5195-21.34-21.34-21.34-11.801 0-21.34 9.5195-21.34 21.34 0 11.801 9.5195 21.34 21.34 21.34zm-43.82-105.68c5.5391 0 10.961-2 15.078-6.1211 4.1211-4.1211 6.2617-9.3789 6.2617-15.078 0-5.6797-2.1406-11.102-6.1211-15.219-8.3984-8.2383-21.898-8.2383-30.301 0-3.9805 4.1211-6.2617 9.5195-6.2617 15.219 0 5.6797 2.2812 10.961 6.2617 15.078 4.2617 4.1211 9.6797 6.1211 15.078 6.1211zm136.26 311.9c0 7.8203-6.3984 14.219-14.219 14.219h-455.12c-7.8203 0-14.219-6.3984-14.219-14.219 0-7.8203 6.3984-14.219 14.219-14.219h48.078l-18.059-36.262c-3.5586-7.1211-0.71875-15.641 6.2617-19.059 7.1211-3.5586 15.641-0.71875 19.059 6.2617l15.781 31.441 15.781-31.441c3.4219-6.9609 11.941-9.8203 19.059-6.2617 6.9609 3.4219 9.8203 11.941 6.2617 19.059l-18.059 36.262h76.52v-142.22h-14.219c-7.8203 0-14.219-6.3984-14.219-14.219 0-7.8203 6.3984-14.219 14.219-14.219h56.879v-28.441h-71.121c-7.8203 0-14.219-6.3984-14.219-14.219 0-54.902 44.66-99.559 99.559-99.559s99.559 44.66 99.559 99.559c0 7.8203-6.3984 14.219-14.219 14.219h-71.121v28.441h56.879c7.8203 0 14.219 6.3984 14.219 14.219 0 7.8203-6.3984 14.219-14.219 14.219h-14.219v142.22h76.52l-18.059-36.262c-3.5586-7.1211-0.71875-15.641 6.2617-19.059 7.1211-3.5586 15.641-0.71875 19.059 6.2617l15.781 31.441 15.781-31.441c3.4219-6.9609 11.941-9.8203 19.059-6.2617 6.9609 3.4219 9.8203 11.941 6.2617 19.059l-18.059 36.262h48.078c7.8203 0 14.219 6.3984 14.219 14.219zm-172.1-241.78c-6.6797-32.418-35.281-56.879-69.68-56.879-34.422 0-63 24.461-69.68 56.879h139.38zm150.76 35.559c11.801 0 21.34-9.5195 21.34-21.34 0-11.801-9.5195-21.34-21.34-21.34-11.801 0-21.34 9.5195-21.34 21.34 0 11.801 9.5195 21.34 21.34 21.34zm-64.559-155.88c5.3984 0 10.961-2.1406 15.078-6.2617 4.1211-4.1211 6.2617-9.3789 6.2617-15.078 0-5.6797-2.2812-11.102-6.2617-15.078-8.3984-8.3984-21.898-8.3984-30.16 0-3.9805 3.9805-6.2617 9.3789-6.2617 15.078 0 5.6797 2.2812 11.102 6.2617 15.078 4.1211 4.1211 9.6797 6.2617 15.078 6.2617zm-155.88 6.5391c11.801 0 21.34-9.5195 21.34-21.34 0-11.801-9.5195-21.34-21.34-21.34-11.801 0-21.34 9.5195-21.34 21.34 0 11.801 9.5195 21.34 21.34 21.34zm-155.88-6.5391c5.3984 0 10.961-2.1406 15.078-6.2617 3.9805-3.9805 6.2617-9.3789 6.2617-15.078 0-5.6797-2.2812-11.102-6.2617-15.078-8.3984-8.3984-21.898-8.3984-30.16 0-3.9805 3.9805-6.2617 9.3789-6.2617 15.078 0 5.6797 2.2812 11.102 6.2617 15.078 3.9805 3.9805 9.6797 6.2617 15.078 6.2617zm-64.559 155.88c11.801 0 21.34-9.5195 21.34-21.34 0-11.801-9.5195-21.34-21.34-21.34-11.801 0-21.34 9.5195-21.34 21.34 0 11.801 9.5195 21.34 21.34 21.34zm49.781-21.34c0 11.801 9.5195 21.34 21.34 21.34 11.801 0 21.34-9.5195 21.34-21.34 0-11.801-9.5195-21.34-21.34-21.34-11.801 0-21.34 9.5195-21.34 21.34zm65.141-84.34c5.3984 0 10.801-2 14.941-6.1211 4.1211-4.1211 6.3984-9.3789 6.3984-15.078 0-5.6797-2.2812-11.102-6.2617-15.219-8.3984-8.2383-21.898-8.2383-30.301 0-3.9805 4.1211-6.1211 9.5195-6.1211 15.219 0 5.6797 2.1406 10.961 6.2617 15.078 4.1211 4.1211 9.5195 6.1211 15.078 6.1211z" fill="#fff"/>
</svg>
