<?xml version="1.0" encoding="UTF-8"?>
<svg width="512pt" height="512pt" version="1.1" viewBox="0 0 512 512" xmlns="http://www.w3.org/2000/svg">
 <path d="m368 352-219.1-24.238-53.258-251.08c-1-4.7617-4.1406-8.8203-8.5-11l-63.98-31.98c-7.9219-3.9609-17.52-0.73828-21.48 7.1602-3.9609 7.8984-0.76172 17.52 7.1602 21.48l57.098 28.539 49.48 233.18s-29.219-4.0391-35.422-4.0391c-44.102-0.019532-80 35.879-80 79.98 0 44.121 35.879 80 80 80 26.082 0 49.238-12.621 63.84-32h168.82c11.082 19.102 31.719 32 55.344 32 35.281 0 64-28.719 64-64s-28.719-64-64-64zm-288 96c-26.48 0-48-21.52-48-48s21.52-48 48-48 48 21.52 48 48-21.52 48-48 48zm288 0c-17.641 0-32-14.359-32-32s14.359-32 32-32 32 14.359 32 32-14.359 32-32 32z" fill="#fff"/>
 <path d="m480 464v-48c-17.68 0-32 14.32-32 32v32h64v-48c-17.68 0-32 14.32-32 32z" fill="#fff"/>
 <path d="m176 314.66 160 17.699v-44.359h16v-32h-192v32h16z" fill="#fff"/>
</svg>
