<?xml version="1.0" encoding="UTF-8"?>
<svg width="512pt" height="512pt" version="1.1" viewBox="0 0 512 512" xmlns="http://www.w3.org/2000/svg">
 <path d="m366.34 90.902c2.0391 12.16 3.6797 25.461 3.6797 25.461s1.6406-13.301 3.6797-25.461c2.0391-12.16 28.441-13.68 28.441-13.68-6.5391-0.37891-26.398-1.1406-28.441-13.301-2.0391-12.16-3.6797-25.461-3.6797-25.461s-1.6406 13.301-3.6797 25.461c-2.0391 12.16-28.441 13.68-28.441 13.68 6.5391 0.37891 26.398 1.1406 28.441 13.301z" fill="#fff"/>
 <path d="m417.44 167.74c3.7812 4.1602 5.9609 16.922 7.5391 23.961 1.5781-7.0391 3.7617-19.82 7.5391-23.961 4-4.3789 9.3984-6.1406 16.141-8.6797-9.5781-0.53906-14-4.4414-14-4.4414-7.9805-4.7812-9.6602-23.141-9.6602-23.141s-1.6797 18.359-9.6602 23.141c0 0-4.4414 3.8984-14 4.4414 6.7383 2.5586 12.141 4.3008 16.141 8.6797z" fill="#fff"/>
 <path d="m79.242 118.48c2.3203 14.898 4.1992 31.219 4.1992 31.219s1.8594-16.301 4.1992-31.219c2.3398-14.898 32.379-16.781 32.379-16.781-7.4609-0.46094-30.039-1.3984-32.379-16.301-2.3203-14.898-4.1992-31.219-4.1992-31.219s-1.8594 16.301-4.1992 31.219c-2.3203 14.898-32.379 16.781-32.379 16.781 7.4609 0.46094 30.039 1.3984 32.379 16.301z" fill="#fff"/>
 <path d="m58.699 350.64s-1.6797 18.422-9.6992 23.219c0 0-4.4414 3.9219-14.059 4.4414 6.7617 2.5586 12.18 4.3203 16.18 8.7188 3.7812 4.1602 5.9805 16.98 7.5586 24.039 1.5781-7.0586 3.7812-19.879 7.5586-24.039 4-4.3984 9.418-6.1602 16.18-8.7188-9.6016-0.53906-14.059-4.4414-14.059-4.4414-8-4.8008-9.6992-23.219-9.6992-23.219z" fill="#fff"/>
 <path d="m468.04 257-93.281-79.059c-4.4609 1.8203-8.4609 3.5391-11.98 5.5781l97.5 82.641c2.6211 2.2188 1.8398 5.0391 1.5391 5.8594-0.30078 0.82031-1.5391 3.4609-4.9609 3.4609h-33.641l-76.699-65c-1.3203 5.6016-4.2812 20.738-4.6797 22.699-0.37891 1.8594-2.0195 3.1992-3.9219 3.1992-1.8984 0-3.5391-1.3398-3.9219-3.1992-0.39844-1.9609-0.83984-4.1406-1.2812-6.4805-2.3398-12-5.8789-30.16-10.66-35.859-5.5391-6.6016-13.18-9.6992-22.84-13.641l-3.0195-1.2188c-1.7188-0.69922-2.7383-2.5195-2.4219-4.3594 0.28125-1.6211 1.5-2.8789 3.0586-3.2383l-19.602-16.602c-5.6602-4.8008-13.941-4.8008-19.602 0l-146 123.74h-33.641c-3.4219 0-4.6602-2.6602-4.9609-3.4609-0.30078-0.82031-1.0586-3.6406 1.5391-5.8594l174.84-148.24c5.2188-4.4219 11.621-6.6406 18.02-6.6406 6.3984 0 12.801 2.2188 18.02 6.6406l40.559 34.379c1.8203-3.5781 3.2812-7.7617 4.4219-11.98l-37.219-31.539c-14.941-12.66-36.621-12.66-51.539 0l-66.863 56.656v-20.379h-62.383v73.262l-45.602 38.641c-5.6016 4.7383-7.582 12.262-5.0586 19.141 2.5195 6.8789 8.8984 11.34 16.238 11.34h31.859v183.86h315.18v-183.86h31.859c7.3398 0 13.699-4.4414 16.238-11.34 2.5195-6.8789 0.53906-14.398-5.0586-19.141zm-236.2 202.34h-66.719v-84.02c0-18.398 14.961-33.359 33.359-33.359 18.398 0 33.359 14.961 33.359 33.359zm99.34-44.02h-43.262v-43.262h43.262zm0-55.262h-43.262v-43.262h43.262zm55.262 55.262h-43.262v-43.262h43.262zm0-55.262h-43.262v-43.262h43.262z" fill="#fff"/>
 <path d="m337.94 143.44c-2.6602 9.3203-7 19.102-13.98 23.801-1.1211 0.98047-5.1797 4.1602-12.359 6.4805 6.3594 2.9609 11.961 6.3789 16.602 11.918 4.3398 5.1797 7.3594 15.68 9.7383 26.48 2.3789-10.801 5.3984-21.301 9.7383-26.48 4.6406-5.5391 10.238-8.9805 16.602-11.918-7.1797-2.3203-11.238-5.5-12.359-6.4805-6.9609-4.6992-11.301-14.48-13.98-23.801z" fill="#fff"/>
</svg>
