<?xml version="1.0" encoding="UTF-8"?>
<svg width="512pt" height="512pt" version="1.1" viewBox="0 0 512 512" xmlns="http://www.w3.org/2000/svg">
 <path d="m305.06 177.92c-27.52 47.66-31.719 110.84-32.121 174.04-3.9414-0.26172-8.0391-0.39844-12.121-0.39844-8.0391 0-15.922 0.39844-23.699 1.1797 0.14062-31.859 1.3203-63.719 5.6602-94.258-13.699-19.48-29.219-36.602-47.398-49.5 2.2383-1.7188 4.4805-3.6797 6.4609-5.8008 6.4609-6.7188 11.32-14.738 14.34-23.699 13.16 9.4805 25.141 20.539 36.082 32.922 5.6602-20.141 13.559-39.102 24.219-56.602 3.3008 4.7383 7.3789 8.8203 11.84 12.5 5 4.0781 10.66 7.3789 16.719 9.6211zm-112.68 16.199c-25.801 26.98-74.641 18.301-101.24-10.66-40.418-43.961-41.34-104-25.02-106.64 11.578-1.8398 16.98 8.5586 52.52 11.84 17.898 1.5781 38.961 0.14062 58.18 11.719 32.379 19.879 40.539 67.398 15.539 93.742zm-7.6406-33.441c-7.2383-8.6797-16.059-15.922-26.461-21.578-8.9609-4.8789-16.719-7.7617-24.359-10.66-7.8984-3.0195-15.281-5.8008-23.441-10.539-3.1602-1.8398-7.1016-0.78125-8.9609 2.3789-1.8398 3.0195-0.78125 7.1016 2.2383 8.9609 9.0781 5.3984 17.5 8.418 25.539 11.578 7.1016 2.6406 14.48 5.3984 22.641 9.8789 8.8203 4.8789 16.461 11.059 22.52 18.422 1.3203 1.5781 3.3008 2.3594 5.1406 2.3594 1.4414 0 2.8984-0.39844 4.2188-1.4414 2.7617-2.3594 3.1602-6.4609 0.92188-9.3398zm210.76-26.059c-22.641 32.121-69.898 47-99 23.559-28.18-22.898-26.059-71.082 3.4219-94.918 17.5-14.078 38.699-15.281 56.219-19.219 34.879-7.7617 38.84-18.82 50.559-18.422 16.461 0.66016 23.441 60.297-11.199 109zm-18.301-61.48c-2.2383-2.7617-6.4609-3.3008-9.2188-1.0586-7.5 5.6602-14.48 9.4805-21.859 13.422-7.2383 3.8203-14.621 7.7617-22.781 13.699-9.6016 6.9805-17.5 15.281-23.441 24.879-1.9805 3.0195-1.0586 7.1016 1.9805 9.0781 1.1797 0.66016 2.3594 0.92188 3.5586 0.92188 2.1016 0 4.3398-1.0586 5.5195-3.0195 5.1406-8.1602 11.84-15.281 20.141-21.199 7.3789-5.3984 14.34-9.2188 21.199-12.762 7.5-4.0781 15.398-8.1602 23.699-14.621 2.8984-2.2383 3.4219-6.4609 1.1797-9.3398zm-116.34 291.58c-88.16 0-163.78 50.34-194.92 121.68h389.84c-31.141-71.344-106.76-121.68-194.92-121.68z" fill="#007258"/>
</svg>
